M48
; DRILL file {KiCad (5.1.6-0)} date Thursday, October 15, 2020 at 04:41:49 PM
; FORMAT={-:-/ absolute / inch / decimal}
; #@! TF.CreationDate,2020-10-15T16:41:49-05:00
; #@! TF.GenerationSoftware,Kicad,Pcbnew,(5.1.6-0)
; #@! TF.FileFunction,Plated,1,4,PTH
FMAT,2
INCH
T1C0.0039
T2C0.0059
T3C0.0157
T4C0.0390
%
G90
G05
T1
X4.757Y-4.1657
X4.804Y-4.134
X4.883Y-4.197
T2
X4.757Y-4.102
X4.773Y-4.166
X4.836Y-4.119
X4.836Y-4.166
X4.8675Y-4.0875
X4.899Y-4.245
T3
X4.2Y-4.3075
X4.618Y-4.428
X4.754Y-3.234
X4.768Y-3.726
X5.177Y-4.148
X5.323Y-3.613
X5.335Y-3.318
X5.424Y-4.47
X5.615Y-4.469
X5.625Y-4.22
X5.649Y-3.258
X5.748Y-4.082
X5.911Y-4.195
X6.106Y-4.549
T4
X3.857Y-3.6039
X3.857Y-3.7811
X4.113Y-3.6039
X4.113Y-3.7811
T0
M30
