%TF.GenerationSoftware,KiCad,Pcbnew,(5.1.6-0)*%
%TF.CreationDate,2020-10-15T16:42:25-05:00*%
%TF.ProjectId,BatBot,42617442-6f74-42e6-9b69-6361645f7063,rev?*%
%TF.SameCoordinates,Original*%
%TF.FileFunction,Copper,L2,Inr*%
%TF.FilePolarity,Positive*%
%FSLAX46Y46*%
G04 Gerber Fmt 4.6, Leading zero omitted, Abs format (unit mm)*
G04 Created by KiCad (PCBNEW (5.1.6-0)) date 2020-10-15 16:42:25*
%MOMM*%
%LPD*%
G01*
G04 APERTURE LIST*
%TA.AperFunction,ViaPad*%
%ADD10C,1.498000*%
%TD*%
%TA.AperFunction,ViaPad*%
%ADD11R,1.498000X1.498000*%
%TD*%
%TA.AperFunction,ViaPad*%
%ADD12C,0.200000*%
%TD*%
%TA.AperFunction,ViaPad*%
%ADD13C,0.800000*%
%TD*%
%TA.AperFunction,ViaPad*%
%ADD14C,0.300000*%
%TD*%
%TA.AperFunction,ViaPad*%
%ADD15C,0.400000*%
%TD*%
%TA.AperFunction,Conductor*%
%ADD16C,0.101600*%
%TD*%
G04 APERTURE END LIST*
D10*
%TO.N,Net-(C18-Pad2)*%
%TO.C,S1*%
X104469000Y-96039500D03*
%TO.N,GND*%
X97969000Y-96039500D03*
%TO.N,Net-(C18-Pad2)*%
X104469000Y-91539500D03*
D11*
%TO.N,GND*%
X97969000Y-91539500D03*
%TD*%
D12*
%TO.N,GND*%
X122021600Y-105003600D03*
D13*
X117297200Y-112471200D03*
D14*
X122834400Y-104622600D03*
D13*
X120751600Y-82143600D03*
X135509000Y-84277200D03*
D14*
X120827800Y-104190800D03*
X122834400Y-105816400D03*
D13*
X121107200Y-94640400D03*
X131495800Y-105359200D03*
X155092400Y-115544600D03*
X142621000Y-113512600D03*
X142875000Y-107188000D03*
X145999200Y-103682800D03*
X150139400Y-106553000D03*
X137769600Y-113538000D03*
X135204200Y-91770200D03*
D14*
X124434600Y-107823000D03*
D13*
X143484600Y-82753200D03*
X106680000Y-109410500D03*
D14*
X123634500Y-103822500D03*
D12*
X120828000Y-105810000D03*
D14*
X121234200Y-105816400D03*
D12*
X124028199Y-106603800D03*
%TO.N,+3V3*%
X123228000Y-106210000D03*
X124028000Y-107010000D03*
X122021600Y-103809800D03*
X122428000Y-104610000D03*
X122828000Y-104210000D03*
X124028000Y-104610000D03*
X122828000Y-105410000D03*
X122828000Y-105410000D03*
X122028000Y-106210000D03*
X119532400Y-104825800D03*
X119098400Y-103202400D03*
%TO.N,Net-(C18-Pad2)*%
X123647200Y-105816400D03*
X109474000Y-95186500D03*
%TO.N,Net-(C21-Pad2)*%
X124409200Y-106222800D03*
D15*
X121327001Y-111397001D03*
D12*
%TO.N,USART1-TX*%
X105130600Y-110286800D03*
X120828000Y-104610000D03*
%TO.N,USART1-CK*%
X105130600Y-110744000D03*
X120428000Y-105010000D03*
%TO.N,USART1-RX*%
X105156000Y-109753400D03*
X122028000Y-104210000D03*
X105727500Y-109791500D03*
X114363500Y-111696500D03*
%TO.N,JTMS-SWDIO*%
X121228000Y-104210000D03*
D15*
X105181400Y-108127800D03*
D12*
%TO.N,USART1-CTS*%
X121628000Y-104210000D03*
D15*
X105003600Y-108788200D03*
D12*
%TO.N,JTCK-SWCLK*%
X120428000Y-103410000D03*
X105130600Y-112242600D03*
X120828000Y-103810000D03*
D15*
X105130600Y-107365800D03*
D12*
%TO.N,JTDO-SWO*%
X105156000Y-111734600D03*
X122828000Y-103410000D03*
%TO.N,NJTRST*%
X105130600Y-111226600D03*
X122828000Y-103810000D03*
%TO.N,Net-(R3-Pad2)*%
X125120400Y-109143800D03*
X124028000Y-105810000D03*
%TO.N,SPI1-MISO*%
X136575800Y-108839000D03*
X124028000Y-107810000D03*
X133959600Y-108813600D03*
D15*
X132892800Y-107391200D03*
X132892800Y-105054400D03*
X134315200Y-97637600D03*
X137033000Y-94919800D03*
D14*
X139674600Y-93472000D03*
D12*
%TO.N,SPI1-SCLK*%
X123523624Y-107514776D03*
D15*
X136626600Y-107873800D03*
D14*
X139420600Y-88493600D03*
D12*
%TO.N,SPI1-MOSI*%
X136448800Y-108305600D03*
D15*
X132334000Y-103174800D03*
X133731000Y-96926400D03*
X134874000Y-94691200D03*
D14*
X138938000Y-88468200D03*
D12*
X123228000Y-107010000D03*
%TO.N,IMU_INT*%
X121640600Y-103809800D03*
X120726200Y-102158800D03*
D15*
X127050800Y-93827600D03*
D12*
X141046200Y-93472000D03*
%TO.N,NRF_CE*%
X121628000Y-103410000D03*
D15*
X135763000Y-106832400D03*
D12*
%TO.N,IMU_CS*%
X121234200Y-103428800D03*
X131648200Y-88595200D03*
X139750800Y-87807800D03*
%TO.N,NRF_CS*%
X121234200Y-103022400D03*
D15*
X124714000Y-98755200D03*
D12*
X136220200Y-107340400D03*
D15*
%TO.N,NRF-IRQ*%
X138582400Y-109753400D03*
X131826000Y-107645200D03*
D14*
X126796800Y-104114600D03*
D12*
X122021600Y-103403400D03*
%TD*%
D16*
%TO.N,+3V3*%
X124002400Y-107035600D02*
X124028000Y-107010000D01*
X122021600Y-103809800D02*
X122428000Y-104216200D01*
X122428000Y-104216200D02*
X122428000Y-104610000D01*
X124015400Y-104622600D02*
X124028000Y-104610000D01*
X123240600Y-104622600D02*
X123240600Y-104997400D01*
X123240600Y-104997400D02*
X122828000Y-105410000D01*
X122828000Y-105410000D02*
X122453400Y-105410000D01*
X122028000Y-105835400D02*
X122028000Y-106210000D01*
X122453400Y-105410000D02*
X122028000Y-105835400D01*
X119532400Y-104825800D02*
X119532400Y-104622600D01*
X119098400Y-104188600D02*
X119098400Y-103202400D01*
X119532400Y-104622600D02*
X119098400Y-104188600D01*
X123196500Y-104210000D02*
X123609100Y-104622600D01*
X122828000Y-104210000D02*
X123196500Y-104210000D01*
X123609100Y-104622600D02*
X124015400Y-104622600D01*
X123240600Y-104622600D02*
X123609100Y-104622600D01*
X123228000Y-106210000D02*
X123647200Y-106629200D01*
X123723400Y-106895900D02*
X123723400Y-107020498D01*
X123647200Y-106819700D02*
X123723400Y-106895900D01*
X123647200Y-106629200D02*
X123647200Y-106819700D01*
X124017502Y-107020498D02*
X124028000Y-107010000D01*
X123723400Y-107020498D02*
X124017502Y-107020498D01*
X122821800Y-104216200D02*
X122828000Y-104210000D01*
X122428000Y-104216200D02*
X122821800Y-104216200D01*
%TO.N,Net-(C18-Pad2)*%
X119900700Y-95186500D02*
X109474000Y-95186500D01*
X126111000Y-101396800D02*
X119900700Y-95186500D01*
X126111000Y-105206800D02*
X126111000Y-101396800D01*
X125760201Y-105557599D02*
X126111000Y-105206800D01*
X123906001Y-105557599D02*
X125760201Y-105557599D01*
X123647200Y-105816400D02*
X123906001Y-105557599D01*
%TO.N,USART1-TX*%
X105130600Y-110286800D02*
X114681000Y-110286800D01*
X120357800Y-104610000D02*
X120828000Y-104610000D01*
X114681000Y-110286800D02*
X120357800Y-104610000D01*
%TO.N,USART1-CK*%
X114694000Y-110744000D02*
X120428000Y-105010000D01*
X105130600Y-110744000D02*
X114694000Y-110744000D01*
%TO.N,USART1-RX*%
X115249501Y-110988499D02*
X122028000Y-104210000D01*
X105689400Y-109753400D02*
X105727500Y-109791500D01*
X105156000Y-109753400D02*
X105689400Y-109753400D01*
X114541500Y-111696500D02*
X115249501Y-110988499D01*
X114363500Y-111696500D02*
X114541500Y-111696500D01*
%TO.N,JTCK-SWCLK*%
X105130600Y-112242600D02*
X105384600Y-112496600D01*
X105384600Y-112496600D02*
X105384600Y-115443000D01*
X105384600Y-115443000D02*
X103632000Y-117195600D01*
X103632000Y-117195600D02*
X98145600Y-117195600D01*
X98145600Y-117195600D02*
X97561400Y-116611400D01*
X97561400Y-116611400D02*
X97561400Y-102946200D01*
X97561400Y-102946200D02*
X98729800Y-101777800D01*
X118795800Y-101777800D02*
X120828000Y-103810000D01*
X98729800Y-101777800D02*
X118795800Y-101777800D01*
%TO.N,JTDO-SWO*%
X105156000Y-111734600D02*
X105435400Y-111734600D01*
X105435400Y-111734600D02*
X106197400Y-112496600D01*
X106197400Y-112496600D02*
X106197400Y-115493800D01*
X106197400Y-115493800D02*
X104013000Y-117678200D01*
X104013000Y-117678200D02*
X97790000Y-117678200D01*
X97790000Y-117678200D02*
X96799400Y-116687600D01*
X96799400Y-116687600D02*
X96799400Y-102438200D01*
X96799400Y-102438200D02*
X97942400Y-101295200D01*
X120713200Y-101295200D02*
X122828000Y-103410000D01*
X97942400Y-101295200D02*
X120713200Y-101295200D01*
%TO.N,NJTRST*%
X105689400Y-111226600D02*
X105130600Y-111226600D01*
X106908600Y-115544600D02*
X106908600Y-112445800D01*
X97586800Y-118262400D02*
X104190800Y-118262400D01*
X123080401Y-102379401D02*
X121488200Y-100787200D01*
X123080401Y-103557599D02*
X123080401Y-102379401D01*
X106908600Y-112445800D02*
X105689400Y-111226600D01*
X95961200Y-116636800D02*
X97586800Y-118262400D01*
X95961200Y-102082600D02*
X95961200Y-116636800D01*
X97256600Y-100787200D02*
X95961200Y-102082600D01*
X121488200Y-100787200D02*
X97256600Y-100787200D01*
X104190800Y-118262400D02*
X106908600Y-115544600D01*
X122828000Y-103810000D02*
X123080401Y-103557599D01*
%TO.N,SPI1-MISO*%
X133934200Y-108839000D02*
X133959600Y-108813600D01*
X133858000Y-108839000D02*
X133934200Y-108839000D01*
X136575800Y-108839000D02*
X133858000Y-108839000D01*
X132892800Y-107391200D02*
X132892800Y-105054400D01*
X134315200Y-97637600D02*
X137033000Y-94919800D01*
X124523500Y-108839000D02*
X124028200Y-108343700D01*
X133858000Y-108839000D02*
X124523500Y-108839000D01*
X124028200Y-107810200D02*
X124028000Y-107810000D01*
X124028200Y-108343700D02*
X124028200Y-107810200D01*
%TO.N,SPI1-SCLK*%
X123523624Y-108177222D02*
X124744202Y-109397800D01*
X123523624Y-107514776D02*
X123523624Y-108177222D01*
X124744202Y-109397800D02*
X137363200Y-109397800D01*
X137363200Y-109397800D02*
X137871200Y-108889800D01*
X137871200Y-108889800D02*
X137871200Y-108102400D01*
X137642600Y-107873800D02*
X136626600Y-107873800D01*
X137871200Y-108102400D02*
X137642600Y-107873800D01*
%TO.N,SPI1-MOSI*%
X134620000Y-108305600D02*
X134620000Y-105511600D01*
X136448800Y-108305600D02*
X134620000Y-108305600D01*
X132334000Y-103225600D02*
X132334000Y-103174800D01*
X134620000Y-105511600D02*
X132334000Y-103225600D01*
X134874000Y-95783400D02*
X134874000Y-94691200D01*
X133731000Y-96926400D02*
X134874000Y-95783400D01*
X131089400Y-108305600D02*
X131089400Y-108064973D01*
X131089400Y-108064973D02*
X130364827Y-107340400D01*
X123441708Y-107223708D02*
X123809908Y-107223708D01*
X123809908Y-107223708D02*
X123926600Y-107340400D01*
X123228000Y-107010000D02*
X123441708Y-107223708D01*
X134620000Y-108305600D02*
X131089400Y-108305600D01*
X130364827Y-107340400D02*
X123926600Y-107340400D01*
%TO.N,IMU_INT*%
X140690600Y-93827600D02*
X141046200Y-93472000D01*
X127050800Y-93827600D02*
X140690600Y-93827600D01*
X121262810Y-103809800D02*
X121640600Y-103809800D01*
X120726200Y-103294354D02*
X121241646Y-103809800D01*
X121241646Y-103809800D02*
X121262810Y-103809800D01*
X120726200Y-102158800D02*
X120726200Y-103294354D01*
%TO.N,IMU_CS*%
X139506301Y-88052299D02*
X139750800Y-87807800D01*
X132191101Y-88052299D02*
X139506301Y-88052299D01*
X131648200Y-88595200D02*
X132191101Y-88052299D01*
%TO.N,NRF_CS*%
X129616200Y-98755200D02*
X129819400Y-98755200D01*
X124714000Y-98755200D02*
X129616200Y-98755200D01*
X129616200Y-98755200D02*
X129667000Y-98755200D01*
X136220200Y-105156000D02*
X136220200Y-107340400D01*
X129819400Y-98755200D02*
X136220200Y-105156000D01*
%TO.N,NRF-IRQ*%
X128295400Y-104114600D02*
X126796800Y-104114600D01*
X131826000Y-107645200D02*
X128295400Y-104114600D01*
%TD*%
M02*
