M48
; DRILL file {KiCad (5.1.6-0)} date Thursday, October 15, 2020 at 04:41:49 PM
; FORMAT={-:-/ absolute / inch / decimal}
; #@! TF.CreationDate,2020-10-15T16:41:49-05:00
; #@! TF.GenerationSoftware,Kicad,Pcbnew,(5.1.6-0)
; #@! TF.FileFunction,Plated,1,2,Blind
FMAT,2
INCH
T1C0.0039
%
G90
G05
T1
X4.139Y-4.342
X4.139Y-4.36
X4.139Y-4.379
X4.139Y-4.419
X4.14Y-4.321
X4.14Y-4.399
X4.31Y-3.7475
X4.6889Y-4.0631
X4.706Y-4.127
X4.7413Y-4.1343
X4.757Y-4.087
X4.757Y-4.1185
X4.789Y-4.087
X4.804Y-4.087
X4.8043Y-4.1028
X4.8043Y-4.1815
X4.82Y-4.1185
X4.8357Y-4.0713
X4.8357Y-4.087
X4.8357Y-4.1028
X4.8357Y-4.15
X4.8357Y-4.15
X4.8515Y-4.1815
X4.8515Y-4.213
X4.8631Y-4.2329
X4.868Y-4.166
X4.883Y-4.1185
X4.883Y-4.213
X4.883Y-4.2445
X5.363Y-4.226
X5.372Y-4.264
X5.377Y-4.285
X5.502Y-3.457
X5.553Y-3.68
T0
M30
