M48
; DRILL file {KiCad (5.1.6-0)} date Thursday, October 15, 2020 at 04:41:49 PM
; FORMAT={-:-/ absolute / inch / decimal}
; #@! TF.CreationDate,2020-10-15T16:41:49-05:00
; #@! TF.GenerationSoftware,Kicad,Pcbnew,(5.1.6-0)
; #@! TF.FileFunction,Plated,1,3,Blind
FMAT,2
INCH
T1C0.0039
T2C0.0059
T3C0.0079
%
G90
G05
T1
X4.7413Y-4.0713
X4.7728Y-4.1028
X4.773Y-4.056
X4.773Y-4.072
X4.7885Y-4.0713
X4.7885Y-4.1028
X4.804Y-4.071
X4.883Y-4.1657
X4.898Y-4.182
X4.926Y-4.297
T2
X5.47Y-3.483
X5.489Y-3.484
X5.499Y-3.68
T3
X4.134Y-4.283
X4.139Y-4.227
X4.141Y-4.257
X4.7767Y-4.3857
X5.345Y-4.206
X5.379Y-4.247
X5.456Y-4.321
T0
M30
