*%FSLAX24Y24*%
*%MOIN*%
G01*
%ADD11C,0.0030*%
%ADD12C,0.0043*%
%ADD13C,0.0050*%
%ADD14C,0.0060*%
%ADD15C,0.0073*%
%ADD16C,0.0080*%
%ADD17C,0.0100*%
%ADD18C,0.0120*%
%ADD19C,0.0200*%
%ADD20C,0.0300*%
%ADD21C,0.0320*%
%ADD22C,0.0400*%
%ADD23C,0.0560*%
%ADD24C,0.0600*%
%ADD25C,0.0620*%
%ADD26C,0.0700*%
%ADD27C,0.0800*%
%ADD28R,0.0098X0.0331*%
%ADD29R,0.0178X0.0411*%
%ADD30R,0.0200X0.0250*%
%ADD31R,0.0250X0.0200*%
%ADD32R,0.0280X0.0330*%
%ADD33R,0.0330X0.0280*%
%ADD34R,0.0331X0.0098*%
%ADD35R,0.0411X0.0178*%
%ADD36R,0.0551X0.0453*%
%ADD37R,0.0620X0.0620*%
%ADD38R,0.0631X0.0533*%
%ADD39R,0.0700X0.0700*%
%ADD40R,0.2400X0.0800*%
%ADD41R,0.2480X0.0880*%
D14*
X278458Y118260D02*
X278458Y119330D01*
X278458Y118260D02*
X278458Y118259D01*
X278458Y118260D02*
X278458Y118260D01*
X278649Y119349D02*
X278810D01*
X278640Y118905D02*
X278655Y118890D01*
X278640Y118890D02*
X279711D01*
X278640Y118890D02*
Y119820D01*
Y118890D02*
X279190D01*
X278458Y119330D02*
X278330D01*
X278310Y119349D01*
X278458Y118259D02*
X278010D01*
X278458Y119349D02*
Y119767D01*
D16*
X277970Y118300D02*
X278010Y118259D01*
X277970Y118300D02*
X277479D01*
X278460Y121446D02*
X278654Y121640D01*
X278460Y121446D02*
Y121430D01*
X277867Y119707D02*
Y119687D01*
X277570Y119390D01*
X277400D01*
X276770Y118760D01*
Y118590D01*
X279190Y118329D02*
X279650D01*
X279711Y118390D01*
X277512Y120910D02*
X277030D01*
X276940Y121000D01*
X276550D01*
X276140Y120590D01*
X275770D01*
X277344Y120319D02*
X277512D01*
X277344D02*
X276770Y119745D01*
Y119590D01*
X275550Y118244D02*
Y118125D01*
X275644Y118200D02*
X275325D01*
X275600Y118217D02*
Y118125D01*
X275650D02*
Y118198D01*
X275400Y118125D02*
Y118413D01*
X275325Y118250D02*
X275541D01*
X275450Y118334D02*
Y118125D01*
X275500D02*
Y118281D01*
X275700Y118186D02*
Y118125D01*
X275750D02*
Y118180D01*
X275800Y118181D02*
Y118125D01*
X275850D02*
Y118188D01*
X275900Y118201D02*
Y118125D01*
X275950D02*
Y118222D01*
X276000Y118251D02*
Y118125D01*
X276050D02*
Y118290D01*
X275407Y118400D02*
X275325D01*
Y118450D02*
X275385D01*
X275370Y118500D02*
X275325D01*
Y118550D02*
X275362D01*
X275360Y118600D02*
X275325D01*
Y118650D02*
X275364D01*
X275375Y118700D02*
X275325D01*
Y118750D02*
X275393D01*
X275325Y118300D02*
X275480D01*
X275438Y118350D02*
X275325D01*
X275999Y118250D02*
X276541D01*
X276480Y118300D02*
X276060D01*
X275418Y118800D02*
X275325D01*
Y118850D02*
X275453D01*
X275502Y118900D02*
X275325D01*
Y118950D02*
X275574D01*
X275750Y119000D02*
X275325D01*
X276100Y118347D02*
Y118125D01*
X276150D02*
Y118413D01*
X276200Y118410D02*
Y118125D01*
X276250D02*
Y118410D01*
X276178D02*
X276340D01*
X276300D02*
Y118125D01*
X276350D02*
Y118410D01*
X276500Y118281D02*
Y118125D01*
X276550D02*
Y118244D01*
X276600Y118217D02*
Y118125D01*
X276650D02*
Y118198D01*
X276438Y118350D02*
X276102D01*
X276133Y118400D02*
X276407D01*
X276400Y118413D02*
Y118125D01*
X276450D02*
Y118334D01*
X275500Y118899D02*
Y119281D01*
X275550Y119244D02*
Y118936D01*
X275600Y118963D02*
Y119217D01*
X275650Y119198D02*
Y118982D01*
X275325Y118125D02*
Y122055D01*
X275350D02*
Y118125D01*
X275400Y118767D02*
Y119413D01*
X275450Y119334D02*
Y118846D01*
X275325Y119050D02*
X275750D01*
Y119100D02*
X275325D01*
X275700Y119186D02*
Y118994D01*
X275750Y119150D02*
X275325D01*
Y119200D02*
X275644D01*
X275750Y119180D02*
Y119000D01*
Y119000D02*
Y119178D01*
X275407Y119400D02*
X275325D01*
Y119450D02*
X275385D01*
X275370Y119500D02*
X275325D01*
Y119550D02*
X275362D01*
X275360Y119600D02*
X275325D01*
Y119650D02*
X275364D01*
X275375Y119700D02*
X275325D01*
Y119750D02*
X275393D01*
X275400Y119767D02*
Y120413D01*
X275325Y119250D02*
X275541D01*
X275480Y119300D02*
X275325D01*
Y119350D02*
X275438D01*
X275418Y119800D02*
X275325D01*
Y119850D02*
X275453D01*
X275450Y119846D02*
Y120334D01*
X275502Y119900D02*
X275325D01*
X275500Y119899D02*
Y120281D01*
X276700Y118186D02*
Y118125D01*
X276644Y118200D02*
X275896D01*
X276750Y118180D02*
Y118125D01*
X276800D02*
Y118181D01*
X276850Y118188D02*
Y118125D01*
X276900D02*
Y118201D01*
X276950Y118222D02*
Y118125D01*
X277000D02*
Y118251D01*
X277279Y118125D02*
X275325D01*
Y118150D02*
X277279D01*
Y118200D02*
X276896D01*
X276999Y118250D02*
X277279D01*
X277050Y118290D02*
Y118125D01*
X277100D02*
Y118347D01*
X277150Y118436D02*
Y118125D01*
X277060Y118300D02*
X277279D01*
Y118350D02*
X277102D01*
X277133Y118400D02*
X277279D01*
Y118450D02*
X277155D01*
X277150Y118744D02*
Y118942D01*
X277100Y118892D02*
Y118833D01*
X277170Y118500D02*
X277279D01*
Y118700D02*
X277165D01*
X277178Y118550D02*
X277279D01*
Y118600D02*
X277180D01*
X277087Y118850D02*
X277279D01*
Y118900D02*
X277108D01*
X277147Y118750D02*
X277279D01*
Y118800D02*
X277122D01*
X277158Y118950D02*
X277635D01*
X278386Y118129D02*
X278458D01*
X278550Y118125D02*
Y118168D01*
X277200Y118125D02*
Y118992D01*
X277279Y118468D02*
Y118125D01*
X278600D02*
Y118434D01*
X278588Y118440D02*
X278588Y118261D01*
X278386Y118125D02*
X278814D01*
Y118150D02*
X278528D01*
X278573Y118200D02*
X278814D01*
Y118250D02*
X278587D01*
X278588Y118300D02*
X278814D01*
Y118350D02*
X278588D01*
X278650Y118425D02*
Y118125D01*
X278588Y118400D02*
X278814D01*
X277279Y118468D02*
Y118525D01*
Y118650D02*
X277176D01*
X277279Y118525D02*
Y118468D01*
Y118525D02*
Y118918D01*
X277208Y119000D02*
X277635D01*
Y118918D02*
X277279D01*
X278650Y118425D02*
X278750D01*
X277250Y118125D02*
Y119042D01*
X277074Y118866D02*
X277458Y119250D01*
X277300Y119092D02*
Y118918D01*
X277350D02*
Y119142D01*
X277400Y119192D02*
Y118918D01*
X277258Y119050D02*
X277635D01*
Y119100D02*
X277308D01*
X277358Y119150D02*
X277635D01*
Y119200D02*
X277408D01*
X277450Y119242D02*
Y118918D01*
X277458Y119250D02*
X277570D01*
X277500D02*
Y118918D01*
X277550D02*
Y119250D01*
X277570D02*
X277458D01*
X277570D02*
X277635D01*
X277600Y119253D02*
Y118918D01*
X277635D02*
Y119266D01*
X277700Y119286D02*
Y119322D01*
X277678Y119300D02*
X278125D01*
Y119286D02*
X277664D01*
X277750D02*
Y119372D01*
X277669Y119291D02*
X277880Y119502D01*
X277800Y119422D02*
Y119286D01*
X277850D02*
Y119472D01*
X277900Y119502D02*
Y119286D01*
X277950D02*
Y119502D01*
X277915D02*
X277880D01*
X277915D02*
X278016D01*
X278000D02*
Y119286D01*
X278016Y119502D02*
X277915D01*
X277728Y119350D02*
X278125D01*
Y119400D02*
X277778D01*
X278050Y119502D02*
Y119286D01*
X278125Y119450D02*
X277828D01*
X277878Y119500D02*
X278125D01*
X278112Y119502D02*
X278016D01*
X278100D02*
Y119286D01*
X278125D02*
Y119502D01*
X275574Y119950D02*
X275325D01*
Y120250D02*
X275541D01*
X275550Y120244D02*
Y119936D01*
X275480Y120300D02*
X275325D01*
Y120350D02*
X275438D01*
X275407Y120400D02*
X275325D01*
Y120450D02*
X275385D01*
X275370Y120500D02*
X275325D01*
Y120000D02*
X275689D01*
X275680Y120050D02*
X275325D01*
Y120100D02*
X275680D01*
Y120150D02*
X275325D01*
Y120200D02*
X275644D01*
X275600Y120217D02*
Y119963D01*
X275650Y119982D02*
Y120198D01*
X275362Y120550D02*
X275325D01*
Y120600D02*
X275360D01*
X275364Y120650D02*
X275325D01*
Y120700D02*
X275375D01*
X275393Y120750D02*
X275325D01*
Y120800D02*
X275418D01*
X275400Y120767D02*
Y121180D01*
X275360Y121200D02*
X275325D01*
Y120850D02*
X275453D01*
X275502Y120900D02*
X275325D01*
Y120950D02*
X275574D01*
X275770Y121000D02*
X275325D01*
Y121050D02*
X276402D01*
X275450Y121180D02*
Y120846D01*
X275500Y120899D02*
Y121180D01*
X275550D02*
Y120936D01*
X275600Y120963D02*
Y121180D01*
X275650D02*
Y120982D01*
X275680Y120161D02*
Y120050D01*
X276038Y120900D02*
X276252D01*
X275700Y120994D02*
Y121180D01*
X276087Y120850D02*
X276202D01*
X276302Y120950D02*
X275966D01*
X275770Y121000D02*
X276352D01*
X275360Y121250D02*
X275325D01*
Y121300D02*
X275360D01*
Y121350D02*
X275325D01*
Y121400D02*
X275360D01*
Y121450D02*
X275325D01*
Y121500D02*
X275360D01*
Y121180D02*
Y122000D01*
Y121550D02*
X275325D01*
X275360Y121180D02*
X276180D01*
X275360Y121600D02*
X275325D01*
X275750Y121180D02*
Y121000D01*
X275360Y121650D02*
X275325D01*
Y121700D02*
X275360D01*
Y121750D02*
X275325D01*
Y121800D02*
X275360D01*
Y121850D02*
X275325D01*
Y121900D02*
X275360D01*
Y121950D02*
X275325D01*
Y122000D02*
X275360D01*
X275400D02*
Y122055D01*
X275450D02*
Y122000D01*
X275500D02*
Y122055D01*
X275360Y122000D02*
X276180D01*
X275360D01*
X275550D02*
Y122055D01*
X275600D02*
Y122000D01*
X275325Y122050D02*
X276319D01*
X276316Y122055D02*
X275325D01*
X275650D02*
Y122000D01*
X275700D02*
Y122055D01*
X275750D02*
Y122000D01*
X275800Y121180D02*
Y120999D01*
X275850Y120992D02*
Y121180D01*
X275900D02*
Y120979D01*
X275950Y120958D02*
Y121180D01*
X276050D02*
Y120890D01*
X276000Y120929D02*
Y121180D01*
X276150D02*
Y120798D01*
X276100Y120833D02*
Y121180D01*
X276180Y121400D02*
X276407D01*
X276385Y121450D02*
X276180D01*
X276400Y121413D02*
Y121048D01*
X276370Y121500D02*
X276180D01*
Y121180D02*
Y122000D01*
Y121550D02*
X276362D01*
X276200Y122055D02*
Y120848D01*
X276250Y120898D02*
Y122055D01*
X276300D02*
Y120948D01*
X275800Y122000D02*
Y122055D01*
X275850D02*
Y122000D01*
X276180Y121600D02*
X276360D01*
X275900Y122000D02*
Y122055D01*
X275950D02*
Y122000D01*
X276000D02*
Y122055D01*
X276050D02*
Y122000D01*
X276100D02*
Y122055D01*
X276150D02*
Y122000D01*
X276180Y121650D02*
X276364D01*
X276375Y121700D02*
X276180D01*
Y121750D02*
X276393D01*
X276400Y121767D02*
Y121804D01*
X276371Y121850D02*
X276180D01*
Y121900D02*
X276362D01*
Y121995D01*
Y121950D02*
X276180D01*
X277950Y120272D02*
X278170Y120052D01*
X276452Y121100D02*
X275325D01*
X276133Y120781D02*
X276451Y121099D01*
X277039D02*
X277088Y121050D01*
X276940Y121140D02*
X276550D01*
X277950Y120300D02*
X278745D01*
Y120350D02*
X277950D01*
Y120400D02*
X278745D01*
Y120450D02*
X277950D01*
X277246Y121050D02*
X277088D01*
X277038Y121100D02*
X277718D01*
X277950Y120500D02*
X278745D01*
X277718Y121059D02*
X277246D01*
X277950Y120550D02*
X278745D01*
X278309Y120032D02*
X278213D01*
X278250D02*
Y120760D01*
X278309Y120032D02*
X278410D01*
X278309D01*
X278300D02*
Y120760D01*
X278350D02*
Y120032D01*
X278400D02*
Y120760D01*
X278450D02*
Y120032D01*
X278410D02*
X278505D01*
X278607D01*
X278505D01*
X278607D02*
X278664D01*
X278500D02*
Y120760D01*
X278550D02*
Y120032D01*
X278600D02*
Y120760D01*
X278650D02*
Y120032D01*
X278664D02*
X278745Y120113D01*
X277950Y120272D02*
Y120738D01*
Y120272D01*
X278000Y120222D02*
Y120760D01*
X277972D02*
X277950Y120738D01*
X278050Y120760D02*
Y120172D01*
X277972Y120760D02*
X278150D01*
Y120072D01*
X278100Y120122D02*
Y120760D01*
X278150D02*
X278370D01*
X278022Y120200D02*
X278745D01*
Y120250D02*
X277972D01*
X278122Y120100D02*
X278732D01*
X278745Y120150D02*
X278072D01*
X277950Y120600D02*
X278745D01*
Y120650D02*
X277950D01*
Y120700D02*
X278745D01*
Y120750D02*
X277962D01*
X278370Y120760D02*
X278745D01*
X276600Y121140D02*
Y121217D01*
X276644Y121200D02*
X276180D01*
X276650Y121198D02*
Y121140D01*
X276700D02*
Y121186D01*
X276450Y121098D02*
Y121334D01*
X276541Y121250D02*
X276180D01*
X276500Y121281D02*
Y121131D01*
X276550Y121140D02*
Y121244D01*
X277718Y121150D02*
X275325D01*
X276750Y121140D02*
Y121180D01*
X276800Y121181D02*
Y121140D01*
X276850D02*
Y121188D01*
X276896Y121200D02*
X277718D01*
X277000Y121251D02*
Y121126D01*
X276900Y121140D02*
Y121201D01*
X276950Y121222D02*
Y121140D01*
X276480Y121300D02*
X276180D01*
Y121350D02*
X276438D01*
X276404Y121800D02*
X276180D01*
X276999Y121250D02*
X277718D01*
X277100Y121347D02*
Y121050D01*
X277050Y121088D02*
Y121290D01*
X277150Y121436D02*
Y121050D01*
X277300Y121059D02*
Y121440D01*
X277200Y121747D02*
Y121050D01*
X277350Y121059D02*
Y121440D01*
X277400D02*
Y121059D01*
X277450D02*
Y121440D01*
X277718Y121300D02*
X277060D01*
X277102Y121350D02*
X277718D01*
X277500Y121440D02*
Y121059D01*
X277550D02*
Y121440D01*
X277600D02*
Y121059D01*
X277650D02*
Y121440D01*
X277700D02*
Y121059D01*
X277718D02*
Y121440D01*
X277251Y121450D02*
X277155D01*
X277170Y121500D02*
X277251D01*
Y121550D02*
X277178D01*
X277180Y121600D02*
X277251D01*
Y121700D02*
X277165D01*
X277251Y121770D02*
Y121440D01*
X277162Y121709D02*
X277223Y121770D01*
X277251Y121650D02*
X277176D01*
X277133Y121400D02*
X277718D01*
X277645Y121440D02*
X277251D01*
X277645D02*
X277701D01*
X277645D01*
X277251Y121750D02*
X277203D01*
X278700Y118425D02*
Y118125D01*
X278750D02*
Y118425D01*
X278800Y118434D02*
Y118125D01*
X278814D02*
Y118441D01*
X279566Y118285D02*
Y118125D01*
Y118285D02*
X279911D01*
X279600D02*
Y118125D01*
X279650D02*
Y118285D01*
X279566Y119129D02*
Y119286D01*
X278969D01*
Y119300D02*
X279665D01*
X279566Y119129D02*
X279911D01*
X279966Y119250D02*
X279566D01*
X279608Y119350D02*
X278969D01*
Y119400D02*
X279558D01*
X279600Y119358D02*
Y119129D01*
X279700Y118285D02*
Y118125D01*
X279750D02*
Y118285D01*
X279800D02*
Y118125D01*
X279850D02*
Y118285D01*
X279900D02*
Y118125D01*
X279950D02*
Y119280D01*
X280000Y119230D02*
Y118125D01*
X280050D02*
Y119230D01*
X280100D02*
Y118125D01*
X280150D02*
Y119230D01*
X280200D02*
Y118125D01*
X280250D02*
Y119230D01*
X280300D02*
Y118125D01*
X280350D02*
Y119230D01*
X280400Y119230D02*
Y118125D01*
X280450D02*
Y119230D01*
X280500D02*
Y118125D01*
X279911Y118285D02*
Y118679D01*
X279750Y119129D02*
Y119280D01*
X279650Y119310D02*
Y119129D01*
X279700D02*
Y119285D01*
X279800Y119280D02*
Y119129D01*
X279850D02*
Y119280D01*
X279900D02*
Y119129D01*
X279911Y118735D02*
Y118679D01*
Y118735D01*
Y119129D01*
X279966Y119230D02*
X280360D01*
X279966D02*
Y119280D01*
X279740D01*
X280550Y119230D02*
Y118125D01*
X280416Y119230D02*
X280360D01*
X280600Y119230D02*
Y118125D01*
X278969Y119589D02*
X278804D01*
Y119791D01*
X278969Y119589D02*
Y119286D01*
X278850Y119589D02*
Y119822D01*
X279000Y119958D02*
Y119286D01*
X278900Y119589D02*
Y119872D01*
X279050Y119908D02*
Y119286D01*
X279100D02*
Y119858D01*
X278969Y119450D02*
X279508D01*
X279358Y119600D02*
X278804D01*
X278969Y119500D02*
X279458D01*
X279408Y119550D02*
X278969D01*
X279150Y119808D02*
Y119286D01*
X279634Y119324D02*
X278984Y119973D01*
X279200Y119758D02*
Y119286D01*
X279250D02*
Y119708D01*
X279300Y119658D02*
Y119286D01*
X278849Y119821D02*
X278949Y119921D01*
X278950Y119922D02*
Y119589D01*
X278700Y120068D02*
Y120760D01*
X278745Y120170D02*
Y120113D01*
Y120170D02*
Y120272D01*
Y120170D01*
Y120272D02*
Y120367D01*
X278804Y119650D02*
X279308D01*
X279258Y119700D02*
X278804D01*
Y119750D02*
X279208D01*
X279158Y119800D02*
X278822D01*
X278878Y119850D02*
X279108D01*
X279058Y119900D02*
X278928D01*
X278971Y119950D02*
X279008D01*
X279400Y119558D02*
Y119286D01*
X279450D02*
Y119508D01*
X279500Y119458D02*
Y119286D01*
X279550D02*
Y119408D01*
X279350Y119286D02*
Y119608D01*
X279566Y118125D02*
X281460D01*
X281605Y118150D02*
X279566D01*
Y118200D02*
X281605D01*
Y118250D02*
X279566D01*
X280650Y118125D02*
Y119230D01*
X280700D02*
Y118125D01*
X280750D02*
Y119230D01*
X280800D02*
Y118125D01*
X281605Y118300D02*
X279911D01*
Y118350D02*
X281605D01*
Y118400D02*
X279911D01*
Y118450D02*
X281605D01*
Y118500D02*
X279911D01*
Y118550D02*
X281605D01*
Y118600D02*
X279911D01*
Y118650D02*
X281605D01*
Y118700D02*
X279911D01*
Y118750D02*
X281605D01*
Y118800D02*
X279911D01*
Y118850D02*
X281605D01*
Y118900D02*
X279911D01*
Y118950D02*
X281605D01*
Y119000D02*
X279911D01*
Y119050D02*
X281605D01*
X280810Y119230D02*
X280360D01*
X279566Y119150D02*
X284050D01*
Y119200D02*
X279566D01*
X279911Y119100D02*
X281605D01*
X280810Y119250D02*
X284050D01*
Y119300D02*
X280810D01*
Y119350D02*
X284050D01*
Y119400D02*
X280810D01*
Y119450D02*
X284050D01*
Y119500D02*
X280810D01*
X281460Y118125D02*
X281605D01*
Y119100D01*
X281650D02*
Y119600D01*
X281700D02*
Y119100D01*
X281750D02*
Y119600D01*
X281800D02*
Y119100D01*
X281850D02*
Y119600D01*
X281900D02*
Y119100D01*
X281605D02*
X284050D01*
X281605D01*
X281950D02*
Y119600D01*
X282000D02*
Y119100D01*
X282050D02*
Y119600D01*
X282100D02*
Y119100D01*
X282150D02*
Y119600D01*
X280810Y119570D02*
Y119230D01*
X280825Y119600D02*
X281605D01*
X282200D02*
Y119100D01*
X282250D02*
Y119600D01*
X282300D02*
Y119100D01*
X282350D02*
Y119600D01*
X282400D02*
Y119100D01*
X282450D02*
Y119600D01*
X282500D02*
Y119100D01*
X282550D02*
Y119600D01*
X284050Y119550D02*
X280810D01*
X282600Y119600D02*
Y119100D01*
X282650D02*
Y119600D01*
X282700D02*
Y119100D01*
X282750D02*
Y119600D01*
X282800D02*
Y119100D01*
X282850D02*
Y119600D01*
X282900D02*
Y119100D01*
X280825Y119570D02*
Y119970D01*
X280850Y120010D02*
Y118125D01*
X280900D02*
Y120010D01*
X280950D02*
Y118125D01*
X281000D02*
Y120010D01*
X281050D02*
Y118125D01*
X281100D02*
Y120010D01*
X280825Y119650D02*
X281605D01*
Y119700D02*
X280825D01*
X281150Y120010D02*
Y118125D01*
X281200D02*
Y120010D01*
X281250D02*
Y118125D01*
X281300D02*
Y120010D01*
X281350Y120011D02*
Y118125D01*
X281400D02*
Y120028D01*
X281450Y120086D02*
Y118125D01*
X280825Y119970D02*
X280586D01*
X280600D02*
Y120010D01*
X280650D02*
Y119970D01*
X280590Y120010D02*
X281325D01*
X280700D02*
Y119970D01*
X280750D02*
Y120010D01*
X280800D02*
Y119970D01*
X280825Y119750D02*
X281605D01*
Y119800D02*
X280825D01*
Y119850D02*
X281605D01*
Y119900D02*
X280825D01*
Y119950D02*
X281605D01*
Y120000D02*
X280590D01*
X281427Y120050D02*
X281605D01*
Y120100D02*
X281455D01*
X282950Y119600D02*
Y119100D01*
X283000D02*
Y119600D01*
X283050D02*
Y119100D01*
X283100D02*
Y119600D01*
X281500Y120291D02*
Y118125D01*
X281550D02*
Y120241D01*
X281600Y120191D02*
Y118125D01*
X283150Y119100D02*
Y119600D01*
X283200D02*
Y119100D01*
X283250D02*
Y119600D01*
X283300D02*
Y119100D01*
X283350D02*
Y119600D01*
X283400D02*
Y119100D01*
X283450D02*
Y119600D01*
X283500D02*
Y119100D01*
X283550D02*
Y119600D01*
X283600D02*
Y119100D01*
X283650D02*
Y119600D01*
X281605Y120150D02*
X281460D01*
X283700Y119600D02*
Y119100D01*
X283750D02*
Y119600D01*
X281591Y120200D02*
X281460D01*
Y120250D02*
X281541D01*
X281605Y120186D02*
Y119600D01*
X281460Y120135D02*
Y120331D01*
X281605Y120186D01*
X283800Y119600D02*
Y119100D01*
X283850D02*
Y119600D01*
X283900D02*
Y119100D01*
X283950D02*
Y119600D01*
X284050D02*
X281605D01*
X284050D01*
X284000D02*
Y119100D01*
X284050D02*
Y119600D01*
Y119100D01*
X278745Y120367D02*
Y120469D01*
Y120367D01*
Y120469D02*
Y120564D01*
Y120666D01*
Y120564D01*
Y120666D02*
Y120760D01*
X278879Y121580D02*
X278920D01*
X278879D02*
Y121770D01*
X278900Y121580D02*
Y122055D01*
X278920Y121619D02*
Y121580D01*
Y121600D02*
X278879D01*
X278920Y121619D02*
Y121675D01*
X279320Y121619D02*
Y121250D01*
X278920Y121619D02*
Y121675D01*
X279350Y122055D02*
Y121250D01*
X279400D02*
Y122055D01*
X279450D02*
Y121250D01*
X279500D02*
Y122055D01*
X279550D02*
Y121250D01*
X278920Y121650D02*
X278879D01*
Y121700D02*
X278920D01*
Y121750D02*
X278879D01*
X278880Y121800D02*
X278920D01*
X278879Y121770D02*
Y121840D01*
X278880Y121850D02*
X278920D01*
Y121675D02*
Y122055D01*
X278880D02*
Y121770D01*
Y121900D02*
X278920D01*
X279320Y121675D02*
Y121619D01*
Y121675D01*
X278920Y121950D02*
X278880D01*
Y122000D02*
X278920D01*
X279320Y122055D02*
Y121675D01*
X278920Y122050D02*
X278880D01*
Y122055D02*
X278920D01*
X279600D02*
Y121250D01*
X279650D02*
Y122055D01*
X279700D02*
Y121250D01*
X279750D02*
Y122055D01*
X279800D02*
Y121250D01*
X279850D02*
Y122055D01*
X279900D02*
Y121250D01*
X279950D02*
Y122055D01*
X280000D02*
Y121250D01*
X280050D02*
Y122055D01*
X280100D02*
Y121250D01*
X280150D02*
Y122055D01*
X280200D02*
Y121250D01*
X280250D02*
Y122055D01*
X280300D02*
Y121250D01*
X280350D02*
Y122055D01*
X280400D02*
Y121250D01*
X280450D02*
Y122055D01*
X280500D02*
Y121250D01*
X280550D02*
Y122055D01*
X280600D02*
Y121250D01*
X280650D02*
Y122055D01*
X280700D02*
Y121250D01*
X280750D02*
Y122055D01*
X280800D02*
Y121250D01*
X280850D02*
Y122055D01*
X281460Y120300D02*
X281491D01*
X281470Y120870D02*
X281525D01*
X281470Y120900D02*
X284050D01*
Y120950D02*
X281470D01*
Y121000D02*
X284050D01*
X281605Y121100D02*
X281470D01*
Y121050D02*
X284050D01*
X281899Y120600D02*
X281702Y120797D01*
X281900Y120600D02*
Y121100D01*
X281950D02*
Y120600D01*
X282000D02*
Y121100D01*
X282050D02*
Y120600D01*
X282100D02*
Y121100D01*
X282150D02*
Y120600D01*
X282200D02*
Y121100D01*
X281899Y120600D02*
X284050D01*
X281899D01*
X282250D02*
Y121100D01*
X282300D02*
Y120600D01*
X282350D02*
Y121100D01*
X282400D02*
Y120600D01*
X282450D02*
Y121100D01*
X282500D02*
Y120600D01*
X282550D02*
Y121100D01*
X281650D02*
Y120837D01*
X281750Y120749D02*
Y121100D01*
X281700D02*
Y120799D01*
X281850Y120649D02*
Y121100D01*
X281800D02*
Y120699D01*
X282600Y120600D02*
Y121100D01*
X282650D02*
Y120600D01*
X282700D02*
Y121100D01*
X281749Y120750D02*
X284050D01*
Y120800D02*
X281698D01*
X281849Y120650D02*
X284050D01*
Y120700D02*
X281799D01*
X282750Y120600D02*
Y121100D01*
X281623Y120850D02*
X284050D01*
X282800Y120600D02*
Y121100D01*
X282850D02*
Y120600D01*
X282900D02*
Y121100D01*
X281037Y121250D02*
X279320D01*
X281037D01*
X280900D02*
Y122055D01*
X280950D02*
Y121250D01*
X281000D02*
Y122055D01*
X281050D02*
Y121256D01*
X281100Y121269D02*
Y122055D01*
X281470Y121150D02*
X281605D01*
X281470Y121269D02*
X281070D01*
X281470D02*
Y120875D01*
Y121200D02*
X281605D01*
X281150Y121269D02*
Y122055D01*
X281200D02*
Y121269D01*
X281250D02*
Y122055D01*
X281300D02*
Y121269D01*
X281350D02*
Y122055D01*
X281605Y121300D02*
X279320D01*
Y121350D02*
X281605D01*
Y121400D02*
X279320D01*
Y121450D02*
X281605D01*
Y121500D02*
X279320D01*
Y121550D02*
X281605D01*
X281400Y121269D02*
Y122055D01*
X281460D02*
X279320D01*
Y121600D02*
X281605D01*
Y121650D02*
X279320D01*
Y121700D02*
X281605D01*
Y121750D02*
X279320D01*
Y121800D02*
X281605D01*
Y121850D02*
X279320D01*
Y121900D02*
X281605D01*
Y121950D02*
X279320D01*
Y122000D02*
X281605D01*
Y122050D02*
X279320D01*
X282950Y121100D02*
Y120600D01*
X283000D02*
Y121100D01*
X283050D02*
Y120600D01*
X283100D02*
Y121100D01*
X283150D02*
Y120600D01*
X283200D02*
Y121100D01*
X283250D02*
Y120600D01*
X283300D02*
Y121100D01*
X283350D02*
Y120600D01*
X283400D02*
Y121100D01*
X283450D02*
Y120600D01*
X283500D02*
Y121100D01*
X283550D02*
Y120600D01*
X283600D02*
Y121100D01*
X283650D02*
Y120600D01*
X283700D02*
Y121100D01*
X283750D02*
Y120600D01*
X281605Y121250D02*
X281470D01*
X281450Y121269D02*
Y122055D01*
X281500D02*
Y120870D01*
X281460Y122055D02*
X281605D01*
X281600D02*
Y120858D01*
X281550Y120869D02*
Y122055D01*
X281605D02*
Y121100D01*
X283800D02*
Y120600D01*
X283850D02*
Y121100D01*
X283900D02*
Y120600D01*
X283950D02*
Y121100D01*
X284050D02*
X281605D01*
X284050D01*
X284000D02*
Y120600D01*
X284050D02*
Y121100D01*
Y120600D01*
X276141Y118415D02*
G75*
G02*X275750Y119000I-371J175D01*
G74*
X276141Y118415D02*
G75*
G03*X276178Y118410I37J135D01*
G74*
X276340D02*
G75*
G03*X276396Y118422J140D01*
G74*
X275750Y119180D02*
G75*
G02*X275692Y119993I20J410D01*
G74*
X276396Y118422D02*
G75*
G03*X277180Y118590I374J168D01*
G03*X277074Y118866I-410D01*
G74*
X278458Y118129D02*
G75*
G03*X278588Y118259J130D01*
G02*X278458Y118129I-130D01*
G74*
X278588Y118440D02*
G75*
G03*X278650Y118425I62J125D01*
G74*
X277635Y119266D02*
G75*
G02*X277570Y119250I-65J124D01*
G03*X277635Y119266J140D01*
G03*X277664Y119286I-65J124D01*
G02*X277635Y119266I-94J104D01*
G74*
X275692Y119993D02*
G75*
G02*X275680Y120050I128J57D01*
G74*
X275683Y120189D02*
G75*
G02*X276133Y120781I87J401D01*
G74*
X276346Y122011D02*
G75*
G02*X276316Y122055I99J99D01*
G74*
X276550Y121140D02*
G75*
G03*X276451Y121099J-140D01*
G02*X276550Y121140I99J-99D01*
G74*
X276940D02*
G75*
G02*X277039Y121099J-140D01*
G03*X276940Y121140I-99J-99D01*
G74*
X277180Y121590D02*
G75*
G02*X276413Y121792I-410D01*
G02*X276362Y121900I89J108D01*
G74*
X277162Y121709D02*
G75*
G02*X277180Y121590I-392J-119D01*
G74*
X278750Y118425D02*
G75*
G03*X278814Y118441J140D01*
G74*
X279634Y119324D02*
G75*
G03*X279740Y119280I106J106D01*
G02*X279634Y119324J150D01*
G74*
X278849Y119821D02*
G75*
G02*X278804Y119791I-99J99D01*
G74*
X278949Y119921D02*
G75*
G03*X278982Y119973I-99J99D01*
G74*
X280586Y119970D02*
G75*
G03*X280590Y120005I-146J35D01*
G74*
X281330Y120010D02*
G75*
G03*X281460Y120135I5J125D01*
G74*
X281702Y120797D02*
G75*
G03*X281525Y120870I-177J-177D01*
G02*X281702Y120797J-250D01*
G74*
X281070Y121262D02*
G75*
G03*X281037Y121250I30J-137D01*
D17*
G74*
X278064Y119946D02*
X277800Y120210D01*
X278064Y119946D02*
Y119767D01*
X277800Y120800D02*
X277910Y120910D01*
X277800Y120800D02*
Y120210D01*
X278261Y121641D02*
X278262Y121642D01*
X278261Y121641D02*
Y121019D01*
X278370Y120910D01*
X277910D02*
X279010D01*
X278261Y121021D02*
X278150Y120910D01*
X278064Y121310D02*
Y121446D01*
X277870Y121640D01*
X278655Y121395D02*
Y121335D01*
Y121395D02*
X278690Y121430D01*
X279100D01*
X277512Y120713D02*
X276893D01*
X276770Y120590D01*
X277326Y120516D02*
X277512D01*
X277326D02*
X276960Y120150D01*
X276330D01*
X275770Y119590D01*
X277413Y120123D02*
X277512D01*
X277413D02*
X277200Y119910D01*
Y119420D01*
X276950Y119170D01*
X276350D01*
X275770Y118590D01*
X279840Y119795D02*
X280151D01*
X280191Y119755D02*
Y119430D01*
X279047Y120123D02*
X279010D01*
X279047D02*
X279740Y119430D01*
X280191D01*
X279401Y120516D02*
X279010D01*
X279401D02*
X279500Y120615D01*
X279402Y120319D02*
X279010D01*
X277479Y118693D02*
X277319D01*
X277479D02*
Y118878D01*
X277675Y118960D02*
X278010D01*
Y119246D01*
X278261Y119767D02*
Y119992D01*
X275770Y121220D02*
Y121590D01*
X275400D01*
X275770D02*
Y121960D01*
Y121590D02*
X276140D01*
X277758Y121256D02*
X277867D01*
X277476Y121640D02*
X277291D01*
X277476D02*
Y121480D01*
X278654Y121640D02*
X278839D01*
X278840Y121970D02*
X278655D01*
X278854Y118329D02*
X279190D01*
X279526D01*
X279711Y118325D02*
Y118510D01*
X279871D01*
X280585Y119270D02*
Y119430D01*
X280770D01*
X281645Y118600D02*
X282905D01*
Y119060D01*
X280785Y119770D02*
X280600D01*
Y119930D01*
X279010Y120713D02*
X278785D01*
X278960Y121844D02*
X279120D01*
X279280D01*
X282905Y121600D02*
Y121140D01*
Y121600D02*
X281645D01*
D19*
X276770D02*
Y121590D01*
Y121600D02*
X277140Y121970D01*
X278262D01*
Y121642D01*
X281255Y121380D02*
Y121090D01*
X281245Y120625D02*
X280960D01*
X280566D02*
X280224D01*
X279820Y120615D02*
X279500D01*
Y120221D02*
X279807D01*
X279840Y120189D01*
D20*
X281525Y120620D02*
X282015Y120130D01*
X281525Y120620D02*
X281300D01*
D21*
X280940Y119875D02*
D03*
X281450D02*
D03*
X281305Y121375D02*
D03*
X280250Y119070D02*
D03*
X281380Y119155D02*
D03*
X281855Y120900D02*
D03*
X279460Y121400D02*
D03*
X279305Y119450D02*
D03*
X278090Y120610D02*
D03*
X278580Y120210D02*
D03*
X279000Y119710D02*
D03*
X277500Y119120D02*
D03*
X277915Y119350D02*
D03*
X277490Y121290D02*
D03*
X275480Y121040D02*
D03*
X275530Y120070D02*
D03*
X275500Y119070D02*
D03*
X276250Y118260D02*
D03*
X279500Y121880D02*
D03*
X280125Y121900D02*
D03*
X278720Y118300D02*
D03*
X281295Y121890D02*
D03*
X280270Y118250D02*
D03*
X281380Y118300D02*
D03*
X276250Y121120D02*
D03*
X280135Y121400D02*
D03*
X283850Y120875D02*
D03*
X283880Y119350D02*
D03*
X278570Y120610D02*
D03*
X278885Y121860D02*
D03*
D25*
X276770Y121590D02*
D03*
X275770Y120590D02*
D03*
X276770D02*
D03*
X275770Y119590D02*
D03*
X276770D02*
D03*
X275770Y118590D02*
D03*
X276770D02*
D03*
X280770Y121590D02*
D03*
D28*
X277867Y119767D02*
D03*
X278064D02*
D03*
X278261D02*
D03*
X278458D02*
D03*
X278655D02*
D03*
Y121256D02*
D03*
X278458D02*
D03*
X278261D02*
D03*
X278064D02*
D03*
X277867D02*
D03*
D30*
X277479Y118693D02*
D03*
Y118300D02*
D03*
X279120Y121450D02*
D03*
Y121844D02*
D03*
X279840Y120189D02*
D03*
Y119795D02*
D03*
X279500Y120615D02*
D03*
Y120221D02*
D03*
X281270Y121044D02*
D03*
Y120650D02*
D03*
X279711Y118904D02*
D03*
Y118510D02*
D03*
D31*
X278262Y121970D02*
D03*
X278655D02*
D03*
X278744Y119389D02*
D03*
X278350D02*
D03*
X278260Y121640D02*
D03*
X278654D02*
D03*
X277476D02*
D03*
X277870D02*
D03*
X279830Y120625D02*
D03*
X280224D02*
D03*
X280960D02*
D03*
X280566D02*
D03*
X280191Y119430D02*
D03*
X280585Y119430D02*
D03*
X280206Y119770D02*
D03*
X280600D02*
D03*
D34*
X277512Y120910D02*
D03*
Y120713D02*
D03*
Y120516D02*
D03*
Y120319D02*
D03*
Y120123D02*
D03*
X279010D02*
D03*
Y120319D02*
D03*
Y120516D02*
D03*
Y120713D02*
D03*
Y120910D02*
D03*
D36*
X279190Y118960D02*
D03*
X278010Y118329D02*
D03*
X279190D02*
D03*
X278010Y118960D02*
D03*
D37*
X275770Y121590D02*
D03*
D40*
X282905Y120100D02*
D03*
Y118600D02*
D03*
Y121600D02*
D03*
M02*
