*%FSLAX24Y24*%
*%MOIN*%
G01*
%ADD11C,0.0030*%
%ADD12C,0.0043*%
%ADD13C,0.0050*%
%ADD14C,0.0060*%
%ADD15C,0.0073*%
%ADD16C,0.0080*%
%ADD17C,0.0100*%
%ADD18C,0.0120*%
%ADD19C,0.0200*%
%ADD20C,0.0300*%
%ADD21C,0.0320*%
%ADD22C,0.0400*%
%ADD23C,0.0560*%
%ADD24C,0.0600*%
%ADD25C,0.0620*%
%ADD26C,0.0700*%
%ADD27C,0.0800*%
%ADD28R,0.0098X0.0331*%
%ADD29R,0.0178X0.0411*%
%ADD30R,0.0200X0.0250*%
%ADD31R,0.0250X0.0200*%
%ADD32R,0.0280X0.0330*%
%ADD33R,0.0330X0.0280*%
%ADD34R,0.0331X0.0098*%
%ADD35R,0.0411X0.0178*%
%ADD36R,0.0551X0.0453*%
%ADD37R,0.0620X0.0620*%
%ADD38R,0.0631X0.0533*%
%ADD39R,0.0700X0.0700*%
%ADD40R,0.2400X0.0800*%
%ADD41R,0.2480X0.0880*%
D16*
X275325Y118400D02*
X275407D01*
X275385Y118450D02*
X275325D01*
Y118200D02*
X275644D01*
X275541Y118250D02*
X275325D01*
Y118300D02*
X275480D01*
X275438Y118350D02*
X275325D01*
Y118500D02*
X275370D01*
X275362Y118550D02*
X275325D01*
Y118600D02*
X275360D01*
X275364Y118650D02*
X275325D01*
Y118700D02*
X275375D01*
X275393Y118750D02*
X275325D01*
Y118800D02*
X275418D01*
X275453Y118850D02*
X275325D01*
X275500Y118281D02*
Y118125D01*
X275400D02*
Y118413D01*
X275450Y118334D02*
Y118125D01*
X275600D02*
Y118217D01*
X275700Y118186D02*
Y118125D01*
X275550D02*
Y118244D01*
X275650Y118198D02*
Y118125D01*
X275502Y118900D02*
X275325D01*
Y118950D02*
X275574D01*
X275600Y118963D02*
Y119217D01*
X275650Y119198D02*
Y118982D01*
X275770Y119000D02*
X275325D01*
X275750Y118180D02*
Y118125D01*
X275700Y118994D02*
Y119186D01*
X275750Y119180D02*
Y119000D01*
X275407Y119400D02*
X275325D01*
Y119450D02*
X275385D01*
X275370Y119500D02*
X275325D01*
Y119200D02*
X275644D01*
X275541Y119250D02*
X275325D01*
Y119300D02*
X275480D01*
X275438Y119350D02*
X275325D01*
Y119550D02*
X275362D01*
X275360Y119600D02*
X275325D01*
Y119650D02*
X275364D01*
X275375Y119700D02*
X275325D01*
Y119750D02*
X275393D01*
X275418Y119800D02*
X275325D01*
Y119850D02*
X275453D01*
X275502Y119900D02*
X275325D01*
X275400Y119413D02*
Y118767D01*
X275325Y118183D02*
Y122055D01*
X275350D02*
Y118125D01*
X275500Y118899D02*
Y119281D01*
X275550Y119244D02*
Y118936D01*
X275400Y119767D02*
Y120413D01*
X275450Y119334D02*
Y118846D01*
X275574Y119950D02*
X275325D01*
X275550Y119936D02*
Y120244D01*
X275450Y120334D02*
Y119846D01*
X275500Y119899D02*
Y120281D01*
X275325Y120000D02*
X275770D01*
X275650Y119982D02*
Y120198D01*
X275600Y120217D02*
Y119963D01*
X275700Y119994D02*
Y120186D01*
X275800Y118181D02*
Y118125D01*
X275850D02*
Y118188D01*
X275900Y118201D02*
Y118125D01*
X275341Y118150D02*
X281304D01*
X281297Y118125D02*
X275348D01*
X275950D02*
Y118222D01*
X276000Y118251D02*
Y118125D01*
X275999Y118250D02*
X276541D01*
X276502Y118900D02*
X276038D01*
X275966Y118950D02*
X276574D01*
X276770Y119000D02*
X275770D01*
X275896Y118200D02*
X276644D01*
X275325Y119050D02*
X281320D01*
Y119100D02*
X275325D01*
X276050Y118290D02*
Y118125D01*
X276100D02*
Y118347D01*
X276150Y118436D02*
Y118125D01*
X276060Y118300D02*
X276480D01*
X276438Y118350D02*
X276102D01*
X276133Y118400D02*
X276407D01*
X276385Y118450D02*
X276155D01*
X276170Y118500D02*
X276370D01*
X276362Y118550D02*
X276178D01*
X276180Y118600D02*
X276360D01*
X276364Y118650D02*
X276176D01*
X276165Y118700D02*
X276375D01*
X276393Y118750D02*
X276147D01*
X276087Y118850D02*
X276453D01*
X276418Y118800D02*
X276122D01*
X275800Y118999D02*
Y119181D01*
X275850Y119188D02*
Y118992D01*
X275900Y118979D02*
Y119201D01*
X275325Y119150D02*
X281320D01*
X275950Y119222D02*
Y118958D01*
X276000Y118929D02*
Y119251D01*
X276050Y119290D02*
Y118890D01*
X276060Y119300D02*
X276480D01*
X275950Y119958D02*
Y120222D01*
X276000Y120251D02*
Y119929D01*
X275896Y119200D02*
X276644D01*
X276541Y119250D02*
X275999D01*
X275966Y119950D02*
X276574D01*
X276502Y119900D02*
X276038D01*
X276100Y119347D02*
Y118833D01*
X276150Y118744D02*
Y119436D01*
X276155Y119450D02*
X276385D01*
X276360Y119600D02*
X276180D01*
X276102Y119350D02*
X276438D01*
X276407Y119400D02*
X276133D01*
X276170Y119500D02*
X276370D01*
X276362Y119550D02*
X276178D01*
X276050Y119890D02*
Y120290D01*
X276176Y119650D02*
X276364D01*
X276100Y119833D02*
Y120347D01*
X276150Y120436D02*
Y119744D01*
X276165Y119700D02*
X276375D01*
X276393Y119750D02*
X276147D01*
X276087Y119850D02*
X276453D01*
X276418Y119800D02*
X276122D01*
X275407Y120400D02*
X275325D01*
Y120450D02*
X275385D01*
X275370Y120500D02*
X275325D01*
Y120200D02*
X275644D01*
X275541Y120250D02*
X275325D01*
Y120300D02*
X275480D01*
X275438Y120350D02*
X275325D01*
Y120550D02*
X275362D01*
X275360Y120600D02*
X275325D01*
Y120650D02*
X275364D01*
X275375Y120700D02*
X275325D01*
Y120750D02*
X275393D01*
X275418Y120800D02*
X275325D01*
Y120850D02*
X275453D01*
X275502Y120900D02*
X275325D01*
X275400Y120767D02*
Y121180D01*
X275450D02*
Y120846D01*
X275500Y120899D02*
Y121180D01*
X275750Y120180D02*
Y120000D01*
X275800Y119999D02*
Y120181D01*
X275574Y120950D02*
X275325D01*
X275850Y120188D02*
Y119992D01*
X275360Y121200D02*
X275325D01*
X275550Y121180D02*
Y120936D01*
X275600Y120963D02*
Y121180D01*
X275650D02*
Y120982D01*
X275770Y121000D02*
X275325D01*
X275700Y120994D02*
Y121180D01*
X275750D02*
Y121000D01*
X275800Y120999D02*
Y121180D01*
X275360Y121250D02*
X275325D01*
Y121300D02*
X275360D01*
Y121350D02*
X275325D01*
Y121400D02*
X275360D01*
Y121450D02*
X275325D01*
Y121500D02*
X275360D01*
Y121550D02*
X275325D01*
Y121600D02*
X275360D01*
Y121650D02*
X275325D01*
Y121700D02*
X275360D01*
Y121750D02*
X275325D01*
Y121800D02*
X275360D01*
Y121850D02*
X275325D01*
Y121900D02*
X275360D01*
Y121950D02*
X275325D01*
X275360Y122000D02*
Y121180D01*
Y122000D02*
X275325D01*
X275400D02*
Y122055D01*
X275850Y121180D02*
Y120992D01*
X275450Y122000D02*
Y122055D01*
X275500D02*
Y122000D01*
X275550D02*
Y122055D01*
X275600D02*
Y122000D01*
X275650D02*
Y122055D01*
X275700D02*
Y122000D01*
X275750D02*
Y122055D01*
X275800D02*
Y122000D01*
X275896Y120200D02*
X276644D01*
X275900Y120201D02*
Y119979D01*
X275325Y120050D02*
X281320D01*
X276770Y120000D02*
X275770D01*
X275325Y120100D02*
X281320D01*
Y120150D02*
X275325D01*
X275966Y120950D02*
X276574D01*
X276541Y120250D02*
X275999D01*
X275900Y120979D02*
Y121180D01*
X275950D02*
Y120958D01*
X275325Y121050D02*
X281320D01*
X276770Y121000D02*
X275770D01*
X275325Y121100D02*
X281320D01*
Y121150D02*
X275325D01*
X276155Y120450D02*
X276385D01*
X276370Y120500D02*
X276170D01*
X276180Y120600D02*
X276360D01*
X276480Y120300D02*
X276060D01*
X276102Y120350D02*
X276438D01*
X276407Y120400D02*
X276133D01*
X276178Y120550D02*
X276362D01*
X276375Y120700D02*
X276165D01*
X276176Y120650D02*
X276364D01*
X276000Y120929D02*
Y121180D01*
X276050D02*
Y120890D01*
X276122Y120800D02*
X276418D01*
X276393Y120750D02*
X276147D01*
X276038Y120900D02*
X276502D01*
X276453Y120850D02*
X276087D01*
X276100Y120833D02*
Y121180D01*
X275850Y122000D02*
Y122055D01*
X276150Y121180D02*
Y120744D01*
X276180Y121180D02*
X275360D01*
Y122000D02*
X276180D01*
X275360D01*
X275900D02*
Y122055D01*
X275950D02*
Y122000D01*
X276000D02*
Y122055D01*
X276050D02*
Y122000D01*
X276100D02*
Y122055D01*
X276150D02*
Y122000D01*
X275325Y122050D02*
X281320D01*
Y122055D02*
X275325D01*
X276180Y121400D02*
X276407D01*
X276385Y121450D02*
X276180D01*
Y121500D02*
X276370D01*
X276362Y121550D02*
X276180D01*
Y121200D02*
X276644D01*
X276541Y121250D02*
X276180D01*
Y121300D02*
X276480D01*
X276438Y121350D02*
X276180D01*
Y121600D02*
X276360D01*
X276364Y121650D02*
X276180D01*
Y121700D02*
X276375D01*
X276393Y121750D02*
X276180D01*
Y121800D02*
X276418D01*
X276453Y121850D02*
X276180D01*
Y121900D02*
X276502D01*
X276574Y121950D02*
X276180D01*
X276200Y122055D02*
Y118125D01*
X276250D02*
Y122055D01*
X276300D02*
Y118125D01*
X276450D02*
Y118334D01*
X276500Y118281D02*
Y118125D01*
X276350D02*
Y122055D01*
X276400Y118413D02*
Y118125D01*
X276600D02*
Y118217D01*
X276650Y118198D02*
Y118125D01*
X276400Y118767D02*
Y119413D01*
X276550Y118244D02*
Y118125D01*
X276700D02*
Y118186D01*
X276750Y118180D02*
Y118125D01*
X276800D02*
Y118181D01*
X276850Y118188D02*
Y118125D01*
X276900D02*
Y118201D01*
X276950Y118222D02*
Y118125D01*
X277000D02*
Y118251D01*
X277050Y118290D02*
Y118125D01*
X277100D02*
Y118347D01*
X277150Y118436D02*
Y118125D01*
Y118744D02*
Y119436D01*
X277200Y118125D02*
Y122055D01*
X277250D02*
Y118125D01*
X277300D02*
Y122055D01*
X277350D02*
Y118125D01*
X277400D02*
Y122055D01*
X277450D02*
Y118125D01*
X277500D02*
Y122055D01*
X277550D02*
Y118125D01*
X277600D02*
Y122055D01*
X277650D02*
Y118125D01*
X277700D02*
Y122055D01*
X277750D02*
Y118125D01*
X277800D02*
Y122055D01*
X277850D02*
Y118125D01*
X277900D02*
Y122055D01*
X277950D02*
Y118125D01*
X278000D02*
Y122055D01*
X278050D02*
Y118125D01*
X278100D02*
Y122055D01*
X278150D02*
Y118125D01*
X278200D02*
Y122055D01*
X278250D02*
Y118125D01*
X278300D02*
Y122055D01*
X278350D02*
Y118125D01*
X278400D02*
Y122055D01*
X278450D02*
Y118125D01*
X278500D02*
Y122055D01*
X278550D02*
Y118125D01*
X278600D02*
Y122055D01*
X278650D02*
Y118125D01*
X278700D02*
Y122055D01*
X278750D02*
Y118125D01*
X278800D02*
Y122055D01*
X278850D02*
Y118125D01*
X278900D02*
Y122055D01*
X278950D02*
Y118125D01*
X279000D02*
Y122055D01*
X276896Y118200D02*
X281320D01*
X279050Y118125D02*
Y122055D01*
X279100D02*
Y118125D01*
X276999Y118250D02*
X281320D01*
Y118300D02*
X277060D01*
X277102Y118350D02*
X281320D01*
Y118400D02*
X277133D01*
X277155Y118450D02*
X281320D01*
Y118500D02*
X277170D01*
X277178Y118550D02*
X281320D01*
Y118600D02*
X277180D01*
X277165Y118700D02*
X281320D01*
Y118650D02*
X277176D01*
X277122Y118800D02*
X281320D01*
Y118750D02*
X277147D01*
X279150Y118125D02*
Y122055D01*
X279200D02*
Y118125D01*
X279250D02*
Y122055D01*
X279300D02*
Y118125D01*
X279350D02*
Y122055D01*
X279400D02*
Y118125D01*
X279450D02*
Y122055D01*
X279500D02*
Y118125D01*
X279550D02*
Y122055D01*
X279600D02*
Y118125D01*
X279650D02*
Y122055D01*
X279700D02*
Y118125D01*
X279750D02*
Y122055D01*
X279800D02*
Y118125D01*
X279850D02*
Y122055D01*
X279900D02*
Y118125D01*
X279950D02*
Y122055D01*
X280000D02*
Y118125D01*
X280050D02*
Y122055D01*
X280100D02*
Y118125D01*
X280150D02*
Y122055D01*
X280200D02*
Y118125D01*
X280250D02*
Y122055D01*
X280300D02*
Y118125D01*
X280350D02*
Y122055D01*
X280400D02*
Y118125D01*
X280450D02*
Y122055D01*
X280500D02*
Y118125D01*
X280550D02*
Y122055D01*
X280600D02*
Y118125D01*
X280650D02*
Y122055D01*
X280700D02*
Y118125D01*
X280750D02*
Y122055D01*
X280800D02*
Y118125D01*
X280850D02*
Y122055D01*
X280900D02*
Y118125D01*
X280950D02*
Y122055D01*
X281000D02*
Y118125D01*
X281050D02*
Y122055D01*
X281100D02*
Y118125D01*
X281150D02*
Y122055D01*
X281200D02*
Y118125D01*
X281250D02*
Y122055D01*
X281300D02*
Y118138D01*
X281320Y118183D02*
Y122055D01*
X276550Y119244D02*
Y118936D01*
X276450Y118846D02*
Y119334D01*
X276500Y119281D02*
Y118899D01*
X276700Y118994D02*
Y119186D01*
X276750Y119180D02*
Y119000D01*
X276600Y118963D02*
Y119217D01*
X276650Y119198D02*
Y118982D01*
X276500Y119899D02*
Y120281D01*
X276550Y120244D02*
Y119936D01*
X276400Y119767D02*
Y120413D01*
X276450Y120334D02*
Y119846D01*
X276650Y119982D02*
Y120198D01*
X276700Y120186D02*
Y119994D01*
X276600Y119963D02*
Y120217D01*
X276650Y120982D02*
Y121198D01*
X276800Y119181D02*
Y118999D01*
X276850Y118992D02*
Y119188D01*
X276900Y119201D02*
Y118979D01*
X276950Y118958D02*
Y119222D01*
X277000Y119251D02*
Y118929D01*
X277050Y118890D02*
Y119290D01*
X277100Y119347D02*
Y118833D01*
X276750Y120000D02*
Y120180D01*
X276800Y120181D02*
Y119999D01*
X276850Y119992D02*
Y120188D01*
X276900Y120201D02*
Y119979D01*
X276950Y119958D02*
Y120222D01*
X277000Y120251D02*
Y119929D01*
X277050Y119890D02*
Y120290D01*
X277100Y120347D02*
Y119833D01*
X276450Y120846D02*
Y121334D01*
X276180Y121180D02*
Y122000D01*
X276400Y121413D02*
Y120767D01*
X276600Y120963D02*
Y121217D01*
X276700Y121186D02*
Y120994D01*
X276500Y120899D02*
Y121281D01*
X276550Y121244D02*
Y120936D01*
X276400Y121767D02*
Y122055D01*
X276450D02*
Y121846D01*
X276500Y121899D02*
Y122055D01*
X276550D02*
Y121936D01*
X276770Y122000D02*
X276180D01*
X276600Y121963D02*
Y122055D01*
X276650D02*
Y121982D01*
X276700Y121994D02*
Y122055D01*
X276750Y121180D02*
Y121000D01*
X276800Y120999D02*
Y121181D01*
X276850Y121188D02*
Y120992D01*
X276900Y120979D02*
Y121201D01*
X276950Y121222D02*
Y120958D01*
X277000Y120929D02*
Y121251D01*
X277050Y121290D02*
Y120890D01*
X277100Y120833D02*
Y121347D01*
X276750Y122000D02*
Y122055D01*
X276800D02*
Y121999D01*
X276850Y121992D02*
Y122055D01*
X276900D02*
Y121979D01*
X276950Y121958D02*
Y122055D01*
X277000D02*
Y121929D01*
X277050Y121890D02*
Y122055D01*
X277100D02*
Y121833D01*
X277087Y118850D02*
X281320D01*
Y118900D02*
X277038D01*
X276770Y119000D02*
X281320D01*
Y118950D02*
X276966D01*
X276896Y119200D02*
X281320D01*
Y119250D02*
X276999D01*
X277060Y119300D02*
X281320D01*
Y119350D02*
X277102D01*
X276966Y119950D02*
X281320D01*
Y119900D02*
X277038D01*
X276770Y120000D02*
X281320D01*
Y120200D02*
X276896D01*
X276999Y120250D02*
X281320D01*
Y120300D02*
X277060D01*
X277133Y119400D02*
X281320D01*
Y119450D02*
X277155D01*
X277170Y119500D02*
X281320D01*
Y119550D02*
X277178D01*
X277180Y119600D02*
X281320D01*
Y119700D02*
X277165D01*
X277176Y119650D02*
X281320D01*
Y119800D02*
X277122D01*
X277147Y119750D02*
X281320D01*
Y119850D02*
X277087D01*
X277150Y119744D02*
Y120436D01*
X277102Y120350D02*
X281320D01*
Y120400D02*
X277133D01*
X277155Y120450D02*
X281320D01*
Y120500D02*
X277170D01*
X277122Y120800D02*
X281320D01*
Y120900D02*
X277038D01*
X277087Y120850D02*
X281320D01*
Y121000D02*
X276770D01*
X276966Y120950D02*
X281320D01*
Y121200D02*
X276896D01*
X276999Y121250D02*
X281320D01*
Y121300D02*
X277060D01*
X277102Y121350D02*
X281320D01*
Y121900D02*
X277038D01*
X277087Y121850D02*
X281320D01*
Y122000D02*
X276770D01*
X276966Y121950D02*
X281320D01*
Y120550D02*
X277178D01*
X277180Y120600D02*
X281320D01*
X277150Y120744D02*
Y121436D01*
X277176Y120650D02*
X281320D01*
Y120700D02*
X277165D01*
X277147Y120750D02*
X281320D01*
Y121400D02*
X277133D01*
X277155Y121450D02*
X281320D01*
Y121500D02*
X277170D01*
X277178Y121550D02*
X281320D01*
X277150Y121744D02*
Y122055D01*
X277180Y121600D02*
X281320D01*
Y121700D02*
X277165D01*
X277176Y121650D02*
X281320D01*
Y121800D02*
X277122D01*
X277147Y121750D02*
X281320D01*
X281460Y118125D02*
X280943D01*
X280943Y118150D02*
X281605D01*
Y118200D02*
X280942D01*
X280941Y118250D02*
X281605D01*
Y118300D02*
X280940D01*
X280940Y118350D02*
X281605D01*
Y118400D02*
X280939D01*
X280938Y118450D02*
X281605D01*
Y118500D02*
X280937D01*
X280937Y118550D02*
X281605D01*
Y118600D02*
X280936D01*
X280943Y118125D02*
X280883Y122055D01*
X280935Y118650D02*
X281605D01*
Y118700D02*
X280934D01*
X280933Y118750D02*
X281605D01*
Y118800D02*
X280933D01*
X280932Y118850D02*
X281605D01*
X280950Y118125D02*
Y122055D01*
X281050Y120808D02*
Y118125D01*
X281000D02*
Y120858D01*
X280931Y118900D02*
X281605D01*
Y118950D02*
X280930D01*
X280930Y119000D02*
X281605D01*
X280927Y119150D02*
X284050D01*
Y119200D02*
X280927D01*
X280926Y119250D02*
X284050D01*
Y119300D02*
X280925D01*
X280924Y119350D02*
X284050D01*
Y119400D02*
X280923D01*
X280929Y119050D02*
X281605D01*
Y119100D02*
X280928D01*
X280923Y119450D02*
X284050D01*
Y119500D02*
X280922D01*
X280921Y119550D02*
X284050D01*
Y119600D02*
X280920D01*
X280920Y119650D02*
X284050D01*
Y119700D02*
X280919D01*
X280918Y119750D02*
X284050D01*
Y119800D02*
X280917D01*
X280917Y119850D02*
X284050D01*
Y119900D02*
X280916D01*
X280915Y119950D02*
X284050D01*
Y120000D02*
X280914D01*
X280913Y120050D02*
X284050D01*
Y120100D02*
X280913D01*
X280912Y120150D02*
X284050D01*
Y120200D02*
X280911D01*
X280900Y120900D02*
X280970D01*
X280902Y120800D02*
X281058D01*
X281008Y120850D02*
X280901D01*
X280900Y120950D02*
X280960D01*
Y121000D02*
X280899D01*
X280898Y121050D02*
X280960D01*
X280997Y120861D02*
X281066Y120792D01*
X280960Y121100D02*
X280897D01*
X280897Y121150D02*
X280960D01*
Y121200D02*
X280896D01*
X280895Y121250D02*
X280960D01*
X280964Y121300D02*
X280894D01*
X280894Y121350D02*
X280989D01*
X280893Y121400D02*
X281605D01*
X280900Y120928D02*
Y122055D01*
X280960Y121270D02*
Y120950D01*
X281000Y121362D02*
Y122055D01*
X281050D02*
Y121390D01*
X280883Y122055D02*
X281460D01*
X280910Y120250D02*
X284050D01*
Y120300D02*
X280910D01*
X280909Y120350D02*
X284050D01*
X281605Y121450D02*
X280892D01*
X280908Y120400D02*
X284050D01*
Y120450D02*
X280907D01*
X280907Y120500D02*
X284050D01*
Y120550D02*
X280906D01*
X280905Y120600D02*
X284050D01*
Y120650D02*
X280904D01*
X280904Y120700D02*
X284050D01*
Y120750D02*
X280903D01*
X280891Y121500D02*
X281605D01*
Y121550D02*
X280890D01*
X280890Y121600D02*
X281605D01*
Y121650D02*
X280889D01*
X280888Y121700D02*
X281605D01*
Y121750D02*
X280887D01*
X280887Y121800D02*
X281605D01*
Y121850D02*
X280886D01*
X280885Y121900D02*
X281605D01*
Y121950D02*
X280884D01*
X280884Y122000D02*
X281605D01*
Y122050D02*
X280883D01*
X281100Y120768D02*
Y118125D01*
X281150D02*
Y120755D01*
X281200Y120755D02*
Y118125D01*
X281250D02*
Y120755D01*
X281300Y120765D02*
Y118125D01*
X281350D02*
Y120805D01*
X281460Y118125D02*
X281605D01*
Y119100D01*
X281650D02*
Y121100D01*
X281700D02*
Y119100D01*
X281750D02*
Y121100D01*
X281800D02*
Y119100D01*
X281400Y118125D02*
Y122055D01*
X281450D02*
Y118125D01*
X281500D02*
Y122055D01*
X281550D02*
Y118125D01*
X281850Y119100D02*
Y121100D01*
X281600Y122055D02*
Y118125D01*
X281900Y119100D02*
Y121100D01*
X281950D02*
Y119100D01*
X282000D02*
Y121100D01*
X282050D02*
Y119100D01*
X282100D02*
Y121100D01*
X282150D02*
Y119100D01*
X281605D02*
X284050D01*
X281605D01*
X282200D02*
Y121100D01*
X282250D02*
Y119100D01*
X282300D02*
Y121100D01*
X282350D02*
Y119100D01*
X282400D02*
Y121100D01*
X282450D02*
Y119100D01*
X282500D02*
Y121100D01*
X282550D02*
Y119100D01*
X282600D02*
Y121100D01*
X282650D02*
Y119100D01*
X282700D02*
Y121100D01*
X282750D02*
Y119100D01*
X282800D02*
Y121100D01*
X282850D02*
Y119100D01*
X282900D02*
Y121100D01*
X282950D02*
Y119100D01*
X283000D02*
Y121100D01*
X283050D02*
Y119100D01*
X283100D02*
Y121100D01*
X283150D02*
Y119100D01*
X281250Y120755D02*
X281155D01*
X281210Y121005D02*
X281250D01*
X281210Y121100D02*
X281605D01*
Y121150D02*
X281210D01*
Y121200D02*
X281605D01*
Y121250D02*
X281210D01*
X283200Y121100D02*
Y119100D01*
X283250D02*
Y121100D01*
X283300D02*
Y119100D01*
X281210Y121005D02*
Y121270D01*
X281200Y121319D02*
Y122055D01*
X281206Y121300D02*
X281605D01*
X281250Y121005D02*
Y122055D01*
X281100D02*
Y121394D01*
X281181Y121350D02*
X281605D01*
X281150Y121377D02*
Y122055D01*
X281300D02*
Y120995D01*
X281350Y120955D02*
Y122055D01*
X281605D02*
Y121100D01*
Y122055D02*
X281460D01*
X281346Y120800D02*
X284050D01*
Y120850D02*
X281371D01*
X281373Y120900D02*
X284050D01*
Y120950D02*
X281354D01*
X281285Y121000D02*
X284050D01*
Y121050D02*
X281210D01*
X283350Y121100D02*
Y119100D01*
X283400D02*
Y121100D01*
X283450D02*
Y119100D01*
X283500D02*
Y121100D01*
X283550D02*
Y119100D01*
X283600D02*
Y121100D01*
X283650D02*
Y119100D01*
X283700D02*
Y121100D01*
X283750D02*
Y119100D01*
X283800D02*
Y121100D01*
X284050D02*
X281605D01*
X284050D01*
X283850D02*
Y119100D01*
X283900D02*
Y121100D01*
X283950D02*
Y119100D01*
X284000D02*
Y121100D01*
X284050D02*
Y119100D01*
Y121100D01*
X275348Y118125D02*
G75*
G03*X275325Y118183I-148J-25D01*
G74*
X276180Y118590D02*
G75*
G02*X276180Y118590I-410D01*
G74*
Y119590D02*
G75*
G02*X276180Y119590I-410D01*
G74*
Y120590D02*
G75*
G02*X276180Y120590I-410D01*
G74*
X277180Y118590D02*
G75*
G02*X277180Y118590I-410D01*
G74*
X281297Y118125D02*
G75*
G02*X281320Y118183I148J-25D01*
G74*
X277180Y119590D02*
G75*
G02*X277180Y119590I-410D01*
G74*
Y120590D02*
G75*
G02*X277180Y120590I-410D01*
G74*
Y121590D02*
G75*
G02*X277180Y121590I-410D01*
G74*
X281067Y120792D02*
G75*
G03*X281155Y120755I88J88D01*
G02*X281066Y120792J125D01*
G74*
X280997Y120862D02*
G75*
G02*X280960Y120950I88J88D01*
G03*X280997Y120861I125D01*
G74*
X280960Y121270D02*
G75*
G02*X281210Y121270I125D01*
G74*
X281375Y120880D02*
G75*
G02*X281250Y120755I-125D01*
G74*
X281375Y120880D02*
G75*
G03*X281250Y121005I-125D01*
D17*
G74*
X275770Y121220D02*
Y121590D01*
X275400D01*
X275770D02*
Y121960D01*
Y121590D02*
X276140D01*
X281645Y118600D02*
X282905D01*
Y119060D01*
Y121140D02*
Y121600D01*
X281645D01*
D21*
X280940Y119875D02*
D03*
X281450D02*
D03*
X281305Y121375D02*
D03*
X280250Y119070D02*
D03*
X281380Y119155D02*
D03*
X281855Y120900D02*
D03*
X279460Y121400D02*
D03*
X279305Y119450D02*
D03*
X278090Y120610D02*
D03*
X278580Y120210D02*
D03*
X279000Y119710D02*
D03*
X277500Y119120D02*
D03*
X277915Y119350D02*
D03*
X277490Y121290D02*
D03*
X275480Y121040D02*
D03*
X275530Y120070D02*
D03*
X275500Y119070D02*
D03*
X276250Y118260D02*
D03*
X279500Y121880D02*
D03*
X280125Y121900D02*
D03*
X278720Y118300D02*
D03*
X281295Y121890D02*
D03*
X280270Y118250D02*
D03*
X281380Y118300D02*
D03*
X276250Y121120D02*
D03*
X280135Y121400D02*
D03*
X283850Y120875D02*
D03*
X283880Y119350D02*
D03*
X278570Y120610D02*
D03*
X278885Y121860D02*
D03*
D25*
X276770Y121590D02*
D03*
X275770Y120590D02*
D03*
X276770D02*
D03*
X275770Y119590D02*
D03*
X276770D02*
D03*
X275770Y118590D02*
D03*
X276770D02*
D03*
X280770Y121590D02*
D03*
D37*
X275770D02*
D03*
D40*
X282905Y118600D02*
D03*
Y121600D02*
D03*
M02*
