M72
M48
T1F00S00C0.016
T2F00S00C0.020
T3F00S00C0.040
%
T01
X00454Y-00022
X00452Y0003
X00508Y-00069
X00468Y-00172
X00461Y-00244
Y-00329
X00711Y-00224
X00708Y-00072
X00417Y-00172
X00348Y-00252
X0035Y-00334
X00195Y-00329
X00223Y-00188
X00254Y-00214
X00181Y-00138
X0018Y-00098
X00132
X00072Y-0003
X-00052Y-00047
X-00129Y-00055
X-00124Y-00152
X-00127Y-00252
X-00052Y-00333
X00073Y-00247
X00114Y-00224
X00212Y00027
X00273Y00029
X00269Y-00019
X00336
X00336Y00031
T02
X00614Y00001
Y-00299
T03
X0Y0
X-001
Y-001
X0
Y-002
X-001
Y-003
X0
X004Y0
M30
