*%FSLAX24Y24*%
*%MOIN*%
G01*
%ADD11C,0.0030*%
%ADD12C,0.0043*%
%ADD13C,0.0050*%
%ADD14C,0.0060*%
%ADD15C,0.0073*%
%ADD16C,0.0080*%
%ADD17C,0.0100*%
%ADD18C,0.0120*%
%ADD19C,0.0200*%
%ADD20C,0.0300*%
%ADD21C,0.0320*%
%ADD22C,0.0400*%
%ADD23C,0.0560*%
%ADD24C,0.0600*%
%ADD25C,0.0620*%
%ADD26C,0.0700*%
%ADD27C,0.0800*%
%ADD28R,0.0098X0.0331*%
%ADD29R,0.0178X0.0411*%
%ADD30R,0.0200X0.0250*%
%ADD31R,0.0250X0.0200*%
%ADD32R,0.0280X0.0330*%
%ADD33R,0.0330X0.0280*%
%ADD34R,0.0331X0.0098*%
%ADD35R,0.0411X0.0178*%
%ADD36R,0.0551X0.0453*%
%ADD37R,0.0620X0.0620*%
%ADD38R,0.0631X0.0533*%
%ADD39R,0.0700X0.0700*%
%ADD40R,0.2400X0.0800*%
%ADD41R,0.2480X0.0880*%
D22*
X280940Y119875D02*
D03*
X281450D02*
D03*
X281305Y121375D02*
D03*
X280250Y119070D02*
D03*
X281380Y119155D02*
D03*
X281855Y120900D02*
D03*
X279460Y121400D02*
D03*
X279305Y119450D02*
D03*
X278090Y120610D02*
D03*
X278580Y120210D02*
D03*
X279000Y119710D02*
D03*
X277500Y119120D02*
D03*
X277915Y119350D02*
D03*
X277490Y121290D02*
D03*
X275480Y121040D02*
D03*
X275530Y120070D02*
D03*
X275500Y119070D02*
D03*
X276250Y118260D02*
D03*
X279500Y121880D02*
D03*
X280125Y121900D02*
D03*
X278720Y118300D02*
D03*
X281295Y121890D02*
D03*
X280270Y118250D02*
D03*
X281380Y118300D02*
D03*
X276250Y121120D02*
D03*
X280135Y121400D02*
D03*
X283850Y120875D02*
D03*
X283880Y119350D02*
D03*
X278570Y120610D02*
D03*
X278885Y121860D02*
D03*
D26*
X276770Y121590D02*
D03*
X275770Y120590D02*
D03*
X276770D02*
D03*
X275770Y119590D02*
D03*
X276770D02*
D03*
X275770Y118590D02*
D03*
X276770D02*
D03*
X280770Y121590D02*
D03*
D39*
X275770D02*
D03*
D41*
X282905Y118600D02*
D03*
Y121600D02*
D03*
M02*
