M48
; DRILL file {KiCad (5.1.6-0)} date Sunday, October 11, 2020 at 08:53:20 PM
; FORMAT={-:-/ absolute / inch / decimal}
; #@! TF.CreationDate,2020-10-11T20:53:20-05:00
; #@! TF.GenerationSoftware,Kicad,Pcbnew,(5.1.6-0)
; #@! TF.FileFunction,Plated,1,3,Blind
FMAT,2
INCH
T1C0.0059
T2C0.0157
%
G90
G05
T1
X4.1325Y-4.275
X4.141Y-4.24
X4.141Y-4.257
X4.7413Y-4.0713
X4.7728Y-4.1028
X4.773Y-4.056
X4.773Y-4.072
X4.7885Y-4.0713
X4.7885Y-4.1028
X4.804Y-4.071
X4.883Y-4.1657
X4.898Y-4.182
X4.926Y-4.297
X5.345Y-4.206
X5.379Y-4.247
X5.456Y-4.321
X5.47Y-3.483
X5.489Y-3.476
X5.499Y-3.68
T2
X4.7767Y-4.3857
T0
M30
