M48
; DRILL file {KiCad (5.1.6-0)} date Sunday, October 11, 2020 at 08:53:20 PM
; FORMAT={-:-/ absolute / inch / decimal}
; #@! TF.CreationDate,2020-10-11T20:53:20-05:00
; #@! TF.GenerationSoftware,Kicad,Pcbnew,(5.1.6-0)
; #@! TF.FileFunction,Plated,1,4,PTH
FMAT,2
INCH
T1C0.0059
T2C0.0157
T3C0.0390
%
G90
G05
T1
X4.757Y-4.102
X4.757Y-4.1657
X4.8034Y-4.1341
X4.8353Y-4.1178
X4.836Y-4.166
X4.8675Y-4.0875
X4.884Y-4.1975
X4.899Y-4.245
T2
X4.186Y-4.3
X4.618Y-4.428
X4.754Y-3.234
X4.768Y-3.726
X5.177Y-4.148
X5.323Y-3.613
X5.335Y-3.318
X5.424Y-4.47
X5.615Y-4.469
X5.625Y-4.22
X5.649Y-3.258
X5.748Y-4.082
X5.911Y-4.195
X6.106Y-4.549
T3
X3.857Y-3.6039
X3.857Y-3.7811
X4.113Y-3.6039
X4.113Y-3.7811
T0
M30
