%TF.GenerationSoftware,KiCad,Pcbnew,(5.1.6-0)*%
%TF.CreationDate,2020-10-11T20:53:06-05:00*%
%TF.ProjectId,BatBot,42617442-6f74-42e6-9b69-6361645f7063,rev?*%
%TF.SameCoordinates,Original*%
%TF.FileFunction,Copper,L2,Inr*%
%TF.FilePolarity,Positive*%
%FSLAX46Y46*%
G04 Gerber Fmt 4.6, Leading zero omitted, Abs format (unit mm)*
G04 Created by KiCad (PCBNEW (5.1.6-0)) date 2020-10-11 20:53:06*
%MOMM*%
%LPD*%
G01*
G04 APERTURE LIST*
%TA.AperFunction,ViaPad*%
%ADD10C,1.498000*%
%TD*%
%TA.AperFunction,ViaPad*%
%ADD11R,1.498000X1.498000*%
%TD*%
%TA.AperFunction,ViaPad*%
%ADD12C,0.800000*%
%TD*%
%TA.AperFunction,ViaPad*%
%ADD13C,0.250000*%
%TD*%
%TA.AperFunction,ViaPad*%
%ADD14C,0.300000*%
%TD*%
%TA.AperFunction,Conductor*%
%ADD15C,0.100000*%
%TD*%
%TA.AperFunction,Conductor*%
%ADD16C,0.076200*%
%TD*%
%TA.AperFunction,Conductor*%
%ADD17C,0.200000*%
%TD*%
G04 APERTURE END LIST*
D10*
%TO.N,Net-(C18-Pad2)*%
%TO.C,S1*%
X104469000Y-96039500D03*
%TO.N,GND*%
X97969000Y-96039500D03*
%TO.N,Net-(C18-Pad2)*%
X104469000Y-91539500D03*
D11*
%TO.N,GND*%
X97969000Y-91539500D03*
%TD*%
D12*
%TO.N,GND*%
X117297200Y-112471200D03*
D13*
X120828000Y-105810000D03*
D12*
X120751600Y-82143600D03*
X135509000Y-84277200D03*
D13*
X120827800Y-104190800D03*
X122834400Y-105816400D03*
D12*
X121107200Y-94640400D03*
X131495800Y-105359200D03*
X155092400Y-115544600D03*
X142621000Y-113512600D03*
X142875000Y-107188000D03*
X145999200Y-103682800D03*
X150139400Y-106553000D03*
X137769600Y-113538000D03*
X135204200Y-91770200D03*
D13*
X124434600Y-107823000D03*
D12*
X143484600Y-82753200D03*
X106324400Y-109220000D03*
D13*
X123634500Y-103822500D03*
X122005405Y-105007095D03*
X122817290Y-104592790D03*
X124053199Y-106616500D03*
%TO.N,+3V3*%
X123228000Y-106210000D03*
X124028000Y-107010000D03*
X122021600Y-103809800D03*
X122428000Y-104610000D03*
X122828000Y-104210000D03*
X124028000Y-104610000D03*
X122828000Y-105410000D03*
X122028000Y-106210000D03*
X119532400Y-104825800D03*
X119098400Y-103202400D03*
%TO.N,Net-(C18-Pad2)*%
X123647200Y-105816400D03*
X109474000Y-95186500D03*
%TO.N,Net-(C21-Pad2)*%
X124409200Y-106222800D03*
D12*
X121327001Y-111397001D03*
D13*
%TO.N,USART1-TX*%
X120828000Y-104610000D03*
X106172000Y-110299500D03*
%TO.N,USART1-CK*%
X120428000Y-105010000D03*
X105854500Y-110725399D03*
%TO.N,USART1-RX*%
X105156000Y-109753400D03*
X122028000Y-104210000D03*
%TO.N,JTMS-SWDIO*%
X121228000Y-104210000D03*
X105181400Y-108127800D03*
%TO.N,USART1-CTS*%
X121628000Y-104210000D03*
X104965500Y-108585000D03*
%TO.N,JTCK-SWCLK*%
X120428000Y-103410000D03*
X105130600Y-112242600D03*
X120828000Y-103810000D03*
X105181400Y-107696000D03*
%TO.N,JTDO-SWO*%
X105156000Y-111734600D03*
X122828000Y-103410000D03*
%TO.N,NJTRST*%
X122828000Y-103810000D03*
X106172000Y-111379000D03*
%TO.N,Net-(R3-Pad2)*%
X125120400Y-109143800D03*
X124028000Y-105810000D03*
%TO.N,SPI1-MISO*%
X136575800Y-108839000D03*
X124028000Y-107810000D03*
X133959600Y-108813600D03*
D12*
X132892800Y-107391200D03*
D14*
X132892800Y-105054400D03*
D12*
X134315200Y-97637600D03*
X137033000Y-94919800D03*
D14*
X139674600Y-93472000D03*
D13*
%TO.N,SPI1-SCLK*%
X123634500Y-107378500D03*
D14*
X136626600Y-107873800D03*
D13*
X139420600Y-88290400D03*
%TO.N,SPI1-MOSI*%
X136448800Y-108305600D03*
X123228000Y-107010000D03*
D14*
X132334000Y-103174800D03*
D12*
X133731000Y-96926400D03*
X134874000Y-94691200D03*
D14*
X138938000Y-88468200D03*
D13*
%TO.N,IMU_INT*%
X121640600Y-103809800D03*
X120726200Y-102158800D03*
D12*
X127050800Y-93827600D03*
D13*
X141046200Y-93472000D03*
%TO.N,NRF_CE*%
X121628000Y-103410000D03*
D14*
X135763000Y-106832400D03*
D13*
%TO.N,IMU_CS*%
X121234200Y-103428800D03*
X131648200Y-88595200D03*
X139750800Y-87807800D03*
%TO.N,NRF_CS*%
X121234200Y-103022400D03*
D14*
X124714000Y-98755200D03*
D13*
X136220200Y-107340400D03*
D14*
%TO.N,NRF-IRQ*%
X138582400Y-109753400D03*
D12*
X131826000Y-107645200D03*
D14*
X126796800Y-104114600D03*
D13*
X122021600Y-103403400D03*
%TD*%
D15*
%TO.N,+3V3*%
X123228000Y-106210000D02*
X123228000Y-106616400D01*
X123228000Y-106616400D02*
X123647200Y-107035600D01*
X124002400Y-107035600D02*
X124028000Y-107010000D01*
X123647200Y-107035600D02*
X124002400Y-107035600D01*
D16*
X122021600Y-103809800D02*
X122428000Y-104216200D01*
X122428000Y-104216200D02*
X122428000Y-104610000D01*
X122828000Y-104210000D02*
X123240600Y-104622600D01*
X124015400Y-104622600D02*
X124028000Y-104610000D01*
X123240600Y-104622600D02*
X124015400Y-104622600D01*
X123240600Y-104622600D02*
X123240600Y-104997400D01*
X123240600Y-104997400D02*
X122828000Y-105410000D01*
X122828000Y-105410000D02*
X122453400Y-105410000D01*
X122028000Y-105835400D02*
X122028000Y-106210000D01*
X122453400Y-105410000D02*
X122028000Y-105835400D01*
D17*
X119532400Y-104825800D02*
X119532400Y-104622600D01*
X119098400Y-104188600D02*
X119098400Y-103202400D01*
X119532400Y-104622600D02*
X119098400Y-104188600D01*
D16*
%TO.N,Net-(C18-Pad2)*%
X126111000Y-105206800D02*
X126111000Y-101396800D01*
X119900700Y-95186500D02*
X109474000Y-95186500D01*
X126111000Y-101396800D02*
X119900700Y-95186500D01*
X126111000Y-105206800D02*
X123837700Y-105206800D01*
X123647200Y-105397300D02*
X123647200Y-105816400D01*
X123837700Y-105206800D02*
X123647200Y-105397300D01*
%TO.N,USART1-TX*%
X120357800Y-104610000D02*
X120828000Y-104610000D01*
X106172000Y-110299500D02*
X114668300Y-110299500D01*
X114668300Y-110299500D02*
X120357800Y-104610000D01*
%TO.N,USART1-CK*%
X114694000Y-110744000D02*
X120428000Y-105010000D01*
X114675399Y-110725399D02*
X114694000Y-110744000D01*
X105854500Y-110725399D02*
X114675399Y-110725399D01*
%TO.N,USART1-RX*%
X115249501Y-110988499D02*
X122028000Y-104210000D01*
X105016311Y-110988499D02*
X115249501Y-110988499D01*
X104892499Y-110864687D02*
X105016311Y-110988499D01*
X104892499Y-110016901D02*
X104892499Y-110864687D01*
X105156000Y-109753400D02*
X104892499Y-110016901D01*
%TO.N,JTCK-SWCLK*%
X105130600Y-112242600D02*
X105384600Y-112496600D01*
X105384600Y-112496600D02*
X105384600Y-115443000D01*
X105384600Y-115443000D02*
X103632000Y-117195600D01*
X103632000Y-117195600D02*
X98145600Y-117195600D01*
X98145600Y-117195600D02*
X97561400Y-116611400D01*
X97561400Y-116611400D02*
X97561400Y-102946200D01*
X97561400Y-102946200D02*
X98729800Y-101777800D01*
X118795800Y-101777800D02*
X120828000Y-103810000D01*
X98729800Y-101777800D02*
X118795800Y-101777800D01*
%TO.N,JTDO-SWO*%
X105156000Y-111734600D02*
X105435400Y-111734600D01*
X105435400Y-111734600D02*
X106197400Y-112496600D01*
X106197400Y-112496600D02*
X106197400Y-115493800D01*
X106197400Y-115493800D02*
X104013000Y-117678200D01*
X104013000Y-117678200D02*
X97790000Y-117678200D01*
X97790000Y-117678200D02*
X96799400Y-116687600D01*
X96799400Y-116687600D02*
X96799400Y-102438200D01*
X96799400Y-102438200D02*
X97942400Y-101295200D01*
X120713200Y-101295200D02*
X122828000Y-103410000D01*
X97942400Y-101295200D02*
X120713200Y-101295200D01*
%TO.N,NJTRST*%
X106908600Y-115544600D02*
X106908600Y-112445800D01*
X95961200Y-116636800D02*
X97586800Y-118262400D01*
X95961200Y-102082600D02*
X95961200Y-116636800D01*
X104190800Y-118262400D02*
X106908600Y-115544600D01*
X97586800Y-118262400D02*
X104190800Y-118262400D01*
X97256600Y-100787200D02*
X95961200Y-102082600D01*
X121488200Y-100787200D02*
X97256600Y-100787200D01*
X123253500Y-103384500D02*
X123253500Y-102552500D01*
X123253500Y-102552500D02*
X121488200Y-100787200D01*
X122828000Y-103810000D02*
X123253500Y-103384500D01*
%TO.N,SPI1-MISO*%
X124434600Y-108839000D02*
X124028200Y-108432600D01*
X124028200Y-107810200D02*
X124028000Y-107810000D01*
X124028200Y-108432600D02*
X124028200Y-107810200D01*
X133934200Y-108839000D02*
X133959600Y-108813600D01*
X133858000Y-108839000D02*
X133934200Y-108839000D01*
X136575800Y-108839000D02*
X133858000Y-108839000D01*
X133858000Y-108839000D02*
X124434600Y-108839000D01*
X132892800Y-107391200D02*
X132892800Y-105054400D01*
X134315200Y-97637600D02*
X137033000Y-94919800D01*
%TO.N,SPI1-SCLK*%
X137642600Y-107873800D02*
X136626600Y-107873800D01*
X137871200Y-108102400D02*
X137642600Y-107873800D01*
X137871200Y-108889800D02*
X137871200Y-108102400D01*
X124773901Y-109406901D02*
X137354099Y-109406901D01*
X124764800Y-109397800D02*
X124773901Y-109406901D01*
X124744202Y-109397800D02*
X124764800Y-109397800D01*
X123523624Y-108177222D02*
X124744202Y-109397800D01*
X137354099Y-109406901D02*
X137871200Y-108889800D01*
X123523624Y-107489376D02*
X123523624Y-108177222D01*
X123554687Y-107458313D02*
X123523624Y-107489376D01*
%TO.N,SPI1-MOSI*%
X131089400Y-108305600D02*
X130327400Y-107543600D01*
X134620000Y-108305600D02*
X134620000Y-105511600D01*
X136448800Y-108305600D02*
X134620000Y-108305600D01*
X134620000Y-108305600D02*
X131089400Y-108305600D01*
X132334000Y-103225600D02*
X132334000Y-103174800D01*
X134620000Y-105511600D02*
X132334000Y-103225600D01*
X134874000Y-95783400D02*
X134874000Y-94691200D01*
X133731000Y-96926400D02*
X134874000Y-95783400D01*
X125895100Y-107319310D02*
X125895100Y-107543600D01*
X124282911Y-105959699D02*
X124535489Y-105959699D01*
X124146099Y-106096511D02*
X124282911Y-105959699D01*
X124535489Y-105959699D02*
X125895100Y-107319310D01*
X123503901Y-106096511D02*
X124146099Y-106096511D01*
X123354289Y-105946899D02*
X123503901Y-106096511D01*
X123101711Y-105946899D02*
X123354289Y-105946899D01*
X122964899Y-106746899D02*
X122964899Y-106083711D01*
X123228000Y-107010000D02*
X122964899Y-106746899D01*
X122964899Y-106083711D02*
X123101711Y-105946899D01*
X130327400Y-107543600D02*
X125895100Y-107543600D01*
%TO.N,IMU_INT*%
X140690600Y-93827600D02*
X141046200Y-93472000D01*
X127050800Y-93827600D02*
X140690600Y-93827600D01*
X120726200Y-103310190D02*
X120726200Y-102158800D01*
X121225810Y-103809800D02*
X120726200Y-103310190D01*
X121640600Y-103809800D02*
X121225810Y-103809800D01*
%TO.N,IMU_CS*%
X131648200Y-88595200D02*
X132191101Y-88052299D01*
X132435600Y-87807800D02*
X132191101Y-88052299D01*
X139750800Y-87807800D02*
X132435600Y-87807800D01*
%TO.N,NRF_CS*%
X129616200Y-98755200D02*
X129819400Y-98755200D01*
X124714000Y-98755200D02*
X129616200Y-98755200D01*
X129616200Y-98755200D02*
X129667000Y-98755200D01*
X136220200Y-105156000D02*
X136220200Y-107340400D01*
X129819400Y-98755200D02*
X136220200Y-105156000D01*
%TO.N,NRF-IRQ*%
X128295400Y-104114600D02*
X126796800Y-104114600D01*
X131826000Y-107645200D02*
X128295400Y-104114600D01*
%TD*%
M02*
