%TF.GenerationSoftware,KiCad,Pcbnew,(5.1.6-0)*%
%TF.CreationDate,2020-10-11T20:53:06-05:00*%
%TF.ProjectId,BatBot,42617442-6f74-42e6-9b69-6361645f7063,rev?*%
%TF.SameCoordinates,Original*%
%TF.FileFunction,Copper,L4,Bot*%
%TF.FilePolarity,Positive*%
%FSLAX46Y46*%
G04 Gerber Fmt 4.6, Leading zero omitted, Abs format (unit mm)*
G04 Created by KiCad (PCBNEW (5.1.6-0)) date 2020-10-11 20:53:06*
%MOMM*%
%LPD*%
G01*
G04 APERTURE LIST*
%TA.AperFunction,ComponentPad*%
%ADD10C,1.498000*%
%TD*%
%TA.AperFunction,ComponentPad*%
%ADD11R,1.498000X1.498000*%
%TD*%
%TA.AperFunction,ViaPad*%
%ADD12C,0.800000*%
%TD*%
%TA.AperFunction,ViaPad*%
%ADD13C,0.250000*%
%TD*%
%TA.AperFunction,Conductor*%
%ADD14C,0.076200*%
%TD*%
%TA.AperFunction,Conductor*%
%ADD15C,0.254000*%
%TD*%
G04 APERTURE END LIST*
D10*
%TO.P,S1,4*%
%TO.N,Net-(C18-Pad2)*%
X104469000Y-96039500D03*
%TO.P,S1,2*%
%TO.N,GND*%
X97969000Y-96039500D03*
%TO.P,S1,3*%
%TO.N,Net-(C18-Pad2)*%
X104469000Y-91539500D03*
D11*
%TO.P,S1,1*%
%TO.N,GND*%
X97969000Y-91539500D03*
%TD*%
D12*
%TO.N,GND*%
X117297200Y-112471200D03*
D13*
X120828000Y-105810000D03*
D12*
X120751600Y-82143600D03*
X135509000Y-84277200D03*
D13*
X120827800Y-104190800D03*
X122834400Y-105816400D03*
D12*
X121107200Y-94640400D03*
X131495800Y-105359200D03*
X155092400Y-115544600D03*
X142621000Y-113512600D03*
X142875000Y-107188000D03*
X145999200Y-103682800D03*
X150139400Y-106553000D03*
X137769600Y-113538000D03*
X135204200Y-91770200D03*
D13*
X124434600Y-107823000D03*
D12*
X143484600Y-82753200D03*
X106324400Y-109220000D03*
D13*
X123634500Y-103822500D03*
X122005405Y-105007095D03*
X122817290Y-104592790D03*
X124053199Y-106616500D03*
%TD*%
D14*
%TO.N,GND*%
X122809000Y-104584500D02*
X122817290Y-104592790D01*
X124079000Y-106616500D02*
X124053199Y-106616500D01*
%TD*%
D15*
%TO.N,GND*%
G36*
X157835685Y-118338600D02*
G01*
X95707285Y-118338600D01*
X95722354Y-95854730D01*
X102593000Y-95854730D01*
X102593000Y-96224270D01*
X102665094Y-96586709D01*
X102806511Y-96928119D01*
X103011816Y-97235380D01*
X103273120Y-97496684D01*
X103580381Y-97701989D01*
X103921791Y-97843406D01*
X104284230Y-97915500D01*
X104653770Y-97915500D01*
X105016209Y-97843406D01*
X105357619Y-97701989D01*
X105664880Y-97496684D01*
X105926184Y-97235380D01*
X106131489Y-96928119D01*
X106272906Y-96586709D01*
X106345000Y-96224270D01*
X106345000Y-95854730D01*
X106272906Y-95492291D01*
X106131489Y-95150881D01*
X105926184Y-94843620D01*
X105664880Y-94582316D01*
X105357619Y-94377011D01*
X105016209Y-94235594D01*
X104653770Y-94163500D01*
X104284230Y-94163500D01*
X103921791Y-94235594D01*
X103580381Y-94377011D01*
X103273120Y-94582316D01*
X103011816Y-94843620D01*
X102806511Y-95150881D01*
X102665094Y-95492291D01*
X102593000Y-95854730D01*
X95722354Y-95854730D01*
X95725370Y-91354730D01*
X102593000Y-91354730D01*
X102593000Y-91724270D01*
X102665094Y-92086709D01*
X102806511Y-92428119D01*
X103011816Y-92735380D01*
X103273120Y-92996684D01*
X103580381Y-93201989D01*
X103921791Y-93343406D01*
X104284230Y-93415500D01*
X104653770Y-93415500D01*
X105016209Y-93343406D01*
X105357619Y-93201989D01*
X105664880Y-92996684D01*
X105926184Y-92735380D01*
X106131489Y-92428119D01*
X106272906Y-92086709D01*
X106345000Y-91724270D01*
X106345000Y-91354730D01*
X106272906Y-90992291D01*
X106131489Y-90650881D01*
X105926184Y-90343620D01*
X105664880Y-90082316D01*
X105357619Y-89877011D01*
X105016209Y-89735594D01*
X104653770Y-89663500D01*
X104284230Y-89663500D01*
X103921791Y-89735594D01*
X103580381Y-89877011D01*
X103273120Y-90082316D01*
X103011816Y-90343620D01*
X102806511Y-90650881D01*
X102665094Y-90992291D01*
X102593000Y-91354730D01*
X95725370Y-91354730D01*
X95732515Y-80695800D01*
X157860915Y-80695800D01*
X157835685Y-118338600D01*
G37*
X157835685Y-118338600D02*
X95707285Y-118338600D01*
X95722354Y-95854730D01*
X102593000Y-95854730D01*
X102593000Y-96224270D01*
X102665094Y-96586709D01*
X102806511Y-96928119D01*
X103011816Y-97235380D01*
X103273120Y-97496684D01*
X103580381Y-97701989D01*
X103921791Y-97843406D01*
X104284230Y-97915500D01*
X104653770Y-97915500D01*
X105016209Y-97843406D01*
X105357619Y-97701989D01*
X105664880Y-97496684D01*
X105926184Y-97235380D01*
X106131489Y-96928119D01*
X106272906Y-96586709D01*
X106345000Y-96224270D01*
X106345000Y-95854730D01*
X106272906Y-95492291D01*
X106131489Y-95150881D01*
X105926184Y-94843620D01*
X105664880Y-94582316D01*
X105357619Y-94377011D01*
X105016209Y-94235594D01*
X104653770Y-94163500D01*
X104284230Y-94163500D01*
X103921791Y-94235594D01*
X103580381Y-94377011D01*
X103273120Y-94582316D01*
X103011816Y-94843620D01*
X102806511Y-95150881D01*
X102665094Y-95492291D01*
X102593000Y-95854730D01*
X95722354Y-95854730D01*
X95725370Y-91354730D01*
X102593000Y-91354730D01*
X102593000Y-91724270D01*
X102665094Y-92086709D01*
X102806511Y-92428119D01*
X103011816Y-92735380D01*
X103273120Y-92996684D01*
X103580381Y-93201989D01*
X103921791Y-93343406D01*
X104284230Y-93415500D01*
X104653770Y-93415500D01*
X105016209Y-93343406D01*
X105357619Y-93201989D01*
X105664880Y-92996684D01*
X105926184Y-92735380D01*
X106131489Y-92428119D01*
X106272906Y-92086709D01*
X106345000Y-91724270D01*
X106345000Y-91354730D01*
X106272906Y-90992291D01*
X106131489Y-90650881D01*
X105926184Y-90343620D01*
X105664880Y-90082316D01*
X105357619Y-89877011D01*
X105016209Y-89735594D01*
X104653770Y-89663500D01*
X104284230Y-89663500D01*
X103921791Y-89735594D01*
X103580381Y-89877011D01*
X103273120Y-90082316D01*
X103011816Y-90343620D01*
X102806511Y-90650881D01*
X102665094Y-90992291D01*
X102593000Y-91354730D01*
X95725370Y-91354730D01*
X95732515Y-80695800D01*
X157860915Y-80695800D01*
X157835685Y-118338600D01*
%TD*%
M02*
