%FSAX43Y43*%
%MOMM*%
G71*
G01*
G75*
G04 Layer_Color=16711935*
%ADD10R,0.350X0.400*%
G04:AMPARAMS|DCode=11|XSize=2.4mm|YSize=2.4mm|CornerRadius=0.06mm|HoleSize=0mm|Usage=FLASHONLY|Rotation=270.000|XOffset=0mm|YOffset=0mm|HoleType=Round|Shape=RoundedRectangle|*
%AMROUNDEDRECTD11*
21,1,2.400,2.280,0,0,270.0*
21,1,2.280,2.400,0,0,270.0*
1,1,0.120,-1.140,-1.140*
1,1,0.120,-1.140,1.140*
1,1,0.120,1.140,1.140*
1,1,0.120,1.140,-1.140*
%
%ADD11ROUNDEDRECTD11*%
%ADD12O,0.300X0.800*%
%ADD13O,0.800X0.300*%
%ADD14R,0.500X0.500*%
%ADD15R,0.850X0.400*%
%ADD16R,0.650X0.650*%
G04:AMPARAMS|DCode=17|XSize=0.65mm|YSize=3.6mm|CornerRadius=0.033mm|HoleSize=0mm|Usage=FLASHONLY|Rotation=270.000|XOffset=0mm|YOffset=0mm|HoleType=Round|Shape=RoundedRectangle|*
%AMROUNDEDRECTD17*
21,1,0.650,3.535,0,0,270.0*
21,1,0.585,3.600,0,0,270.0*
1,1,0.065,-1.768,-0.292*
1,1,0.065,-1.768,0.292*
1,1,0.065,1.768,0.292*
1,1,0.065,1.768,-0.292*
%
%ADD17ROUNDEDRECTD17*%
%ADD18R,1.300X1.300*%
%ADD19R,5.309X2.007*%
%ADD20R,2.007X5.309*%
%ADD21R,0.650X0.650*%
%ADD22O,0.220X0.800*%
%ADD23O,0.800X0.220*%
G04:AMPARAMS|DCode=24|XSize=1.6mm|YSize=1.6mm|CornerRadius=0.04mm|HoleSize=0mm|Usage=FLASHONLY|Rotation=180.000|XOffset=0mm|YOffset=0mm|HoleType=Round|Shape=RoundedRectangle|*
%AMROUNDEDRECTD24*
21,1,1.600,1.520,0,0,180.0*
21,1,1.520,1.600,0,0,180.0*
1,1,0.080,-0.760,0.760*
1,1,0.080,0.760,0.760*
1,1,0.080,0.760,-0.760*
1,1,0.080,-0.760,-0.760*
%
%ADD24ROUNDEDRECTD24*%
G04:AMPARAMS|DCode=25|XSize=2.3mm|YSize=0.8mm|CornerRadius=0.08mm|HoleSize=0mm|Usage=FLASHONLY|Rotation=0.000|XOffset=0mm|YOffset=0mm|HoleType=Round|Shape=RoundedRectangle|*
%AMROUNDEDRECTD25*
21,1,2.300,0.640,0,0,0.0*
21,1,2.140,0.800,0,0,0.0*
1,1,0.160,1.070,-0.320*
1,1,0.160,-1.070,-0.320*
1,1,0.160,-1.070,0.320*
1,1,0.160,1.070,0.320*
%
%ADD25ROUNDEDRECTD25*%
%ADD26R,1.300X1.600*%
%ADD27R,0.850X0.750*%
%ADD28R,1.600X1.800*%
%ADD29R,1.300X1.300*%
%ADD30R,0.900X0.900*%
%ADD31R,0.900X0.900*%
%ADD32R,1.300X1.600*%
%ADD33R,2.380X1.650*%
%ADD34O,0.250X0.600*%
%ADD35R,1.000X0.800*%
%ADD36O,0.900X0.300*%
%ADD37O,0.300X0.900*%
%ADD38R,0.600X0.800*%
%ADD39R,0.300X0.500*%
%ADD40R,0.550X0.550*%
%ADD41R,4.200X1.905*%
%ADD42C,0.600*%
%ADD43C,0.400*%
%ADD44C,0.250*%
%ADD45C,1.000*%
%ADD46C,0.650*%
%ADD47C,0.200*%
%ADD48C,0.257*%
%ADD49C,0.800*%
%ADD50C,0.300*%
%ADD51C,0.500*%
%ADD52C,1.200*%
%ADD53C,1.300*%
%ADD54C,0.900*%
%ADD55C,0.350*%
%ADD56C,0.700*%
%ADD57C,0.150*%
%ADD58C,0.050*%
%ADD59C,1.600*%
%ADD60C,1.500*%
%ADD61R,1.500X1.500*%
G04:AMPARAMS|DCode=62|XSize=2.2mm|YSize=3.6mm|CornerRadius=0.11mm|HoleSize=0mm|Usage=FLASHONLY|Rotation=270.000|XOffset=0mm|YOffset=0mm|HoleType=Round|Shape=RoundedRectangle|*
%AMROUNDEDRECTD62*
21,1,2.200,3.380,0,0,270.0*
21,1,1.980,3.600,0,0,270.0*
1,1,0.220,-1.690,-0.990*
1,1,0.220,-1.690,0.990*
1,1,0.220,1.690,0.990*
1,1,0.220,1.690,-0.990*
%
%ADD62ROUNDEDRECTD62*%
G04:AMPARAMS|DCode=63|XSize=1.6mm|YSize=1.6mm|CornerRadius=0.08mm|HoleSize=0mm|Usage=FLASHONLY|Rotation=270.000|XOffset=0mm|YOffset=0mm|HoleType=Round|Shape=RoundedRectangle|*
%AMROUNDEDRECTD63*
21,1,1.600,1.440,0,0,270.0*
21,1,1.440,1.600,0,0,270.0*
1,1,0.160,-0.720,-0.720*
1,1,0.160,-0.720,0.720*
1,1,0.160,0.720,0.720*
1,1,0.160,0.720,-0.720*
%
%ADD63ROUNDEDRECTD63*%
%ADD64C,1.700*%
G04:AMPARAMS|DCode=65|XSize=1.7mm|YSize=1.7mm|CornerRadius=0.17mm|HoleSize=0mm|Usage=FLASHONLY|Rotation=0.000|XOffset=0mm|YOffset=0mm|HoleType=Round|Shape=RoundedRectangle|*
%AMROUNDEDRECTD65*
21,1,1.700,1.360,0,0,0.0*
21,1,1.360,1.700,0,0,0.0*
1,1,0.340,0.680,-0.680*
1,1,0.340,-0.680,-0.680*
1,1,0.340,-0.680,0.680*
1,1,0.340,0.680,0.680*
%
%ADD65ROUNDEDRECTD65*%
%ADD66R,4.200X2.413*%
%ADD67C,0.400*%
%ADD68C,0.500*%
%ADD69C,0.600*%
%ADD70C,0.660*%
%ADD71C,0.100*%
%ADD72C,0.028*%
%ADD73C,0.025*%
%ADD74C,0.254*%
%ADD75R,0.450X0.500*%
G04:AMPARAMS|DCode=76|XSize=2.5mm|YSize=2.5mm|CornerRadius=0.11mm|HoleSize=0mm|Usage=FLASHONLY|Rotation=270.000|XOffset=0mm|YOffset=0mm|HoleType=Round|Shape=RoundedRectangle|*
%AMROUNDEDRECTD76*
21,1,2.500,2.280,0,0,270.0*
21,1,2.280,2.500,0,0,270.0*
1,1,0.220,-1.140,-1.140*
1,1,0.220,-1.140,1.140*
1,1,0.220,1.140,1.140*
1,1,0.220,1.140,-1.140*
%
%ADD76ROUNDEDRECTD76*%
%ADD77O,0.400X0.900*%
%ADD78O,0.900X0.400*%
%ADD79R,0.600X0.600*%
%ADD80R,0.950X0.500*%
%ADD81R,0.750X0.750*%
G04:AMPARAMS|DCode=82|XSize=0.75mm|YSize=3.7mm|CornerRadius=0.083mm|HoleSize=0mm|Usage=FLASHONLY|Rotation=270.000|XOffset=0mm|YOffset=0mm|HoleType=Round|Shape=RoundedRectangle|*
%AMROUNDEDRECTD82*
21,1,0.750,3.535,0,0,270.0*
21,1,0.585,3.700,0,0,270.0*
1,1,0.165,-1.768,-0.292*
1,1,0.165,-1.768,0.292*
1,1,0.165,1.768,0.292*
1,1,0.165,1.768,-0.292*
%
%ADD82ROUNDEDRECTD82*%
%ADD83R,1.400X1.400*%
%ADD84R,5.409X2.107*%
%ADD85R,2.107X5.409*%
%ADD86R,0.750X0.750*%
%ADD87O,0.320X0.900*%
%ADD88O,0.900X0.320*%
G04:AMPARAMS|DCode=89|XSize=1.7mm|YSize=1.7mm|CornerRadius=0.09mm|HoleSize=0mm|Usage=FLASHONLY|Rotation=180.000|XOffset=0mm|YOffset=0mm|HoleType=Round|Shape=RoundedRectangle|*
%AMROUNDEDRECTD89*
21,1,1.700,1.520,0,0,180.0*
21,1,1.520,1.700,0,0,180.0*
1,1,0.180,-0.760,0.760*
1,1,0.180,0.760,0.760*
1,1,0.180,0.760,-0.760*
1,1,0.180,-0.760,-0.760*
%
%ADD89ROUNDEDRECTD89*%
G04:AMPARAMS|DCode=90|XSize=2.4mm|YSize=0.9mm|CornerRadius=0.13mm|HoleSize=0mm|Usage=FLASHONLY|Rotation=0.000|XOffset=0mm|YOffset=0mm|HoleType=Round|Shape=RoundedRectangle|*
%AMROUNDEDRECTD90*
21,1,2.400,0.640,0,0,0.0*
21,1,2.140,0.900,0,0,0.0*
1,1,0.260,1.070,-0.320*
1,1,0.260,-1.070,-0.320*
1,1,0.260,-1.070,0.320*
1,1,0.260,1.070,0.320*
%
%ADD90ROUNDEDRECTD90*%
%ADD91R,1.400X1.700*%
%ADD92R,0.950X0.850*%
%ADD93R,1.700X1.900*%
%ADD94R,1.400X1.400*%
%ADD95R,1.000X1.000*%
%ADD96R,1.000X1.000*%
%ADD97R,1.400X1.700*%
%ADD98R,2.480X1.750*%
%ADD99O,0.350X0.700*%
%ADD100R,1.100X0.900*%
%ADD101O,1.000X0.400*%
%ADD102O,0.400X1.000*%
%ADD103R,0.700X0.900*%
%ADD104R,0.350X0.550*%
%ADD105R,0.600X0.600*%
%ADD106R,4.300X2.005*%
%ADD107R,1.600X1.600*%
G04:AMPARAMS|DCode=108|XSize=2.4mm|YSize=3.8mm|CornerRadius=0.21mm|HoleSize=0mm|Usage=FLASHONLY|Rotation=270.000|XOffset=0mm|YOffset=0mm|HoleType=Round|Shape=RoundedRectangle|*
%AMROUNDEDRECTD108*
21,1,2.400,3.380,0,0,270.0*
21,1,1.980,3.800,0,0,270.0*
1,1,0.420,-1.690,-0.990*
1,1,0.420,-1.690,0.990*
1,1,0.420,1.690,0.990*
1,1,0.420,1.690,-0.990*
%
%ADD108ROUNDEDRECTD108*%
G04:AMPARAMS|DCode=109|XSize=1.7mm|YSize=1.7mm|CornerRadius=0.13mm|HoleSize=0mm|Usage=FLASHONLY|Rotation=270.000|XOffset=0mm|YOffset=0mm|HoleType=Round|Shape=RoundedRectangle|*
%AMROUNDEDRECTD109*
21,1,1.700,1.440,0,0,270.0*
21,1,1.440,1.700,0,0,270.0*
1,1,0.260,-0.720,-0.720*
1,1,0.260,-0.720,0.720*
1,1,0.260,0.720,0.720*
1,1,0.260,0.720,-0.720*
%
%ADD109ROUNDEDRECTD109*%
%ADD110C,1.800*%
G04:AMPARAMS|DCode=111|XSize=1.8mm|YSize=1.8mm|CornerRadius=0.22mm|HoleSize=0mm|Usage=FLASHONLY|Rotation=0.000|XOffset=0mm|YOffset=0mm|HoleType=Round|Shape=RoundedRectangle|*
%AMROUNDEDRECTD111*
21,1,1.800,1.360,0,0,0.0*
21,1,1.360,1.800,0,0,0.0*
1,1,0.440,0.680,-0.680*
1,1,0.440,-0.680,-0.680*
1,1,0.440,-0.680,0.680*
1,1,0.440,0.680,0.680*
%
%ADD111ROUNDEDRECTD111*%
%ADD112R,4.300X2.513*%
%ADD113C,0.700*%
%ADD114C,0.760*%
D58*
X0000000Y0058000D02*
X0070500D01*
Y0000000D02*
Y0058000D01*
X0000000Y0000000D02*
X0070500D01*
X0000000D02*
Y0058000D01*
D59*
X0028420Y0053150D02*
D03*
X0030960D02*
D03*
X0033500D02*
D03*
X0036040D02*
D03*
X0038580D02*
D03*
X0041120D02*
D03*
X0043660D02*
D03*
X0021960D02*
D03*
X0016880D02*
D03*
X0014340D02*
D03*
X0011800D02*
D03*
X0009260D02*
D03*
X0006720D02*
D03*
X0004180D02*
D03*
X0001640D02*
D03*
X0019420D02*
D03*
X0028280Y0004890D02*
D03*
X0025740D02*
D03*
X0023200D02*
D03*
X0020660D02*
D03*
X0018120D02*
D03*
X0015580D02*
D03*
X0013040D02*
D03*
X0046200D02*
D03*
X0043660D02*
D03*
X0041120D02*
D03*
X0038580D02*
D03*
X0036040D02*
D03*
X0013040Y0002350D02*
D03*
X0015580D02*
D03*
X0018120D02*
D03*
X0020660D02*
D03*
X0023200D02*
D03*
X0025740D02*
D03*
X0028280D02*
D03*
X0046200D02*
D03*
X0043660D02*
D03*
X0041120D02*
D03*
X0038580D02*
D03*
X0036040D02*
D03*
X0019420Y0050610D02*
D03*
X0001640D02*
D03*
X0004180D02*
D03*
X0006720D02*
D03*
X0009260D02*
D03*
X0011800D02*
D03*
X0014340D02*
D03*
X0016880D02*
D03*
X0021960D02*
D03*
X0043660D02*
D03*
X0041120D02*
D03*
X0038580D02*
D03*
X0036040D02*
D03*
X0033500D02*
D03*
X0030960D02*
D03*
X0028420D02*
D03*
X0010530Y0055690D02*
D03*
X0013070D02*
D03*
X0015610D02*
D03*
X0018150D02*
D03*
X0020690D02*
D03*
D64*
X0065000Y0004890D02*
D03*
X0006400Y0009600D02*
D03*
D69*
X0037636Y0040225D02*
D03*
Y0041275D02*
D03*
X0038686D02*
D03*
Y0040225D02*
D03*
X0038161Y0040750D02*
D03*
X0018850Y0017844D02*
D03*
X0019375Y0017319D02*
D03*
Y0018369D02*
D03*
X0018325D02*
D03*
Y0017319D02*
D03*
D107*
X0046200Y0053150D02*
D03*
X0024500D02*
D03*
X0010500Y0004890D02*
D03*
X0033500D02*
D03*
X0010500Y0002350D02*
D03*
X0033500D02*
D03*
X0024500Y0050610D02*
D03*
X0046200D02*
D03*
X0023230Y0055690D02*
D03*
D108*
X0002200Y0046650D02*
D03*
Y0041350D02*
D03*
D109*
X0006400Y0011600D02*
D03*
D110*
X0021190Y0039645D02*
D03*
X0008342Y0023994D02*
D03*
X0042590Y0018100D02*
D03*
D111*
X0040050D02*
D03*
D112*
X0068200Y0024620D02*
D03*
Y0033380D02*
D03*
D113*
X0060250Y0027900D02*
D03*
X0059400Y0028750D02*
D03*
X0060250Y0029600D02*
D03*
X0061100Y0028750D02*
D03*
X0059400Y0029600D02*
D03*
X0060250Y0028750D02*
D03*
X0061100Y0029600D02*
D03*
Y0027900D02*
D03*
X0059400D02*
D03*
D114*
X0024900Y0020300D02*
D03*
X0026100D02*
D03*
M02*
