M48
;Layer_Color=9474304
;FILE_FORMAT=4:3
METRIC
;TYPE=PLATED
T1F00S00C0.200
T2F00S00C0.250
T3F00S00C0.300
T4F00S00C0.330
T5F00S00C0.500
T6F00S00C0.900
T7F00S00C1.000
%
T01
X0064550Y0028325
X0065325
X0065875Y0027750
X0065325Y0029675
X0064550
X0065875Y0030250
X0062750Y0029675
Y0028325
T02
X0000700Y0001850
X0002100
X0001400Y0002850
X0000750Y0003900
X0002100
X0003250Y0004050
X0003200Y0005950
X0002400Y0007150
X0004500
X0004550Y0005050
X0005900Y0005750
X0008150Y0005790
X0007500Y0004300
X0009050Y0003166
X0011850Y0003130
X0014450Y0003150
X0016800Y0003130
X0019200Y0003100
Y0006000
Y0008050
X0018850Y0010100
X0016550Y0010150
X0017100Y0008500
X0015400Y0008550
X0013600Y0008600
X0014050Y0007250
Y0005950
X0011850
X0012300Y0007400
X0011600Y0008650
X0010550Y0007900
X0010050Y0007250
X0008700Y0008100
X0007250
X0005750
X0004450Y0009350
X0002600Y0009700
Y0011650
X0004450Y0011600
Y0013850
X0002850Y0014850
X0002800Y0017450
X0002700Y0020400
X0000750Y0021600
Y0018850
Y0015900
Y0013150
Y0010650
Y0008300
Y0005950
X0001640Y0005050
X0005850Y0003100
X0006000Y0014950
X0007950Y0015450
Y0016800
X0007900Y0018250
X0008000Y0019500
X0008200Y0020950
X0009300Y0021250
X0009350Y0022378
X0013050Y0021600
X0015800Y0016750
X0020300Y0019650
X0019525Y0020450
X0022500Y0018850
X0023250Y0022250
X0023450Y0015650
X0014250Y0010150
X0012300
X0015950Y0007100
X0016750Y0005900
X0007950Y0013950
X0006050Y0017550
Y0020450
X0025000Y0022284
X0024909Y0018341
X0030150Y0013350
X0032000Y0013600
X0034075Y0013575
X0035800Y0013500
X0037083Y0013900
X0037998Y0014085
X0039200Y0014100
X0040450Y0014125
X0041050Y0014900
X0041947Y0014967
Y0014200
Y0013450
X0041120Y0012750
X0043081Y0012800
X0044159Y0013950
Y0014800
X0045625Y0014975
X0045750Y0014050
X0046850Y0014250
Y0015350
X0048100Y0015325
Y0014050
X0049550Y0014085
Y0012950
X0051300Y0012977
X0051564Y0014085
X0051850Y0015350
X0053950
X0053800Y0014100
X0055150
X0056500Y0014085
X0055850Y0012977
X0056473Y0011900
X0055100Y0011200
X0053931Y0011900
X0053350Y0012977
X0052150Y0011150
X0051150Y0009850
X0051524Y0008400
X0051700Y0006900
X0052025Y0005500
X0051600Y0003850
X0052450Y0003037
X0050000
X0049800Y0003850
X0049750Y0005450
X0049000Y0006950
X0049550Y0008300
X0047200Y0008250
X0046550Y0006850
X0047400Y0005450
X0047650Y0003850
X0047450Y0003040
X0044900Y0003130
X0042350Y0003088
X0042900Y0003925
X0043023Y0006000
X0041800
X0040525
X0039200Y0006025
X0037950
Y0008175
X0039225
X0040450Y0008775
X0041850Y0007750
X0043050Y0008775
X0042400Y0009825
X0042175Y0011400
X0040450Y0011375
X0039181Y0012400
X0037950
Y0010300
X0039200
X0035425Y0010900
X0035450Y0008321
X0035352Y0006000
X0033450Y0006125
X0031400Y0006050
X0030067Y0005578
X0030000Y0003130
X0032100Y0003237
X0032200Y0005000
X0032550Y0008350
X0030000Y0008300
Y0010900
X0032600Y0010906
X0034900Y0003000
X0037361
X0039850
X0044950Y0006000
X0044725Y0008125
X0044925Y0010675
X0043800Y0011264
X0045299Y0012750
X0046900Y0012550
X0047650Y0012900
X0048400Y0011400
X0046900
X0046491Y0009850
X0048500Y0009900
X0050000Y0011400
X0049750Y0015350
X0049725Y0017350
X0048100
X0046850
Y0018709
X0047775Y0019100
X0048450Y0018700
X0047250Y0019850
X0045750Y0019650
X0044700Y0019600
X0045150Y0018709
X0045800Y0017850
X0045150Y0017150
X0043590Y0017000
X0041625Y0016900
Y0019350
X0043587Y0019268
X0045450Y0020670
X0046400Y0020730
X0045450Y0021700
X0048350Y0022360
X0049950Y0022300
X0049250Y0021450
X0050200Y0020450
X0051200Y0019450
X0052850Y0019697
X0054600Y0019700
X0056200
X0056150Y0018433
X0054236Y0018450
X0052239Y0018500
X0051700Y0021100
X0051600Y0022300
X0053300Y0022300
X0053800Y0021100
X0056200
Y0022360
X0055100Y0022350
X0058100Y0022378
X0058100Y0021100
Y0019700
Y0018433
X0059200Y0019450
X0060275Y0020500
X0059850Y0021400
Y0022400
X0061400Y0021650
X0063650Y0022284
X0062839Y0019800
X0061850Y0018800
X0060700Y0017650
X0059533Y0016433
X0058760Y0015569
X0058075Y0016150
X0056848Y0016153
X0057429Y0015550
X0055981Y0015569
X0059800Y0014300
X0058650Y0012977
X0058249Y0011550
X0058264Y0008850
X0058600Y0006750
X0056800Y0007350
X0056886Y0004950
X0055405
X0054400Y0005527
X0054200Y0004279
X0055150Y0003040
X0058264Y0003050
X0061450
X0060000Y0005000
X0061650Y0006750
X0060950Y0008850
X0059900Y0010000
X0061000Y0011400
X0063000
X0062800Y0010000
X0062600Y0014085
X0061450Y0012977
X0061400Y0015650
X0063400Y0017650
X0056828Y0010000
X0055600Y0009021
X0054400Y0008321
X0054364Y0007000
X0053050Y0009021
X0053650Y0010075
X0039084Y0015550
Y0016850
X0039110Y0019500
X0039300Y0021100
X0040800Y0021300
X0042000
Y0022300
X0063700Y0020800
X0064500Y0019900
X0065300Y0019100
Y0021000
X0065100Y0022050
X0066350Y0022200
X0067600Y0021900
Y0020650
Y0018900
X0070000
Y0020650
Y0021900
Y0016250
X0067600
Y0013600
X0066150Y0013000
X0065200Y0014100
Y0015600
X0064050Y0015569
X0063950Y0013000
X0065100Y0011400
X0065750Y0010504
X0067600Y0011000
X0070000
Y0013600
Y0008150
X0067600
Y0005650
X0066050Y0006350
X0063850Y0005000
X0064600Y0003050
X0067600
X0070000Y0003088
Y0005650
X0063950Y0008850
X0065900Y0017500
X0066300Y0023100
X0067250
X0068150
X0069100
X0070000
Y0025500
X0069100
X0068150
X0067250
X0066350
X0065825Y0024900
Y0023900
X0065050Y0023500
Y0024425
X0064150Y0024620
Y0025400
Y0026150
X0064050Y0026800
X0064950
X0065175Y0027550
X0064425
X0065825Y0027025
Y0026125
X0065050Y0025700
X0063950Y0023600
X0064325Y0030450
X0065100
X0065050Y0031350
Y0032325
X0064050
Y0031350
X0065825Y0030975
Y0031900
X0066400Y0032500
X0067300
X0068200
X0069100
X0070000
Y0034900
X0069100
X0068200
X0067300
X0066400
X0066500Y0035850
X0067600Y0036200
Y0037550
X0066500Y0038200
X0065150Y0039200
Y0040650
X0065200Y0042350
X0067600
Y0040000
X0070000
Y0042350
Y0044800
X0067600
X0065200Y0044781
Y0047256
Y0049581
X0067600Y0049630
Y0047250
X0070000
Y0049630
Y0052300
X0067600
X0065200Y0052281
X0065050Y0054950
X0067600
X0070000
Y0037550
Y0036200
X0065150Y0037000
X0064200Y0035850
X0064700Y0034850
X0065050Y0033450
X0065825Y0033150
Y0034150
X0063600Y0033650
X0063400Y0032700
X0062717Y0033000
X0062839Y0032100
X0063250Y0031599
X0062650Y0031228
X0062800Y0030450
X0062100
X0063550
X0063675Y0027550
X0062950
X0063200Y0026800
X0062900Y0024525
X0063550Y0024300
X0062250
X0061600Y0024525
X0061400Y0023350
X0060000Y0024149
X0057850Y0023925
X0055850Y0024000
X0055700Y0024800
Y0025716
X0056000Y0026532
X0055450Y0027174
X0055450Y0028150
X0056350Y0027659
X0053900Y0027850
X0052950Y0027950
X0052000Y0028900
X0052850Y0029850
X0053150Y0030900
X0054550
X0054050Y0029500
X0055650Y0029850
X0056150Y0032580
X0057150Y0032875
X0056950Y0031825
X0056600Y0033950
X0055700Y0034050
X0054700Y0034000
X0055350Y0033300
X0053570Y0032580
X0053250Y0033900
X0053400Y0035275
X0054350Y0035100
X0054000Y0035950
X0053850Y0037000
X0052850
Y0036050
X0051160
X0050350Y0036250
X0050500Y0035275
X0051850
X0051520Y0033900
X0050450
X0049834Y0033250
X0049100Y0033350
X0048400
Y0034200
X0049100
X0049250Y0035150
X0048900Y0036400
X0047850Y0035400
X0047100Y0034350
X0046900Y0033150
Y0031825
Y0030407
X0047250Y0028900
X0046950Y0027550
Y0026300
X0045850
X0045750Y0024850
X0046950Y0025000
Y0023800
X0048350Y0023950
X0049000Y0023350
X0047775Y0023075
X0048350Y0025350
Y0026713
X0049600Y0026500
Y0024525
X0050650Y0023400
X0052450
X0051750Y0024550
X0052650Y0025600
X0053850Y0026257
Y0024577
X0054136Y0023200
X0050750Y0025600
Y0027700
X0051950Y0026900
X0051600Y0030900
X0051850Y0032550
X0050000Y0031675
X0048350Y0031825
X0049075Y0030700
X0048350Y0029700
Y0028200
X0049550Y0029000
X0050600Y0029975
X0045350Y0029800
X0045550Y0028500
X0044333Y0028250
X0045050Y0027250
X0044440Y0026156
X0043300Y0027300
X0042350Y0028250
X0043550Y0029450
X0044800Y0030800
X0045350Y0032050
X0043350Y0032200
X0044350Y0033300
X0045400Y0034450
X0045350Y0036000
Y0037602
X0045370Y0039300
X0045454Y0040893
X0046900Y0040700
Y0038800
X0048101Y0039300
X0048150Y0037750
X0046900Y0036900
X0050150Y0037600
X0051425Y0038100
Y0037000
Y0039325
X0051400Y0040700
X0051200Y0041550
X0050250Y0042400
X0048450
X0046475Y0042450
X0044600
X0044800Y0043900
X0042950Y0043600
X0043200Y0041900
X0043250Y0040791
X0043350Y0039450
Y0037602
X0042277Y0036050
X0042200Y0033750
X0043500Y0034780
X0040700Y0035050
X0040450Y0037183
X0040300Y0038050
X0040490Y0038950
X0039500Y0039300
X0041250Y0039800
X0041900Y0039000
X0040500Y0040775
X0041450Y0041900
X0041050Y0043200
X0039950Y0044050
X0038800Y0044950
X0037600Y0044000
X0036950Y0043100
X0036600Y0042250
X0035600Y0041150
X0035550Y0040111
X0034825Y0038900
X0034175Y0039275
X0034500Y0037450
X0033500Y0037150
X0034450Y0036150
X0035400Y0035256
X0036650
X0036300Y0036000
X0037361Y0036250
X0037350Y0037183
X0036550Y0037450
X0036877Y0039177
X0038800Y0037200
X0038900Y0035700
X0037750Y0034950
X0036800Y0033800
X0037998Y0032600
X0039200Y0033450
X0039150Y0031500
X0040671Y0032350
X0040650Y0029950
X0042150Y0030900
X0041600Y0025475
X0042650Y0024400
X0040800Y0023775
X0039300Y0023150
X0039250Y0025299
X0037925Y0026475
X0038234Y0028800
X0039400Y0027659
X0040450Y0026600
X0037077Y0029975
X0036050Y0030225
X0034700Y0029700
X0034550Y0027950
X0035675Y0028700
X0035400Y0031600
X0034425Y0031599
X0034550Y0032500
X0033350Y0033700
X0032300Y0033800
X0032404Y0034700
X0031375
X0031400Y0035700
X0030250Y0035825
Y0036850
X0029075Y0038025
X0028000Y0038050
X0027400Y0039100
X0025550Y0039000
X0024750Y0038950
X0025925Y0038425
X0026850Y0037500
X0027700Y0036575
X0026725Y0035700
X0026425Y0034875
X0027026Y0034377
X0028100Y0034275
X0027900Y0033150
X0026000Y0033850
X0024250Y0033200
X0024750Y0035450
X0024250Y0036900
X0025600
X0026100Y0040412
X0026660Y0040850
X0026200Y0041500
X0025350Y0042200
X0025050Y0040412
X0024050Y0041147
X0028400Y0042231
X0030100
X0031600Y0042250
X0031641Y0040800
X0031323Y0040100
X0030400Y0040300
X0029500Y0041150
X0030150Y0044300
X0029450Y0045550
X0031350
X0032350Y0046550
X0033500Y0047250
X0033100Y0048200
Y0049450
X0031600Y0049400
X0031350Y0048150
X0029850Y0047443
X0028100Y0048000
X0027800Y0049550
X0026550Y0049800
X0024500Y0049400
X0025400Y0048075
X0024950Y0045900
X0026500Y0046350
X0027200Y0046825
X0027950Y0046100
X0027850Y0044350
X0026550
X0032550
X0035400Y0044150
X0036050Y0045000
X0036345Y0047200
X0036600Y0048200
X0036550Y0049353
X0038100Y0049450
X0039150Y0048650
X0040600Y0048600
X0039950Y0049700
X0041600Y0049450
X0043750Y0049250
Y0048050
X0042500Y0046175
X0041475Y0047200
X0039900Y0047525
X0038300Y0047550
X0037576Y0046000
X0040500
X0041675Y0044850
X0043600Y0045050
X0045150Y0046000
X0047700
X0046605Y0047256
X0048800
X0048750Y0049700
X0047650Y0050550
X0048700Y0052281
X0047550Y0053300
X0047300Y0055000
X0049700Y0054950
X0052000
X0054410Y0055000
X0057000Y0054950
X0059650
X0062400
X0062550Y0052281
Y0049581
Y0047256
Y0044781
Y0042350
X0062740Y0040700
X0062577Y0039350
X0063450Y0038200
X0062717Y0036950
X0062400Y0035850
X0061250Y0035900
X0060750Y0035350
X0060050Y0035400
Y0036250
X0060450Y0037400
X0061100Y0038200
X0061500Y0036700
X0061100Y0034750
Y0033750
X0062100
Y0034850
X0063350
X0059850Y0033750
X0058400Y0033850
X0057500Y0034568
Y0035800
Y0037050
X0057550Y0038100
X0056150
X0055100
Y0037000
X0056600Y0036700
X0058450
X0059275Y0037050
X0059150Y0038100
X0059800Y0039400
X0060600Y0040700
X0058750
X0056650
X0055150
X0053750
X0052850
Y0039350
Y0038100
X0053850
X0054750Y0039350
X0057200
X0056850Y0042300
X0054350
X0052500
X0051250Y0043550
X0051900Y0044250
X0049350Y0043900
X0047150
X0050100Y0045600
X0051450Y0047256
Y0049581
Y0052281
X0054400
X0057150
X0059800
Y0049581
Y0047256
Y0044781
Y0042300
X0057150Y0044781
Y0047256
Y0049581
X0054500
X0054400Y0047256
Y0044781
X0055150Y0043800
X0048825Y0040700
X0049950Y0039300
X0039550Y0042180
X0033875Y0042050
X0034100Y0045900
X0034950Y0048150
X0034750Y0049800
X0034700Y0051850
X0033050Y0051846
X0031650Y0051850
X0030180
X0028100
X0027000Y0052650
X0025950Y0051850
Y0054900
X0028850
X0029650Y0053850
X0032250
X0031650Y0054950
X0034200
X0036750
X0037250Y0053800
X0036700Y0051900
X0039650
X0039800Y0053750
X0039350Y0054950
X0042050
X0042350Y0053750
X0044750Y0054950
X0044200Y0051900
X0046200
X0045900Y0049200
X0029600Y0049800
X0028825Y0035375
X0029925Y0034275
X0031225Y0033200
X0032825Y0031500
X0032450Y0029600
X0031600Y0027925
X0028700
X0029800Y0029575
X0029200Y0031500
X0025450Y0031550
X0026800Y0029650
X0025900Y0027850
X0057868Y0026400
X0058596Y0026830
X0058350Y0030664
X0059450Y0031228
X0023925Y0029650
X0023150Y0028450
X0020575Y0028425
Y0029625
X0017533Y0029500
X0016800Y0029650
Y0028650
X0016832Y0027400
X0015650Y0027850
X0015750Y0026350
X0014900Y0025500
X0013550Y0026150
X0014200Y0026950
X0014300Y0028100
X0014400Y0029150
Y0030150
X0012900Y0030100
X0012000Y0029250
X0011050Y0028250
X0010342Y0027700
X0009650Y0028600
X0009350Y0026350
X0009700Y0025487
X0011350Y0026156
X0012500Y0025500
X0013500Y0027650
X0013550Y0031450
X0015350Y0031500
X0016100Y0030407
X0017200Y0031500
X0018050Y0030676
X0018950Y0031500
X0019050Y0033850
X0018842Y0035400
X0017150Y0035500
X0015150Y0035400
X0015300Y0036300
Y0038500
X0015250Y0040600
X0015300Y0042873
Y0045440
X0012981Y0045450
X0012250Y0044200
Y0042050
Y0039800
Y0037375
X0012700Y0035400
X0012500Y0033850
X0013800Y0033200
X0015700Y0033850
X0017250Y0033150
X0020660Y0033200
X0022600Y0033850
X0022800Y0035450
X0021150
X0021100Y0037602
X0019750Y0036900
X0018650Y0037750
X0018600Y0039050
X0019875
X0019264Y0040200
X0018650Y0040975
X0020000Y0041122
X0020575Y0041800
X0020750Y0042864
X0020650Y0044017
X0021650Y0043225
X0021805Y0041223
X0022910Y0040412
X0022900Y0038900
X0022950Y0037200
X0023200Y0042180
X0023476Y0044119
X0022268Y0045338
X0021150Y0046455
X0021190Y0048750
X0019900Y0048600
X0020350Y0049630
X0018950Y0049450
X0017430
X0015900Y0049300
X0015100Y0049500
X0013350Y0049300
X0012550Y0048700
X0012460Y0047546
X0010044Y0047494
X0009524Y0048900
X0010050Y0049630
X0008100Y0049400
X0007950Y0050650
Y0051950
Y0053100
X0008000Y0054950
X0009900Y0054450
X0011800Y0054910
X0014340
X0016875
X0019501Y0054874
X0021850
X0023250Y0054450
X0023200Y0051950
X0022477Y0049400
X0022850Y0048100
X0018895Y0046217
X0019728Y0045084
X0017533Y0047546
X0014955
X0014900Y0051930
X0013800
X0012300Y0051936
X0010100
X0005450Y0051950
Y0050150
X0004650Y0049400
X0006352Y0049350
X0006850Y0048625
X0005750Y0048278
X0006300Y0047650
X0006900Y0046758
X0008100Y0046848
X0007800Y0046000
X0005950Y0045550
Y0044600
X0005957Y0043350
X0004000Y0043250
X0003100Y0042750
X0002250Y0043225
X0001400Y0042750
X0000650Y0043225
Y0044750
X0001450Y0045250
X0002250Y0044750
X0003100Y0045250
X0004050Y0044750
X0003700Y0046700
X0003543Y0048150
X0002090
X0000650
Y0049650
X0001650Y0049250
X0002791Y0049630
X0003050Y0051950
X0000650
Y0054950
X0002900
X0005350Y0054900
X0005150Y0047295
X0000650Y0046650
Y0041376
Y0038560
Y0035850
X0003300
X0004600Y0036500
X0004700Y0037375
X0005900
X0005950Y0038500
X0006000Y0039800
X0003900
X0003950Y0038300
X0002200Y0037400
Y0039800
X0003700Y0041350
X0009500Y0040750
Y0038500
Y0036200
X0010200Y0035400
X0010300Y0033850
X0010679Y0032350
X0009150Y0032400
X0007450Y0032200
X0006400Y0032800
X0006650Y0033850
X0005900
Y0034900
X0006500Y0035400
X0008300
X0008400Y0033850
X0008100Y0030650
Y0029700
X0006720Y0030407
X0006400Y0031300
X0004650
X0005350Y0029550
X0006600Y0028253
X0005850Y0027300
X0005350Y0025800
X0007450Y0025250
X0006650Y0024050
X0007000Y0022900
X0004950Y0022950
X0002650
Y0025716
Y0028250
Y0030800
Y0033400
X0004650Y0033750
X0000650Y0032900
X0000700Y0029850
X0000750Y0026850
Y0023950
X0008050Y0027500
X0017850Y0028400
X0022050Y0031500
X0018888Y0051930
X0016330Y0051900
X0010650Y0045450
X0009450Y0043950
T03
X0007850Y0009250
Y0010100
X0009600
X0010400
X0010373Y0011200
X0009650
Y0011975
X0010373Y0011950
X0012192Y0011400
X0013650
X0013800Y0012650
X0012750
X0014550Y0012050
X0015173Y0011400
X0016494
X0015850Y0012050
X0017152
X0018300Y0012200
X0019000Y0011700
X0022375Y0011825
X0023400Y0011800
X0023025Y0014938
X0023425Y0016650
Y0017589
X0021250Y0017044
X0021750Y0015950
X0020650Y0015900
X0019950Y0015900
X0019375Y0017319
X0018850Y0017844
X0019375Y0018369
X0018325
Y0017319
X0017500Y0015800
X0016850Y0013850
X0015450Y0019386
X0015150Y0020000
X0016125Y0021300
Y0022378
X0019478
X0021500Y0021300
X0022350Y0007800
Y0007000
X0022500Y0001000
X0021750
X0019550Y0001550
X0018900Y0001000
X0009650Y0009250
X0008800
X0025500Y0008300
Y0007500
X0026500Y0008050
X0027350Y0008050
X0024400Y0011800
X0024450Y0013675
X0025325Y0014100
X0028100Y0014850
X0027900Y0016450
X0029350Y0016600
X0030850
X0032650
X0034375
X0036450Y0016200
X0036250Y0014800
X0037700Y0015325
Y0019000
Y0019750
X0035850Y0019800
X0036450Y0020850
X0035800Y0021750
X0036450Y0018650
X0035850Y0017844
X0033750Y0014650
X0031800
X0029850
X0068200Y0024620
Y0033380
X0061150Y0031500
X0061100Y0029600
X0060250
X0059400
Y0028750
X0060250
Y0027900
X0061100
Y0028750
X0059400Y0027900
X0057680Y0027156
X0054700Y0026275
X0057150Y0023200
X0060675Y0025450
X0043100Y0023275
X0036450Y0022800
X0035750Y0023800
X0036450Y0024700
X0036000Y0025650
X0034300Y0025850
X0032600Y0025917
X0030960Y0025850
X0029150
X0028050
Y0024230
X0029200Y0024050
X0030800
X0032600
X0034175
X0037636Y0040225
Y0041275
X0038686
Y0040225
X0038161Y0040750
X0038950Y0042925
X0018500Y0036300
X0018250Y0024800
X0017400
X0019100
X0018750Y0024100
X0020100Y0024448
X0020150Y0023550
X0022200Y0026050
X0013350Y0024300
Y0023550
Y0022694
X0009250Y0042900
Y0045100
X0005950Y0042575
T04
X0024900Y0020300
X0026100
T05
X0002200Y0041350
Y0046650
T06
X0010500Y0002350
Y0004890
X0013040
X0015580
X0018120
X0020660
X0023200
Y0002350
X0020660
X0018120
X0015580
X0013040
X0025740
Y0004890
X0028280
Y0002350
X0033500
Y0004890
X0036040
X0038580
X0041120
X0043660
X0046200
Y0002350
X0043660
X0041120
X0038580
X0036040
X0042590Y0018100
X0065000Y0004890
X0046200Y0050610
Y0053150
X0043660
X0041120
X0038580
X0036040
X0033500
X0030960
X0028420
Y0050610
X0030960
X0033500
X0036040
X0038580
X0041120
X0043660
X0024500
Y0053150
X0021960
X0019420
X0016880
X0014340
X0011800
X0009260
X0006720
X0004180
X0001640
Y0050610
X0004180
X0006720
X0009260
X0011800
X0014340
X0016880
X0019420
X0021960
X0020690Y0055690
X0018150
X0015610
X0013070
X0010530
X0023230
T07
X0006400Y0009600
Y0011600
X0040050Y0018100
X0008342Y0023994
X0021190Y0039645
M30
