%FSAX43Y43*%
%MOMM*%
G71*
G01*
G75*
G04 Layer_Physical_Order=3*
G04 Layer_Color=1462238*
%ADD10R,0.350X0.400*%
G04:AMPARAMS|DCode=11|XSize=2.4mm|YSize=2.4mm|CornerRadius=0.06mm|HoleSize=0mm|Usage=FLASHONLY|Rotation=270.000|XOffset=0mm|YOffset=0mm|HoleType=Round|Shape=RoundedRectangle|*
%AMROUNDEDRECTD11*
21,1,2.400,2.280,0,0,270.0*
21,1,2.280,2.400,0,0,270.0*
1,1,0.120,-1.140,-1.140*
1,1,0.120,-1.140,1.140*
1,1,0.120,1.140,1.140*
1,1,0.120,1.140,-1.140*
%
%ADD11ROUNDEDRECTD11*%
%ADD12O,0.300X0.800*%
%ADD13O,0.800X0.300*%
%ADD14R,0.500X0.500*%
%ADD15R,0.850X0.400*%
%ADD16R,0.650X0.650*%
G04:AMPARAMS|DCode=17|XSize=0.65mm|YSize=3.6mm|CornerRadius=0.033mm|HoleSize=0mm|Usage=FLASHONLY|Rotation=270.000|XOffset=0mm|YOffset=0mm|HoleType=Round|Shape=RoundedRectangle|*
%AMROUNDEDRECTD17*
21,1,0.650,3.535,0,0,270.0*
21,1,0.585,3.600,0,0,270.0*
1,1,0.065,-1.768,-0.292*
1,1,0.065,-1.768,0.292*
1,1,0.065,1.768,0.292*
1,1,0.065,1.768,-0.292*
%
%ADD17ROUNDEDRECTD17*%
%ADD18R,1.300X1.300*%
%ADD19R,5.309X2.007*%
%ADD20R,2.007X5.309*%
%ADD21R,0.650X0.650*%
%ADD22O,0.220X0.800*%
%ADD23O,0.800X0.220*%
G04:AMPARAMS|DCode=24|XSize=1.6mm|YSize=1.6mm|CornerRadius=0.04mm|HoleSize=0mm|Usage=FLASHONLY|Rotation=180.000|XOffset=0mm|YOffset=0mm|HoleType=Round|Shape=RoundedRectangle|*
%AMROUNDEDRECTD24*
21,1,1.600,1.520,0,0,180.0*
21,1,1.520,1.600,0,0,180.0*
1,1,0.080,-0.760,0.760*
1,1,0.080,0.760,0.760*
1,1,0.080,0.760,-0.760*
1,1,0.080,-0.760,-0.760*
%
%ADD24ROUNDEDRECTD24*%
G04:AMPARAMS|DCode=25|XSize=2.3mm|YSize=0.8mm|CornerRadius=0.08mm|HoleSize=0mm|Usage=FLASHONLY|Rotation=0.000|XOffset=0mm|YOffset=0mm|HoleType=Round|Shape=RoundedRectangle|*
%AMROUNDEDRECTD25*
21,1,2.300,0.640,0,0,0.0*
21,1,2.140,0.800,0,0,0.0*
1,1,0.160,1.070,-0.320*
1,1,0.160,-1.070,-0.320*
1,1,0.160,-1.070,0.320*
1,1,0.160,1.070,0.320*
%
%ADD25ROUNDEDRECTD25*%
%ADD26R,1.300X1.600*%
%ADD27R,0.850X0.750*%
%ADD28R,1.600X1.800*%
%ADD29R,1.300X1.300*%
%ADD30R,0.900X0.900*%
%ADD31R,0.900X0.900*%
%ADD32R,1.300X1.600*%
%ADD33R,2.380X1.650*%
%ADD34O,0.250X0.600*%
%ADD35R,1.000X0.800*%
%ADD36O,0.900X0.300*%
%ADD37O,0.300X0.900*%
%ADD38R,0.600X0.800*%
%ADD39R,0.300X0.500*%
%ADD40R,0.550X0.550*%
%ADD41R,4.200X1.905*%
%ADD42C,0.600*%
%ADD43C,0.400*%
%ADD44C,0.250*%
%ADD45C,1.000*%
%ADD46C,0.650*%
%ADD47C,0.200*%
%ADD48C,0.257*%
%ADD49C,0.800*%
%ADD50C,0.300*%
%ADD51C,0.500*%
%ADD52C,1.200*%
%ADD53C,1.300*%
%ADD54C,0.900*%
%ADD55C,0.350*%
%ADD56C,0.700*%
%ADD57C,0.150*%
%ADD58C,0.050*%
%ADD59C,1.600*%
%ADD60C,1.500*%
%ADD61R,1.500X1.500*%
G04:AMPARAMS|DCode=62|XSize=2.2mm|YSize=3.6mm|CornerRadius=0.11mm|HoleSize=0mm|Usage=FLASHONLY|Rotation=270.000|XOffset=0mm|YOffset=0mm|HoleType=Round|Shape=RoundedRectangle|*
%AMROUNDEDRECTD62*
21,1,2.200,3.380,0,0,270.0*
21,1,1.980,3.600,0,0,270.0*
1,1,0.220,-1.690,-0.990*
1,1,0.220,-1.690,0.990*
1,1,0.220,1.690,0.990*
1,1,0.220,1.690,-0.990*
%
%ADD62ROUNDEDRECTD62*%
G04:AMPARAMS|DCode=63|XSize=1.6mm|YSize=1.6mm|CornerRadius=0.08mm|HoleSize=0mm|Usage=FLASHONLY|Rotation=270.000|XOffset=0mm|YOffset=0mm|HoleType=Round|Shape=RoundedRectangle|*
%AMROUNDEDRECTD63*
21,1,1.600,1.440,0,0,270.0*
21,1,1.440,1.600,0,0,270.0*
1,1,0.160,-0.720,-0.720*
1,1,0.160,-0.720,0.720*
1,1,0.160,0.720,0.720*
1,1,0.160,0.720,-0.720*
%
%ADD63ROUNDEDRECTD63*%
%ADD64C,1.700*%
G04:AMPARAMS|DCode=65|XSize=1.7mm|YSize=1.7mm|CornerRadius=0.17mm|HoleSize=0mm|Usage=FLASHONLY|Rotation=0.000|XOffset=0mm|YOffset=0mm|HoleType=Round|Shape=RoundedRectangle|*
%AMROUNDEDRECTD65*
21,1,1.700,1.360,0,0,0.0*
21,1,1.360,1.700,0,0,0.0*
1,1,0.340,0.680,-0.680*
1,1,0.340,-0.680,-0.680*
1,1,0.340,-0.680,0.680*
1,1,0.340,0.680,0.680*
%
%ADD65ROUNDEDRECTD65*%
%ADD66R,4.200X2.413*%
%ADD67C,0.400*%
%ADD68C,0.500*%
%ADD69C,0.600*%
%ADD70C,0.660*%
G36*
X0019300Y0011350D02*
X0018000D01*
Y0012650D01*
X0019300D01*
Y0011350D01*
D02*
G37*
G36*
X0026000Y0006350D02*
X0026950Y0005400D01*
Y0001900D01*
X0025550Y0000500D01*
X0021300D01*
Y0001550D01*
X0021650Y0001900D01*
Y0005075D01*
X0022550Y0005975D01*
X0024350D01*
X0024600Y0006225D01*
Y0008750D01*
X0026000D01*
Y0006350D01*
D02*
G37*
G36*
X0015550Y0020300D02*
Y0019850D01*
X0015850Y0019550D01*
Y0019050D01*
X0015550Y0018750D01*
X0014750Y0019550D01*
Y0020400D01*
X0015450D01*
X0015550Y0020300D01*
D02*
G37*
G36*
X0038200Y0018800D02*
X0038050Y0018650D01*
X0037318D01*
X0037200Y0018768D01*
Y0020050D01*
X0038200D01*
Y0018800D01*
D02*
G37*
%LPC*%
G36*
X0023200Y0003251D02*
X0023121Y0003247D01*
X0023044Y0003237D01*
X0022967Y0003220D01*
X0022892Y0003197D01*
X0022819Y0003166D01*
X0022750Y0003130D01*
X0022683Y0003088D01*
X0022621Y0003040D01*
X0022563Y0002987D01*
X0022510Y0002929D01*
X0022462Y0002867D01*
X0022420Y0002800D01*
X0022384Y0002731D01*
X0022353Y0002658D01*
X0022330Y0002583D01*
X0022313Y0002506D01*
X0022303Y0002429D01*
X0022299Y0002350D01*
X0022303Y0002271D01*
X0022313Y0002194D01*
X0022330Y0002117D01*
X0022353Y0002042D01*
X0022384Y0001969D01*
X0022420Y0001900D01*
X0022462Y0001833D01*
X0022510Y0001771D01*
X0022563Y0001713D01*
X0022621Y0001660D01*
X0022683Y0001612D01*
X0022750Y0001570D01*
X0022819Y0001534D01*
X0022892Y0001503D01*
X0022967Y0001480D01*
X0023044Y0001463D01*
X0023121Y0001453D01*
X0023200Y0001449D01*
X0023279Y0001453D01*
X0023356Y0001463D01*
X0023433Y0001480D01*
X0023508Y0001503D01*
X0023581Y0001534D01*
X0023650Y0001570D01*
X0023717Y0001612D01*
X0023779Y0001660D01*
X0023837Y0001713D01*
X0023890Y0001771D01*
X0023938Y0001833D01*
X0023980Y0001900D01*
X0024016Y0001969D01*
X0024047Y0002042D01*
X0024070Y0002117D01*
X0024087Y0002194D01*
X0024097Y0002271D01*
X0024101Y0002350D01*
X0024097Y0002429D01*
X0024087Y0002506D01*
X0024070Y0002583D01*
X0024047Y0002658D01*
X0024016Y0002731D01*
X0023980Y0002800D01*
X0023938Y0002867D01*
X0023890Y0002929D01*
X0023837Y0002987D01*
X0023779Y0003040D01*
X0023717Y0003088D01*
X0023650Y0003130D01*
X0023581Y0003166D01*
X0023508Y0003197D01*
X0023433Y0003220D01*
X0023356Y0003237D01*
X0023279Y0003247D01*
X0023200Y0003251D01*
D02*
G37*
G36*
X0025740D02*
X0025661Y0003247D01*
X0025584Y0003237D01*
X0025507Y0003220D01*
X0025432Y0003197D01*
X0025359Y0003166D01*
X0025290Y0003130D01*
X0025223Y0003088D01*
X0025161Y0003040D01*
X0025103Y0002987D01*
X0025050Y0002929D01*
X0025002Y0002867D01*
X0024960Y0002800D01*
X0024924Y0002731D01*
X0024893Y0002658D01*
X0024870Y0002583D01*
X0024853Y0002506D01*
X0024843Y0002429D01*
X0024839Y0002350D01*
X0024843Y0002271D01*
X0024853Y0002194D01*
X0024870Y0002117D01*
X0024893Y0002042D01*
X0024924Y0001969D01*
X0024960Y0001900D01*
X0025002Y0001833D01*
X0025050Y0001771D01*
X0025103Y0001713D01*
X0025161Y0001660D01*
X0025223Y0001612D01*
X0025290Y0001570D01*
X0025359Y0001534D01*
X0025432Y0001503D01*
X0025507Y0001480D01*
X0025584Y0001463D01*
X0025661Y0001453D01*
X0025740Y0001449D01*
X0025819Y0001453D01*
X0025896Y0001463D01*
X0025973Y0001480D01*
X0026048Y0001503D01*
X0026121Y0001534D01*
X0026190Y0001570D01*
X0026257Y0001612D01*
X0026319Y0001660D01*
X0026377Y0001713D01*
X0026430Y0001771D01*
X0026478Y0001833D01*
X0026520Y0001900D01*
X0026556Y0001969D01*
X0026587Y0002042D01*
X0026610Y0002117D01*
X0026627Y0002194D01*
X0026637Y0002271D01*
X0026641Y0002350D01*
X0026637Y0002429D01*
X0026627Y0002506D01*
X0026610Y0002583D01*
X0026587Y0002658D01*
X0026556Y0002731D01*
X0026520Y0002800D01*
X0026478Y0002867D01*
X0026430Y0002929D01*
X0026377Y0002987D01*
X0026319Y0003040D01*
X0026257Y0003088D01*
X0026190Y0003130D01*
X0026121Y0003166D01*
X0026048Y0003197D01*
X0025973Y0003220D01*
X0025896Y0003237D01*
X0025819Y0003247D01*
X0025740Y0003251D01*
D02*
G37*
G36*
Y0005791D02*
X0025661Y0005787D01*
X0025584Y0005777D01*
X0025507Y0005760D01*
X0025432Y0005737D01*
X0025359Y0005706D01*
X0025290Y0005670D01*
X0025223Y0005628D01*
X0025161Y0005580D01*
X0025103Y0005527D01*
X0025050Y0005469D01*
X0025002Y0005407D01*
X0024960Y0005340D01*
X0024924Y0005271D01*
X0024893Y0005198D01*
X0024870Y0005123D01*
X0024853Y0005046D01*
X0024843Y0004969D01*
X0024839Y0004890D01*
X0024843Y0004811D01*
X0024853Y0004734D01*
X0024870Y0004657D01*
X0024893Y0004582D01*
X0024924Y0004509D01*
X0024960Y0004440D01*
X0025002Y0004373D01*
X0025050Y0004311D01*
X0025103Y0004253D01*
X0025161Y0004200D01*
X0025223Y0004152D01*
X0025290Y0004110D01*
X0025359Y0004074D01*
X0025432Y0004043D01*
X0025507Y0004020D01*
X0025584Y0004003D01*
X0025661Y0003993D01*
X0025740Y0003989D01*
X0025819Y0003993D01*
X0025896Y0004003D01*
X0025973Y0004020D01*
X0026048Y0004043D01*
X0026121Y0004074D01*
X0026190Y0004110D01*
X0026257Y0004152D01*
X0026319Y0004200D01*
X0026377Y0004253D01*
X0026430Y0004311D01*
X0026478Y0004373D01*
X0026520Y0004440D01*
X0026556Y0004509D01*
X0026587Y0004582D01*
X0026610Y0004657D01*
X0026627Y0004734D01*
X0026637Y0004811D01*
X0026641Y0004890D01*
X0026637Y0004969D01*
X0026627Y0005046D01*
X0026610Y0005123D01*
X0026587Y0005198D01*
X0026556Y0005271D01*
X0026520Y0005340D01*
X0026478Y0005407D01*
X0026430Y0005469D01*
X0026377Y0005527D01*
X0026319Y0005580D01*
X0026257Y0005628D01*
X0026190Y0005670D01*
X0026121Y0005706D01*
X0026048Y0005737D01*
X0025973Y0005760D01*
X0025896Y0005777D01*
X0025819Y0005787D01*
X0025740Y0005791D01*
D02*
G37*
G36*
X0023200D02*
X0023121Y0005787D01*
X0023044Y0005777D01*
X0022967Y0005760D01*
X0022892Y0005737D01*
X0022819Y0005706D01*
X0022750Y0005670D01*
X0022683Y0005628D01*
X0022621Y0005580D01*
X0022563Y0005527D01*
X0022510Y0005469D01*
X0022462Y0005407D01*
X0022420Y0005340D01*
X0022384Y0005271D01*
X0022353Y0005198D01*
X0022330Y0005123D01*
X0022313Y0005046D01*
X0022303Y0004969D01*
X0022299Y0004890D01*
X0022303Y0004811D01*
X0022313Y0004734D01*
X0022330Y0004657D01*
X0022353Y0004582D01*
X0022384Y0004509D01*
X0022420Y0004440D01*
X0022462Y0004373D01*
X0022510Y0004311D01*
X0022563Y0004253D01*
X0022621Y0004200D01*
X0022683Y0004152D01*
X0022750Y0004110D01*
X0022819Y0004074D01*
X0022892Y0004043D01*
X0022967Y0004020D01*
X0023044Y0004003D01*
X0023121Y0003993D01*
X0023200Y0003989D01*
X0023279Y0003993D01*
X0023356Y0004003D01*
X0023433Y0004020D01*
X0023508Y0004043D01*
X0023581Y0004074D01*
X0023650Y0004110D01*
X0023717Y0004152D01*
X0023779Y0004200D01*
X0023837Y0004253D01*
X0023890Y0004311D01*
X0023938Y0004373D01*
X0023980Y0004440D01*
X0024016Y0004509D01*
X0024047Y0004582D01*
X0024070Y0004657D01*
X0024087Y0004734D01*
X0024097Y0004811D01*
X0024101Y0004890D01*
X0024097Y0004969D01*
X0024087Y0005046D01*
X0024070Y0005123D01*
X0024047Y0005198D01*
X0024016Y0005271D01*
X0023980Y0005340D01*
X0023938Y0005407D01*
X0023890Y0005469D01*
X0023837Y0005527D01*
X0023779Y0005580D01*
X0023717Y0005628D01*
X0023650Y0005670D01*
X0023581Y0005706D01*
X0023508Y0005737D01*
X0023433Y0005760D01*
X0023356Y0005777D01*
X0023279Y0005787D01*
X0023200Y0005791D01*
D02*
G37*
%LPD*%
D43*
X0005825Y0006650D02*
X0014400D01*
X0004550Y0005375D02*
X0005825Y0006650D01*
X0004550Y0005050D02*
Y0005375D01*
X0014400Y0006650D02*
X0018650Y0010900D01*
X0020046Y0024448D02*
X0020100D01*
X0018450Y0022852D02*
X0020046Y0024448D01*
X0018450Y0022000D02*
Y0022852D01*
Y0022000D02*
X0019150Y0021300D01*
X0021250Y0019650D02*
Y0020050D01*
X0020000Y0021300D02*
X0021250Y0020050D01*
X0019150Y0021300D02*
X0020000D01*
X0020300Y0019650D02*
X0021250D01*
Y0017044D02*
Y0019650D01*
Y0016500D02*
Y0017044D01*
X0020650Y0015900D02*
X0021250Y0016500D01*
X0034500Y0037450D02*
X0036550D01*
X0050300Y0034650D02*
X0053900D01*
X0049834Y0034183D02*
X0050300Y0034650D01*
X0053900Y0034650D02*
X0054350Y0035100D01*
X0049834Y0033250D02*
Y0034183D01*
X0018650Y0010900D02*
Y0013044D01*
D44*
X0015823Y0020450D02*
X0019525D01*
X0014673Y0021600D02*
X0015823Y0020450D01*
X0013050Y0021600D02*
X0014673D01*
X0020650Y0015900D02*
X0020650Y0015900D01*
D45*
X0026000Y0026950D02*
X0036050D01*
X0037700Y0025300D01*
Y0019750D02*
Y0025300D01*
X0021428Y0022378D02*
X0026000Y0026950D01*
X0019478Y0022378D02*
X0021428D01*
D46*
X0054700Y0023875D02*
Y0026275D01*
Y0023875D02*
X0055375Y0023200D01*
X0057150D01*
X0060076D02*
X0060725Y0023849D01*
X0057150Y0023200D02*
X0060076D01*
X0060725Y0023849D02*
Y0025400D01*
X0060675Y0025450D02*
X0060725Y0025400D01*
D47*
X0036050Y0030225D02*
X0036050D01*
X0040000Y0026275D01*
Y0020150D02*
Y0026275D01*
Y0020150D02*
X0041350Y0018800D01*
Y0017359D02*
Y0018800D01*
X0039950Y0015959D02*
X0041350Y0017359D01*
X0039950Y0004350D02*
Y0015959D01*
X0026985Y0040875D02*
X0051160Y0016700D01*
X0021525Y0047025D02*
X0051450Y0017100D01*
X0021654Y0047546D02*
X0051700Y0017500D01*
X0021796Y0048046D02*
X0051943Y0017900D01*
X0058450D01*
X0051700Y0017500D02*
X0058600D01*
X0017533Y0047546D02*
X0021654D01*
X0051450Y0017100D02*
X0058809D01*
X0012981Y0047025D02*
X0021525D01*
X0051160Y0016700D02*
X0058970D01*
X0026750Y0040875D02*
X0026985D01*
X0005250Y0034400D02*
X0005275Y0034375D01*
X0015450Y0048046D02*
X0021796D01*
X0012460Y0047546D02*
X0012981Y0047025D01*
X0031323Y0040100D02*
X0031335Y0040111D01*
X0035550D01*
X0006850Y0047443D02*
Y0048625D01*
X0005250Y0045843D02*
X0006850Y0047443D01*
X0005250Y0038525D02*
Y0045843D01*
Y0038525D02*
X0005275Y0038500D01*
X0005950D01*
X0035600Y0041150D02*
X0036877Y0039873D01*
Y0039177D02*
Y0039873D01*
X0005900Y0030500D02*
Y0033850D01*
Y0034900D02*
Y0037375D01*
X0005250Y0034400D02*
Y0038525D01*
Y0030450D02*
Y0034400D01*
X0004700Y0037375D02*
Y0046050D01*
X0006300Y0047650D01*
X0005900Y0030500D02*
X0007800Y0028600D01*
X0009650D01*
X0005250Y0030450D02*
X0007650Y0028050D01*
X0010000D01*
X0005900Y0034900D02*
X0005925Y0034875D01*
X0026425D01*
X0027048Y0034375D02*
X0027050Y0034377D01*
X0050900Y0037550D02*
X0059482D01*
X0047775Y0034425D02*
X0050900Y0037550D01*
X0047775Y0023075D02*
Y0034425D01*
X0042425Y0004403D02*
Y0009050D01*
X0036040Y0004890D02*
X0037055Y0003875D01*
X0039475D01*
X0039950Y0004350D01*
X0033500Y0004890D02*
X0034890Y0003500D01*
X0041522D02*
X0042425Y0004403D01*
X0034890Y0003500D02*
X0041522D01*
X0042425Y0009050D02*
X0047550Y0014175D01*
Y0018875D01*
X0047775Y0019100D01*
X0058600Y0017500D02*
X0062350Y0021250D01*
X0058809Y0017100D02*
X0062740Y0021031D01*
X0058970Y0016700D02*
X0063110Y0020840D01*
X0058450Y0017900D02*
X0061950Y0021400D01*
X0063110Y0020840D02*
Y0023560D01*
X0063550Y0024000D01*
Y0024300D01*
X0061600Y0023950D02*
Y0024525D01*
Y0023950D02*
X0061950Y0023600D01*
Y0021400D02*
Y0023600D01*
X0062740Y0021031D02*
Y0023765D01*
X0062900Y0023925D01*
Y0024525D01*
X0062250Y0023850D02*
Y0024300D01*
Y0023850D02*
X0062350Y0023750D01*
Y0021250D02*
Y0023750D01*
X0014950Y0047546D02*
X0015450Y0048046D01*
X0005275Y0034375D02*
X0027048D01*
X0010000Y0028050D02*
X0010350Y0027700D01*
X0059482Y0037550D02*
X0060747Y0036285D01*
Y0035353D02*
X0060750Y0035350D01*
X0060747Y0035353D02*
Y0036285D01*
D48*
X0026187Y0039000D02*
X0038556Y0026631D01*
Y0004915D02*
Y0026631D01*
Y0004915D02*
X0038580Y0004890D01*
Y0004875D02*
Y0004890D01*
X0025550Y0039000D02*
X0026187D01*
D49*
X0015150Y0019700D02*
Y0020000D01*
X0018700Y0012450D02*
Y0013300D01*
X0016650Y0015350D02*
X0018700Y0013300D01*
X0016650Y0015350D02*
Y0018200D01*
X0019950Y0015900D02*
X0020650D01*
X0015150Y0019700D02*
X0016650Y0018200D01*
D50*
X0024909Y0017109D02*
Y0018341D01*
X0023450Y0015650D02*
X0024909Y0017109D01*
X0025500Y0007500D02*
Y0008300D01*
Y0006135D02*
Y0007500D01*
X0022044Y0002894D02*
X0022750Y0003600D01*
X0022044Y0001294D02*
Y0002894D01*
X0021750Y0001000D02*
X0022044Y0001294D01*
X0024690Y0004390D02*
Y0005325D01*
X0023900Y0003600D02*
X0024690Y0004390D01*
X0022750Y0003600D02*
X0023900D01*
X0024690Y0005325D02*
X0025500Y0006135D01*
D51*
X0058378Y0031878D02*
X0060747D01*
X0057680Y0031180D02*
X0058378Y0031878D01*
X0057680Y0027156D02*
Y0031180D01*
X0060747Y0031878D02*
X0061125Y0031500D01*
X0061150D01*
D58*
X0000000Y0058000D02*
X0070500D01*
Y0000000D02*
Y0058000D01*
X0000000Y0000000D02*
X0070500D01*
X0000000D02*
Y0058000D01*
D60*
X0038580Y0004890D02*
D03*
X0036040D02*
D03*
D61*
X0033500D02*
D03*
D62*
X0002200Y0046650D02*
D03*
Y0041350D02*
D03*
D66*
X0068200Y0024620D02*
D03*
Y0033380D02*
D03*
D68*
X0036050Y0030225D02*
D03*
X0026425Y0034875D02*
D03*
X0027026Y0034377D02*
D03*
X0031323Y0040100D02*
D03*
X0014955Y0047546D02*
D03*
X0000650Y0041376D02*
D03*
X0003700Y0041350D02*
D03*
X0017533Y0047546D02*
D03*
X0012460D02*
D03*
X0006300Y0047650D02*
D03*
X0006850Y0048625D02*
D03*
X0003700Y0046700D02*
D03*
X0000650Y0046650D02*
D03*
X0035550Y0040111D02*
D03*
X0005900Y0037375D02*
D03*
X0005950Y0038500D02*
D03*
X0035600Y0041150D02*
D03*
X0036877Y0039177D02*
D03*
X0023450Y0015650D02*
D03*
X0004550Y0005050D02*
D03*
X0024909Y0018341D02*
D03*
X0020300Y0019650D02*
D03*
X0019525Y0020450D02*
D03*
X0013050Y0021600D02*
D03*
X0054350Y0035100D02*
D03*
X0049834Y0033250D02*
D03*
X0005900Y0033850D02*
D03*
Y0034900D02*
D03*
X0004700Y0037375D02*
D03*
X0036550Y0037450D02*
D03*
X0034500D02*
D03*
X0025550Y0039000D02*
D03*
X0010342Y0027700D02*
D03*
X0009650Y0028600D02*
D03*
X0026660Y0040850D02*
D03*
X0070000Y0025500D02*
D03*
X0069100D02*
D03*
X0068150D02*
D03*
X0067250D02*
D03*
X0066350D02*
D03*
X0070000Y0032500D02*
D03*
X0069100D02*
D03*
X0068200D02*
D03*
X0067300D02*
D03*
X0066400D02*
D03*
X0047775Y0023075D02*
D03*
Y0019100D02*
D03*
X0061600Y0024525D02*
D03*
X0062250Y0024300D02*
D03*
X0062900Y0024525D02*
D03*
X0063550Y0024300D02*
D03*
X0060750Y0035350D02*
D03*
D69*
X0054700Y0026275D02*
D03*
X0057150Y0023200D02*
D03*
X0015150Y0020000D02*
D03*
X0015450Y0019386D02*
D03*
X0019000Y0011700D02*
D03*
X0018300Y0012200D02*
D03*
X0037700Y0019000D02*
D03*
Y0019750D02*
D03*
X0019478Y0022378D02*
D03*
X0021250Y0017044D02*
D03*
X0020100Y0024448D02*
D03*
X0020650Y0015900D02*
D03*
X0019950Y0015900D02*
D03*
X0025500Y0007500D02*
D03*
X0022500Y0001000D02*
D03*
X0021750D02*
D03*
X0025500Y0008300D02*
D03*
X0061150Y0031500D02*
D03*
X0057680Y0027156D02*
D03*
X0060675Y0025450D02*
D03*
M02*
