%FSAX43Y43*%
%MOMM*%
G71*
G01*
G75*
G04 Layer_Color=8517375*
%ADD10R,0.350X0.400*%
G04:AMPARAMS|DCode=11|XSize=2.4mm|YSize=2.4mm|CornerRadius=0.06mm|HoleSize=0mm|Usage=FLASHONLY|Rotation=270.000|XOffset=0mm|YOffset=0mm|HoleType=Round|Shape=RoundedRectangle|*
%AMROUNDEDRECTD11*
21,1,2.400,2.280,0,0,270.0*
21,1,2.280,2.400,0,0,270.0*
1,1,0.120,-1.140,-1.140*
1,1,0.120,-1.140,1.140*
1,1,0.120,1.140,1.140*
1,1,0.120,1.140,-1.140*
%
%ADD11ROUNDEDRECTD11*%
%ADD12O,0.300X0.800*%
%ADD13O,0.800X0.300*%
%ADD14R,0.500X0.500*%
%ADD15R,0.850X0.400*%
%ADD16R,0.650X0.650*%
G04:AMPARAMS|DCode=17|XSize=0.65mm|YSize=3.6mm|CornerRadius=0.033mm|HoleSize=0mm|Usage=FLASHONLY|Rotation=270.000|XOffset=0mm|YOffset=0mm|HoleType=Round|Shape=RoundedRectangle|*
%AMROUNDEDRECTD17*
21,1,0.650,3.535,0,0,270.0*
21,1,0.585,3.600,0,0,270.0*
1,1,0.065,-1.768,-0.292*
1,1,0.065,-1.768,0.292*
1,1,0.065,1.768,0.292*
1,1,0.065,1.768,-0.292*
%
%ADD17ROUNDEDRECTD17*%
%ADD18R,1.300X1.300*%
%ADD19R,5.309X2.007*%
%ADD20R,2.007X5.309*%
%ADD21R,0.650X0.650*%
%ADD22O,0.220X0.800*%
%ADD23O,0.800X0.220*%
G04:AMPARAMS|DCode=24|XSize=1.6mm|YSize=1.6mm|CornerRadius=0.04mm|HoleSize=0mm|Usage=FLASHONLY|Rotation=180.000|XOffset=0mm|YOffset=0mm|HoleType=Round|Shape=RoundedRectangle|*
%AMROUNDEDRECTD24*
21,1,1.600,1.520,0,0,180.0*
21,1,1.520,1.600,0,0,180.0*
1,1,0.080,-0.760,0.760*
1,1,0.080,0.760,0.760*
1,1,0.080,0.760,-0.760*
1,1,0.080,-0.760,-0.760*
%
%ADD24ROUNDEDRECTD24*%
G04:AMPARAMS|DCode=25|XSize=2.3mm|YSize=0.8mm|CornerRadius=0.08mm|HoleSize=0mm|Usage=FLASHONLY|Rotation=0.000|XOffset=0mm|YOffset=0mm|HoleType=Round|Shape=RoundedRectangle|*
%AMROUNDEDRECTD25*
21,1,2.300,0.640,0,0,0.0*
21,1,2.140,0.800,0,0,0.0*
1,1,0.160,1.070,-0.320*
1,1,0.160,-1.070,-0.320*
1,1,0.160,-1.070,0.320*
1,1,0.160,1.070,0.320*
%
%ADD25ROUNDEDRECTD25*%
%ADD26R,1.300X1.600*%
%ADD27R,0.850X0.750*%
%ADD28R,1.600X1.800*%
%ADD29R,1.300X1.300*%
%ADD30R,0.900X0.900*%
%ADD31R,0.900X0.900*%
%ADD32R,1.300X1.600*%
%ADD33R,2.380X1.650*%
%ADD34O,0.250X0.600*%
%ADD35R,1.000X0.800*%
%ADD36O,0.900X0.300*%
%ADD37O,0.300X0.900*%
%ADD38R,0.600X0.800*%
%ADD39R,0.300X0.500*%
%ADD40R,0.550X0.550*%
%ADD41R,4.200X1.905*%
%ADD42C,0.600*%
%ADD43C,0.400*%
%ADD44C,0.250*%
%ADD45C,1.000*%
%ADD46C,0.650*%
%ADD47C,0.200*%
%ADD48C,0.257*%
%ADD49C,0.800*%
%ADD50C,0.300*%
%ADD51C,0.500*%
%ADD52C,1.200*%
%ADD53C,1.300*%
%ADD54C,0.900*%
%ADD55C,0.350*%
%ADD56C,0.700*%
%ADD57C,0.150*%
%ADD58C,0.050*%
%ADD59C,1.600*%
%ADD60C,1.500*%
%ADD61R,1.500X1.500*%
G04:AMPARAMS|DCode=62|XSize=2.2mm|YSize=3.6mm|CornerRadius=0.11mm|HoleSize=0mm|Usage=FLASHONLY|Rotation=270.000|XOffset=0mm|YOffset=0mm|HoleType=Round|Shape=RoundedRectangle|*
%AMROUNDEDRECTD62*
21,1,2.200,3.380,0,0,270.0*
21,1,1.980,3.600,0,0,270.0*
1,1,0.220,-1.690,-0.990*
1,1,0.220,-1.690,0.990*
1,1,0.220,1.690,0.990*
1,1,0.220,1.690,-0.990*
%
%ADD62ROUNDEDRECTD62*%
G04:AMPARAMS|DCode=63|XSize=1.6mm|YSize=1.6mm|CornerRadius=0.08mm|HoleSize=0mm|Usage=FLASHONLY|Rotation=270.000|XOffset=0mm|YOffset=0mm|HoleType=Round|Shape=RoundedRectangle|*
%AMROUNDEDRECTD63*
21,1,1.600,1.440,0,0,270.0*
21,1,1.440,1.600,0,0,270.0*
1,1,0.160,-0.720,-0.720*
1,1,0.160,-0.720,0.720*
1,1,0.160,0.720,0.720*
1,1,0.160,0.720,-0.720*
%
%ADD63ROUNDEDRECTD63*%
%ADD64C,1.700*%
G04:AMPARAMS|DCode=65|XSize=1.7mm|YSize=1.7mm|CornerRadius=0.17mm|HoleSize=0mm|Usage=FLASHONLY|Rotation=0.000|XOffset=0mm|YOffset=0mm|HoleType=Round|Shape=RoundedRectangle|*
%AMROUNDEDRECTD65*
21,1,1.700,1.360,0,0,0.0*
21,1,1.360,1.700,0,0,0.0*
1,1,0.340,0.680,-0.680*
1,1,0.340,-0.680,-0.680*
1,1,0.340,-0.680,0.680*
1,1,0.340,0.680,0.680*
%
%ADD65ROUNDEDRECTD65*%
%ADD66R,4.200X2.413*%
%ADD67C,0.400*%
%ADD68C,0.500*%
%ADD69C,0.600*%
%ADD70C,0.660*%
%ADD71C,0.100*%
%ADD72C,0.028*%
%ADD73C,0.025*%
%ADD74C,0.254*%
D44*
X0052894Y0031180D02*
G03*
X0052894Y0031180I-0000125J0000000D01*
G01*
X0061808Y0010016D02*
X0061675Y0010150D01*
X0061408D01*
X0061275Y0010016D01*
Y0009883D01*
X0061408Y0009750D01*
X0061675D01*
X0061808Y0009617D01*
Y0009483D01*
X0061675Y0009350D01*
X0061408D01*
X0061275Y0009483D01*
X0062075Y0010150D02*
Y0009350D01*
Y0009750D01*
X0062208Y0009883D01*
X0062475D01*
X0062608Y0009750D01*
Y0009350D01*
X0062874D02*
X0063141D01*
X0063008D01*
Y0009883D01*
X0062874D01*
X0063941Y0009350D02*
X0063674D01*
X0063541Y0009483D01*
Y0009750D01*
X0063674Y0009883D01*
X0063941D01*
X0064074Y0009750D01*
Y0009617D01*
X0063541D01*
X0064341Y0009350D02*
X0064607D01*
X0064474D01*
Y0010150D01*
X0064341D01*
X0065540D02*
Y0009350D01*
X0065140D01*
X0065007Y0009483D01*
Y0009750D01*
X0065140Y0009883D01*
X0065540D01*
X0020500Y0027000D02*
Y0026333D01*
X0020633Y0026200D01*
X0020900D01*
X0021033Y0026333D01*
Y0027000D01*
X0021300Y0026866D02*
X0021433Y0027000D01*
X0021700D01*
X0021833Y0026866D01*
Y0026733D01*
X0021700Y0026600D01*
X0021833Y0026467D01*
Y0026333D01*
X0021700Y0026200D01*
X0021433D01*
X0021300Y0026333D01*
Y0026467D01*
X0021433Y0026600D01*
X0021300Y0026733D01*
Y0026866D01*
X0021433Y0026600D02*
X0021700D01*
X0065909Y0006816D02*
X0065776Y0006950D01*
X0065509D01*
X0065376Y0006816D01*
Y0006283D01*
X0065509Y0006150D01*
X0065776D01*
X0065909Y0006283D01*
Y0006550D01*
X0065642D01*
X0066175Y0006150D02*
Y0006950D01*
X0066709Y0006150D01*
Y0006950D01*
X0066975D02*
Y0006150D01*
X0067375D01*
X0067508Y0006283D01*
Y0006816D01*
X0067375Y0006950D01*
X0066975D01*
X0063725Y0012300D02*
X0064058D01*
X0063892D01*
Y0013300D01*
X0063725Y0013133D01*
X0018715Y0035950D02*
X0018981D01*
X0018848D01*
Y0036750D01*
X0018715Y0036616D01*
D47*
X0021017Y0025646D02*
G03*
X0021017Y0025646I-0000150J0000000D01*
G01*
X0051669Y0031480D02*
X0051969D01*
X0051669Y0033680D02*
X0051969D01*
Y0031480D02*
Y0033680D01*
X0051669Y0031480D02*
Y0033680D01*
X0004800Y0007600D02*
Y0013600D01*
X0000150Y0007600D02*
X0008000D01*
X0000150D02*
Y0013600D01*
X0008000D01*
Y0007600D02*
Y0013600D01*
X0001900Y0012100D02*
X0004800D01*
X0001900Y0011100D02*
Y0012100D01*
Y0011100D02*
X0004800D01*
X0001900Y0009100D02*
X0004800D01*
X0001900D02*
Y0010100D01*
X0004800D01*
X0022092Y0023446D02*
Y0025446D01*
X0021592Y0023446D02*
Y0025446D01*
Y0023446D02*
X0022092D01*
X0021592Y0025446D02*
X0022092D01*
X0029500Y0020000D02*
X0034800D01*
X0029500Y0020150D02*
Y0020275D01*
Y0020000D02*
Y0020650D01*
Y0020150D02*
X0034800D01*
Y0020000D02*
Y0020650D01*
X0011100Y0015150D02*
Y0020450D01*
X0011250D02*
X0011375D01*
X0011100D02*
X0011750D01*
X0011250Y0015150D02*
Y0020450D01*
X0011100Y0015150D02*
X0011750D01*
X0024550Y0006550D02*
Y0008150D01*
X0022160Y0006550D02*
Y0008150D01*
X0022350Y0006550D02*
Y0008150D01*
X0021750Y0006550D02*
X0022350D01*
X0021750Y0008150D02*
X0022350D01*
X0021550Y0013944D02*
X0022150D01*
X0021550Y0012344D02*
X0022150D01*
Y0013944D01*
X0021960Y0012344D02*
Y0013944D01*
X0024350Y0012344D02*
Y0013944D01*
X0021850Y0010350D02*
X0022450D01*
X0021850Y0008750D02*
X0022450D01*
Y0010350D01*
X0022260Y0008750D02*
Y0010350D01*
X0026800Y0008750D02*
X0027400D01*
X0026800Y0010350D02*
X0027400D01*
X0026800Y0008750D02*
Y0010350D01*
X0026990Y0008750D02*
Y0010350D01*
X0027050Y0018750D02*
Y0021850D01*
X0027025D02*
X0027050D01*
X0023950D02*
X0023975D01*
X0023950Y0018750D02*
Y0021850D01*
Y0018750D02*
X0023975D01*
X0027025D02*
X0027050D01*
X0004150Y0001800D02*
X0004950D01*
X0055200Y0006521D02*
X0056000D01*
X0052650Y0006571D02*
X0053450D01*
X0009260Y0056960D02*
X0024500D01*
X0009260Y0054420D02*
X0024500D01*
Y0056960D01*
X0009260Y0054420D02*
Y0056960D01*
X0038750Y0016800D02*
Y0019400D01*
X0043850Y0016800D02*
Y0019400D01*
X0038750D02*
X0043850D01*
X0038750Y0016800D02*
X0043850D01*
X0062993Y0030850D02*
X0063193D01*
X0063093D01*
Y0031450D01*
X0062993Y0031350D01*
X0025117Y0055121D02*
X0025450D01*
X0025284D01*
Y0056121D01*
X0025117Y0055954D01*
X0008911Y0004410D02*
X0009244D01*
X0009077D01*
Y0005410D01*
X0008911Y0005244D01*
X0031731Y0004415D02*
X0032064D01*
X0031898D01*
Y0005414D01*
X0031731Y0005248D01*
X0026000Y0052610D02*
X0026333D01*
X0026167D01*
Y0053610D01*
X0026000Y0053444D01*
X0047511Y0052710D02*
X0047844D01*
X0047677D01*
Y0053710D01*
X0047511Y0053544D01*
D50*
X0015560Y0036300D02*
G03*
X0015560Y0036300I-0000300J0000000D01*
G01*
X0001970Y0018369D02*
X0000700D01*
Y0017735D01*
X0000912Y0017523D01*
X0001123D01*
X0001335Y0017735D01*
Y0018369D01*
Y0017735D01*
X0001546Y0017523D01*
X0001758D01*
X0001970Y0017735D01*
Y0018369D01*
X0000700Y0017100D02*
X0001546D01*
X0001970Y0016677D01*
X0001546Y0016253D01*
X0000700D01*
X0001335D01*
Y0017100D01*
X0001970Y0015830D02*
Y0014984D01*
Y0015407D01*
X0000700D01*
Y0014561D02*
Y0014137D01*
Y0014349D01*
X0001970D01*
X0001758Y0014561D01*
X0021116Y0038080D02*
X0020950Y0038246D01*
X0020617D01*
X0020450Y0038080D01*
Y0037413D01*
X0020617Y0037247D01*
X0020950D01*
X0021116Y0037413D01*
Y0037746D01*
X0020783D01*
X0021450Y0037247D02*
Y0038246D01*
X0021950D01*
X0022116Y0038080D01*
Y0037746D01*
X0021950Y0037580D01*
X0021450D01*
X0023116Y0038080D02*
X0022949Y0038246D01*
X0022616D01*
X0022449Y0038080D01*
Y0037913D01*
X0022616Y0037746D01*
X0022949D01*
X0023116Y0037580D01*
Y0037413D01*
X0022949Y0037247D01*
X0022616D01*
X0022449Y0037413D01*
X0023449Y0037080D02*
X0024115D01*
X0024449Y0037247D02*
Y0038246D01*
X0024949D01*
X0025115Y0038080D01*
Y0037746D01*
X0024949Y0037580D01*
X0024449D01*
X0025448Y0037247D02*
Y0038246D01*
X0025948D01*
X0026115Y0038080D01*
Y0037746D01*
X0025948Y0037580D01*
X0025448D01*
X0027115Y0038080D02*
X0026948Y0038246D01*
X0026615D01*
X0026448Y0038080D01*
Y0037913D01*
X0026615Y0037746D01*
X0026948D01*
X0027115Y0037580D01*
Y0037413D01*
X0026948Y0037247D01*
X0026615D01*
X0026448Y0037413D01*
X0001758Y0038904D02*
X0001970Y0039115D01*
Y0039538D01*
X0001758Y0039750D01*
X0000912D01*
X0000700Y0039538D01*
Y0039115D01*
X0000912Y0038904D01*
X0001335D01*
Y0039327D01*
X0000700Y0038480D02*
X0001970D01*
Y0037846D01*
X0001758Y0037634D01*
X0001335D01*
X0001123Y0037846D01*
Y0038480D01*
X0001758Y0036364D02*
X0001970Y0036576D01*
Y0036999D01*
X0001758Y0037211D01*
X0001546D01*
X0001335Y0036999D01*
Y0036576D01*
X0001123Y0036364D01*
X0000912D01*
X0000700Y0036576D01*
Y0036999D01*
X0000912Y0037211D01*
X0000488Y0035941D02*
Y0035095D01*
X0000700Y0034672D02*
X0001546D01*
X0001970Y0034248D01*
X0001546Y0033825D01*
X0000700D01*
X0001335D01*
Y0034672D01*
X0000700Y0033402D02*
X0001970D01*
X0000700Y0032556D01*
X0001970D01*
Y0032132D02*
Y0031286D01*
Y0031709D01*
X0000700D01*
X0011300Y0035020D02*
Y0033962D01*
X0011512Y0033750D01*
X0011935D01*
X0012146Y0033962D01*
Y0035020D01*
X0013416D02*
X0012570D01*
Y0034385D01*
X0012993Y0034596D01*
X0013204D01*
X0013416Y0034385D01*
Y0033962D01*
X0013204Y0033750D01*
X0012781D01*
X0012570Y0033962D01*
X0040800Y0040050D02*
Y0039217D01*
X0040967Y0039050D01*
X0041300D01*
X0041466Y0039217D01*
Y0040050D01*
X0042300Y0039050D02*
Y0040050D01*
X0041800Y0039550D01*
X0042466D01*
X0053500Y0025525D02*
Y0024692D01*
X0053667Y0024525D01*
X0054000D01*
X0054166Y0024692D01*
Y0025525D01*
X0054500Y0024525D02*
X0054833D01*
X0054666D01*
Y0025525D01*
X0054500Y0025358D01*
X0040000Y0021200D02*
Y0022200D01*
X0040500D01*
X0040666Y0022033D01*
Y0021700D01*
X0040500Y0021533D01*
X0040000D01*
X0040333D02*
X0040666Y0021200D01*
X0041666D02*
X0041000D01*
X0041666Y0021866D01*
Y0022033D01*
X0041500Y0022200D01*
X0041166D01*
X0041000Y0022033D01*
X0040200Y0014100D02*
Y0015100D01*
X0040700D01*
X0040866Y0014933D01*
Y0014600D01*
X0040700Y0014433D01*
X0040200D01*
X0040533D02*
X0040866Y0014100D01*
X0041200D02*
X0041533D01*
X0041366D01*
Y0015100D01*
X0041200Y0014933D01*
X0051850Y0005871D02*
Y0005204D01*
Y0005537D01*
X0050850D01*
X0051850Y0004871D02*
X0050850Y0004205D01*
X0051850D02*
X0050850Y0004871D01*
X0056750Y0005821D02*
X0057750D01*
Y0005321D01*
X0057583Y0005154D01*
X0057250D01*
X0057083Y0005321D01*
Y0005821D01*
Y0005487D02*
X0056750Y0005154D01*
X0057750Y0004821D02*
X0056750Y0004155D01*
X0057750D02*
X0056750Y0004821D01*
X0045450Y0022800D02*
X0044783D01*
X0044450Y0022467D01*
X0044783Y0022134D01*
X0045450D01*
Y0021800D02*
X0044450D01*
Y0021300D01*
X0044617Y0021134D01*
X0045283D01*
X0045450Y0021300D01*
Y0021800D01*
Y0020801D02*
X0044450D01*
Y0020301D01*
X0044617Y0020134D01*
X0045283D01*
X0045450Y0020301D01*
Y0020801D01*
X0044283Y0019801D02*
Y0019135D01*
X0044450Y0018801D02*
X0045450D01*
Y0018301D01*
X0045283Y0018135D01*
X0044950D01*
X0044783Y0018301D01*
Y0018801D01*
Y0018468D02*
X0044450Y0018135D01*
Y0017802D02*
X0045116D01*
X0045450Y0017468D01*
X0045116Y0017135D01*
X0044450D01*
X0044950D01*
Y0017802D01*
X0045450Y0016802D02*
X0044450D01*
Y0016302D01*
X0044617Y0016135D01*
X0045283D01*
X0045450Y0016302D01*
Y0016802D01*
Y0015802D02*
Y0015469D01*
Y0015636D01*
X0044450D01*
Y0015802D01*
Y0015469D01*
X0045450Y0014469D02*
Y0014803D01*
X0045283Y0014969D01*
X0044617D01*
X0044450Y0014803D01*
Y0014469D01*
X0044617Y0014303D01*
X0045283D01*
X0045450Y0014469D01*
X0006875Y0005800D02*
X0007050Y0005975D01*
Y0006325D01*
X0006875Y0006500D01*
X0006175D01*
X0006000Y0006325D01*
Y0005975D01*
X0006175Y0005800D01*
X0007050Y0005450D02*
X0006000D01*
X0006525D01*
Y0004751D01*
X0007050D01*
X0006000D01*
Y0004401D02*
X0006700D01*
X0007050Y0004051D01*
X0006700Y0003701D01*
X0006000D01*
X0006525D01*
Y0004401D01*
X0006000Y0003351D02*
X0007050D01*
Y0002826D01*
X0006875Y0002651D01*
X0006525D01*
X0006350Y0002826D01*
Y0003351D01*
Y0003001D02*
X0006000Y0002651D01*
X0006875Y0001602D02*
X0007050Y0001777D01*
Y0002126D01*
X0006875Y0002301D01*
X0006175D01*
X0006000Y0002126D01*
Y0001777D01*
X0006175Y0001602D01*
X0006525D01*
Y0001951D01*
X0007050Y0000552D02*
Y0001252D01*
X0006000D01*
Y0000552D01*
X0006525Y0001252D02*
Y0000902D01*
X0021500Y0017250D02*
Y0016417D01*
X0021667Y0016250D01*
X0022000D01*
X0022166Y0016417D01*
Y0017250D01*
X0023166D02*
X0022833Y0017083D01*
X0022500Y0016750D01*
Y0016417D01*
X0022666Y0016250D01*
X0023000D01*
X0023166Y0016417D01*
Y0016583D01*
X0023000Y0016750D01*
X0022500D01*
X0021750Y0020944D02*
Y0020111D01*
X0021917Y0019944D01*
X0022250D01*
X0022416Y0020111D01*
Y0020944D01*
X0022750D02*
X0023416D01*
Y0020777D01*
X0022750Y0020111D01*
Y0019944D01*
X0003766Y0056450D02*
X0003433D01*
X0003600D01*
Y0055617D01*
X0003433Y0055450D01*
X0003267D01*
X0003100Y0055617D01*
X0004100Y0055283D02*
X0004766D01*
X0005099Y0056450D02*
Y0055617D01*
X0005266Y0055450D01*
X0005599D01*
X0005766Y0055617D01*
Y0056450D01*
X0006099Y0055450D02*
Y0056116D01*
X0006432Y0056450D01*
X0006765Y0056116D01*
Y0055450D01*
Y0055950D01*
X0006099D01*
X0007099Y0055450D02*
Y0056450D01*
X0007599D01*
X0007765Y0056283D01*
Y0055950D01*
X0007599Y0055783D01*
X0007099D01*
X0007432D02*
X0007765Y0055450D01*
X0008098Y0056450D02*
X0008765D01*
X0008432D01*
Y0055450D01*
X0007600Y0028950D02*
Y0028117D01*
X0007767Y0027950D01*
X0008100D01*
X0008266Y0028117D01*
Y0028950D01*
X0008600Y0027950D02*
X0008933D01*
X0008766D01*
Y0028950D01*
X0008600Y0028783D01*
X0009433D02*
X0009599Y0028950D01*
X0009933D01*
X0010099Y0028783D01*
Y0028117D01*
X0009933Y0027950D01*
X0009599D01*
X0009433Y0028117D01*
Y0028783D01*
X0048850Y0020600D02*
Y0021600D01*
X0049350D01*
X0049516Y0021433D01*
Y0021100D01*
X0049350Y0020933D01*
X0048850D01*
X0049183D02*
X0049516Y0020600D01*
X0050350D02*
X0050016D01*
X0049850Y0020767D01*
Y0021100D01*
X0050016Y0021266D01*
X0050350D01*
X0050516Y0021100D01*
Y0020933D01*
X0049850D01*
X0051016Y0020600D02*
Y0021433D01*
Y0021100D01*
X0050849D01*
X0051183D01*
X0051016D01*
Y0021433D01*
X0051183Y0021600D01*
X0052182Y0020600D02*
X0051849D01*
X0051682Y0020767D01*
Y0021100D01*
X0051849Y0021266D01*
X0052182D01*
X0052349Y0021100D01*
Y0020933D01*
X0051682D01*
X0052682Y0021266D02*
Y0020600D01*
Y0020933D01*
X0052849Y0021100D01*
X0053015Y0021266D01*
X0053182D01*
X0054182Y0020600D02*
X0053848D01*
X0053682Y0020767D01*
Y0021100D01*
X0053848Y0021266D01*
X0054182D01*
X0054348Y0021100D01*
Y0020933D01*
X0053682D01*
X0054681Y0020600D02*
Y0021266D01*
X0055181D01*
X0055348Y0021100D01*
Y0020600D01*
X0056348Y0021266D02*
X0055848D01*
X0055681Y0021100D01*
Y0020767D01*
X0055848Y0020600D01*
X0056348D01*
X0057181D02*
X0056847D01*
X0056681Y0020767D01*
Y0021100D01*
X0056847Y0021266D01*
X0057181D01*
X0057347Y0021100D01*
Y0020933D01*
X0056681D01*
X0058680Y0021600D02*
Y0020600D01*
X0059180D01*
X0059347Y0020767D01*
Y0021433D01*
X0059180Y0021600D01*
X0058680D01*
X0060180Y0020600D02*
X0059846D01*
X0059680Y0020767D01*
Y0021100D01*
X0059846Y0021266D01*
X0060180D01*
X0060346Y0021100D01*
Y0020933D01*
X0059680D01*
X0060680Y0020600D02*
X0061179D01*
X0061346Y0020767D01*
X0061179Y0020933D01*
X0060846D01*
X0060680Y0021100D01*
X0060846Y0021266D01*
X0061346D01*
X0061679Y0020600D02*
X0062012D01*
X0061846D01*
Y0021266D01*
X0061679D01*
X0062845Y0020267D02*
X0063012D01*
X0063179Y0020433D01*
Y0021266D01*
X0062679D01*
X0062512Y0021100D01*
Y0020767D01*
X0062679Y0020600D01*
X0063179D01*
X0063512D02*
Y0021266D01*
X0064012D01*
X0064178Y0021100D01*
Y0020600D01*
X0052275Y0051075D02*
Y0052025D01*
X0052750D01*
X0052908Y0051866D01*
Y0051550D01*
X0052750Y0051392D01*
X0052275D01*
X0053858Y0051866D02*
X0053700Y0052025D01*
X0053383D01*
X0053225Y0051866D01*
Y0051233D01*
X0053383Y0051075D01*
X0053700D01*
X0053858Y0051233D01*
X0054174Y0052025D02*
Y0051075D01*
X0054649D01*
X0054808Y0051233D01*
Y0051392D01*
X0054649Y0051550D01*
X0054174D01*
X0054649D01*
X0054808Y0051708D01*
Y0051866D01*
X0054649Y0052025D01*
X0054174D01*
X0055124Y0050917D02*
X0055757D01*
X0056707Y0052025D02*
X0056074D01*
Y0051075D01*
X0056707D01*
X0056074Y0051550D02*
X0056390D01*
X0057498Y0051075D02*
Y0052025D01*
X0057023Y0051550D01*
X0057657D01*
X0057973Y0051866D02*
X0058131Y0052025D01*
X0058448D01*
X0058606Y0051866D01*
Y0051233D01*
X0058448Y0051075D01*
X0058131D01*
X0057973Y0051233D01*
Y0051866D01*
X0059556Y0051075D02*
X0058923D01*
X0059556Y0051708D01*
Y0051866D01*
X0059398Y0052025D01*
X0059081D01*
X0058923Y0051866D01*
X0059873Y0052025D02*
Y0051392D01*
X0060189Y0051075D01*
X0060506Y0051392D01*
Y0052025D01*
X0060822Y0051866D02*
X0060981Y0052025D01*
X0061297D01*
X0061455Y0051866D01*
Y0051233D01*
X0061297Y0051075D01*
X0060981D01*
X0060822Y0051233D01*
Y0051866D01*
X0061772Y0051075D02*
X0062089D01*
X0061930D01*
Y0052025D01*
X0061772Y0051866D01*
X0062563Y0051075D02*
Y0051708D01*
X0062880Y0052025D01*
X0063196Y0051708D01*
Y0051075D01*
Y0051550D01*
X0062563D01*
X0064463Y0051866D02*
X0064621Y0052025D01*
X0064938D01*
X0065096Y0051866D01*
Y0051233D01*
X0064938Y0051075D01*
X0064621D01*
X0064463Y0051233D01*
Y0051866D01*
X0065412Y0052025D02*
X0066046D01*
Y0051866D01*
X0065412Y0051233D01*
Y0051075D01*
X0066362D02*
X0066679D01*
X0066520D01*
Y0052025D01*
X0066362Y0051866D01*
X0067154Y0052025D02*
X0067787D01*
Y0051866D01*
X0067154Y0051233D01*
Y0051075D01*
X0049478Y0054266D02*
X0049320Y0054425D01*
X0049003D01*
X0048845Y0054266D01*
Y0054108D01*
X0049003Y0053950D01*
X0049320D01*
X0049478Y0053792D01*
Y0053633D01*
X0049320Y0053475D01*
X0049003D01*
X0048845Y0053633D01*
X0049794Y0054425D02*
X0050428Y0053475D01*
Y0054425D02*
X0049794Y0053475D01*
X0050744D02*
X0051061D01*
X0050902D01*
Y0054425D01*
X0050744Y0054266D01*
X0052169Y0053475D02*
X0051535D01*
X0052169Y0054108D01*
Y0054266D01*
X0052010Y0054425D01*
X0051694D01*
X0051535Y0054266D01*
X0052485D02*
X0052643Y0054425D01*
X0052960D01*
X0053118Y0054266D01*
Y0054108D01*
X0052960Y0053950D01*
X0053118Y0053792D01*
Y0053633D01*
X0052960Y0053475D01*
X0052643D01*
X0052485Y0053633D01*
Y0053792D01*
X0052643Y0053950D01*
X0052485Y0054108D01*
Y0054266D01*
X0052643Y0053950D02*
X0052960D01*
X0053435Y0054266D02*
X0053593Y0054425D01*
X0053910D01*
X0054068Y0054266D01*
Y0053633D01*
X0053910Y0053475D01*
X0053593D01*
X0053435Y0053633D01*
Y0054266D01*
X0055967Y0054425D02*
X0055334D01*
Y0053475D01*
X0055967D01*
X0055334Y0053950D02*
X0055651D01*
X0056284Y0054108D02*
X0056601Y0053475D01*
X0056917Y0054108D01*
X0057392D02*
X0057708D01*
X0057867Y0053950D01*
Y0053475D01*
X0057392D01*
X0057234Y0053633D01*
X0057392Y0053792D01*
X0057867D01*
X0058183Y0053475D02*
X0058500D01*
X0058342D01*
Y0054425D01*
X0058183D01*
X0058975Y0054108D02*
Y0053633D01*
X0059133Y0053475D01*
X0059608D01*
Y0054108D01*
X0060083D02*
X0060399D01*
X0060558Y0053950D01*
Y0053475D01*
X0060083D01*
X0059924Y0053633D01*
X0060083Y0053792D01*
X0060558D01*
X0061032Y0054266D02*
Y0054108D01*
X0060874D01*
X0061191D01*
X0061032D01*
Y0053633D01*
X0061191Y0053475D01*
X0061666D02*
X0061982D01*
X0061824D01*
Y0054108D01*
X0061666D01*
X0062615Y0053475D02*
X0062932D01*
X0063090Y0053633D01*
Y0053950D01*
X0062932Y0054108D01*
X0062615D01*
X0062457Y0053950D01*
Y0053633D01*
X0062615Y0053475D01*
X0063407D02*
Y0054108D01*
X0063881D01*
X0064040Y0053950D01*
Y0053475D01*
X0065306Y0054425D02*
Y0053475D01*
X0065781D01*
X0065939Y0053633D01*
Y0053792D01*
X0065781Y0053950D01*
X0065306D01*
X0065781D01*
X0065939Y0054108D01*
Y0054266D01*
X0065781Y0054425D01*
X0065306D01*
X0066414Y0053475D02*
X0066731D01*
X0066889Y0053633D01*
Y0053950D01*
X0066731Y0054108D01*
X0066414D01*
X0066256Y0053950D01*
Y0053633D01*
X0066414Y0053475D01*
X0067364Y0054108D02*
X0067680D01*
X0067839Y0053950D01*
Y0053475D01*
X0067364D01*
X0067205Y0053633D01*
X0067364Y0053792D01*
X0067839D01*
X0068155Y0054108D02*
Y0053475D01*
Y0053792D01*
X0068313Y0053950D01*
X0068472Y0054108D01*
X0068630D01*
X0069738Y0054425D02*
Y0053475D01*
X0069263D01*
X0069105Y0053633D01*
Y0053950D01*
X0069263Y0054108D01*
X0069738D01*
X0058863Y0023216D02*
X0058680Y0023400D01*
X0058314D01*
X0058130Y0023216D01*
Y0023033D01*
X0058314Y0022850D01*
X0058680D01*
X0058863Y0022667D01*
Y0022483D01*
X0058680Y0022300D01*
X0058314D01*
X0058130Y0022483D01*
X0059230Y0023400D02*
X0059963Y0022300D01*
Y0023400D02*
X0059230Y0022300D01*
X0060330D02*
X0060696D01*
X0060513D01*
Y0023400D01*
X0060330Y0023216D01*
X0061979Y0022300D02*
X0061246D01*
X0061979Y0023033D01*
Y0023216D01*
X0061796Y0023400D01*
X0061429D01*
X0061246Y0023216D01*
X0062346D02*
X0062529Y0023400D01*
X0062895D01*
X0063079Y0023216D01*
Y0023033D01*
X0062895Y0022850D01*
X0063079Y0022667D01*
Y0022483D01*
X0062895Y0022300D01*
X0062529D01*
X0062346Y0022483D01*
Y0022667D01*
X0062529Y0022850D01*
X0062346Y0023033D01*
Y0023216D01*
X0062529Y0022850D02*
X0062895D01*
X0063445Y0023216D02*
X0063629Y0023400D01*
X0063995D01*
X0064178Y0023216D01*
Y0022483D01*
X0063995Y0022300D01*
X0063629D01*
X0063445Y0022483D01*
Y0023216D01*
D55*
X0068920Y0021904D02*
Y0022327D01*
Y0022115D01*
X0067862D01*
X0067650Y0022327D01*
Y0022538D01*
X0067862Y0022750D01*
X0067438Y0021480D02*
Y0020634D01*
X0067650Y0020211D02*
X0068496D01*
X0068920Y0019788D01*
X0068496Y0019364D01*
X0067650D01*
X0068285D01*
Y0020211D01*
X0067650Y0018941D02*
X0068920D01*
X0067650Y0018095D01*
X0068920D01*
Y0017672D02*
Y0016825D01*
Y0017248D01*
X0067650D01*
X0006535Y0014900D02*
Y0014054D01*
X0006958Y0014477D02*
X0006112D01*
D57*
X0062750Y0031100D02*
G03*
X0062750Y0031100I-0000150J0000000D01*
G01*
X0040486Y0039950D02*
G03*
X0040486Y0039950I-0000150J0000000D01*
G01*
X0021175Y0017044D02*
G03*
X0021175Y0017044I-0000150J0000000D01*
G01*
X0010350Y0031300D02*
G03*
X0010350Y0031300I-0000150J0000000D01*
G01*
X0056750Y0034000D02*
G03*
X0056750Y0034000I-0000150J0000000D01*
G01*
X0064550Y0024050D02*
Y0028400D01*
Y0029600D02*
Y0033625D01*
X0055450D02*
X0064550D01*
X0055450Y0024050D02*
Y0033625D01*
Y0024050D02*
X0064550D01*
X0010650Y0031050D02*
X0011000Y0031400D01*
X0010650Y0027900D02*
Y0028350D01*
Y0027900D02*
X0011450D01*
X0013350D02*
X0014150D01*
Y0028350D01*
Y0030950D02*
Y0031400D01*
X0013350D02*
X0014150D01*
X0011000D02*
X0011450D01*
X0010650Y0030950D02*
Y0031050D01*
X0057100Y0031500D02*
X0057300D01*
X0057200D01*
Y0032100D01*
X0057100Y0032000D01*
D58*
X0000000Y0058000D02*
X0070500D01*
Y0000000D02*
Y0058000D01*
X0000000Y0000000D02*
X0070500D01*
X0000000D02*
Y0058000D01*
D71*
X0027100Y0022350D02*
G03*
X0027100Y0022350I-0000050J0000000D01*
G01*
X0062250Y0030950D02*
X0062450Y0030750D01*
X0061950Y0030950D02*
X0062250D01*
X0058050D02*
X0058550D01*
X0058050Y0030450D02*
Y0030950D01*
Y0026550D02*
Y0027050D01*
Y0026550D02*
X0058550D01*
X0061950D02*
X0062450D01*
Y0027000D01*
Y0030450D02*
Y0030750D01*
X0064750Y0010750D02*
X0065900D01*
Y0011900D01*
X0064800Y0041350D02*
X0065950D01*
X0046200Y0041350D02*
X0047350D01*
X0046200Y0040200D02*
Y0041350D01*
Y0010750D02*
X0047350D01*
X0046200D02*
Y0011900D01*
X0065950Y0040200D02*
Y0041350D01*
X0039586Y0039050D02*
X0039861Y0039325D01*
X0036461Y0039050D02*
Y0039650D01*
Y0039050D02*
X0037061D01*
X0039186D02*
X0039586D01*
X0039861Y0039325D02*
Y0039725D01*
X0039261Y0042450D02*
X0039861D01*
Y0041850D02*
Y0042450D01*
X0036461Y0041850D02*
Y0042450D01*
X0037061D01*
X0017150Y0019544D02*
X0017750D01*
X0017150Y0018944D02*
Y0019544D01*
X0020550Y0018944D02*
Y0019544D01*
X0019950D02*
X0020550D01*
Y0016419D02*
Y0016819D01*
X0019875Y0016144D02*
X0020275D01*
X0017150D02*
X0017750D01*
X0017150D02*
Y0016744D01*
X0020275Y0016144D02*
X0020550Y0016419D01*
X0062975Y0029425D02*
Y0029575D01*
Y0029425D02*
X0063125D01*
Y0029575D01*
X0062975D02*
X0063125D01*
D72*
X0040523Y0034671D02*
X0040574D01*
X0040523Y0034645D02*
X0040599D01*
X0040498Y0034620D02*
X0040599D01*
X0040472Y0034595D02*
X0040625D01*
X0040472Y0034569D02*
X0040625D01*
X0040447Y0034544D02*
X0040650D01*
X0040447Y0034518D02*
X0040650D01*
X0040422Y0034493D02*
X0040676D01*
X0040396Y0034468D02*
X0040701D01*
X0040396Y0034442D02*
X0040701D01*
X0040371Y0034417D02*
X0040726D01*
X0040345Y0034391D02*
X0040726D01*
X0040345Y0034366D02*
X0040752D01*
X0040320Y0034341D02*
X0040752D01*
X0040320Y0034315D02*
X0040777D01*
X0040295Y0034290D02*
X0040777D01*
X0040269Y0034264D02*
X0040803D01*
X0040269Y0034239D02*
X0040803D01*
X0040244Y0034214D02*
X0040828D01*
X0040244Y0034188D02*
X0040828D01*
X0040218Y0034163D02*
X0040853D01*
X0040193Y0034137D02*
X0040853D01*
X0040193Y0034112D02*
X0040879D01*
X0040168Y0034087D02*
X0040879D01*
X0040168Y0034061D02*
X0040904D01*
X0040142Y0034036D02*
X0040904D01*
X0040117Y0034010D02*
X0040930D01*
X0040117Y0033985D02*
X0040930D01*
X0040091Y0033960D02*
X0040955D01*
X0040066Y0033934D02*
X0040955D01*
X0040066Y0033909D02*
X0040980D01*
X0040041Y0033883D02*
X0040980D01*
X0040041Y0033858D02*
X0041006D01*
X0040015Y0033833D02*
X0041006D01*
X0039990Y0033807D02*
X0041031D01*
X0039990Y0033782D02*
X0041057D01*
X0039964Y0033756D02*
X0041057D01*
X0039964Y0033731D02*
X0041082D01*
X0039939Y0033706D02*
X0041082D01*
X0039914Y0033680D02*
X0041107D01*
X0039914Y0033655D02*
X0041107D01*
X0039888Y0033629D02*
X0041133D01*
X0039863Y0033604D02*
X0041133D01*
X0039863Y0033579D02*
X0041158D01*
X0039837Y0033553D02*
X0041158D01*
X0039837Y0033528D02*
X0041184D01*
X0039812Y0033502D02*
X0041184D01*
X0039787Y0033477D02*
X0041209D01*
X0039787Y0033452D02*
X0041209D01*
X0039761Y0033426D02*
X0041234D01*
X0039761Y0033401D02*
X0041234D01*
X0039736Y0033375D02*
X0041260D01*
X0039710Y0033350D02*
X0041260D01*
X0039710Y0033325D02*
X0041285D01*
X0039685Y0033299D02*
X0041285D01*
X0039660Y0033274D02*
X0041311D01*
X0039660Y0033248D02*
X0041311D01*
X0039634Y0033223D02*
X0041336D01*
X0039634Y0033198D02*
X0041336D01*
X0039609Y0033172D02*
X0041361D01*
X0039583Y0033147D02*
X0041361D01*
X0039583Y0033121D02*
X0041387D01*
X0039558Y0033096D02*
X0041412D01*
X0039558Y0033071D02*
X0041412D01*
X0039533Y0033045D02*
X0041438D01*
X0039507Y0033020D02*
X0041438D01*
X0039507Y0032994D02*
X0041463D01*
X0039482Y0032969D02*
X0041463D01*
X0039482Y0032944D02*
X0041488D01*
X0039456Y0032918D02*
X0041488D01*
X0039431Y0032893D02*
X0041514D01*
X0039431Y0032867D02*
X0041514D01*
X0039406Y0032842D02*
X0041539D01*
X0039380Y0032817D02*
X0041539D01*
X0039380Y0032791D02*
X0041565D01*
X0039355Y0032766D02*
X0041565D01*
X0039355Y0032740D02*
X0041590D01*
X0039329Y0032715D02*
X0041590D01*
X0039304Y0032690D02*
X0041615D01*
X0039304Y0032664D02*
X0041615D01*
X0039279Y0032639D02*
X0041641D01*
X0039279Y0032613D02*
X0041641D01*
X0039253Y0032588D02*
X0041666D01*
X0039228Y0032563D02*
X0041666D01*
X0039228Y0032537D02*
X0041692D01*
X0039202Y0032512D02*
X0041692D01*
X0039177Y0032486D02*
X0041717D01*
X0039177Y0032461D02*
X0041717D01*
X0039152Y0032436D02*
X0041742D01*
X0039152Y0032410D02*
X0041768D01*
X0039126Y0032385D02*
X0041768D01*
X0039101Y0032359D02*
X0041793D01*
X0039101Y0032334D02*
X0041793D01*
X0039075Y0032309D02*
X0041819D01*
X0039075Y0032283D02*
X0041819D01*
X0039050Y0032258D02*
X0041844D01*
X0039025Y0032232D02*
X0041844D01*
X0039025Y0032207D02*
X0041844D01*
X0038999Y0032182D02*
X0041869D01*
X0038974Y0032156D02*
X0041869D01*
X0038974Y0032131D02*
X0041869D01*
X0038948Y0032105D02*
X0041844D01*
X0038948Y0032080D02*
X0041844D01*
X0038923Y0032055D02*
X0041844D01*
X0038898Y0032029D02*
X0041819D01*
X0038898Y0032004D02*
X0041819D01*
X0038872Y0031978D02*
X0041793D01*
X0038872Y0031953D02*
X0041793D01*
X0038847Y0031928D02*
X0041768D01*
X0038821Y0031902D02*
X0041742D01*
X0038821Y0031877D02*
X0041717D01*
X0038796Y0031851D02*
X0041692D01*
X0038796Y0031826D02*
X0041641D01*
X0038771Y0031801D02*
X0041615D01*
X0038745Y0031775D02*
X0041565D01*
X0038745Y0031750D02*
X0041514D01*
X0038720Y0031724D02*
X0041463D01*
X0038694Y0031699D02*
X0041412D01*
X0038694Y0031674D02*
X0041336D01*
X0038669Y0031648D02*
X0041260D01*
X0038669Y0031623D02*
X0041158D01*
X0038644Y0031597D02*
X0041031D01*
X0038618Y0031572D02*
X0040904D01*
X0038618Y0031547D02*
X0040701D01*
X0038593Y0031521D02*
X0040396D01*
X0038593Y0031496D02*
X0039888D01*
X0038567Y0031470D02*
X0039710D01*
X0038542Y0031445D02*
X0039583D01*
X0038542Y0031420D02*
X0039482D01*
X0038517Y0031394D02*
X0039406D01*
X0038491Y0031369D02*
X0039329D01*
X0038491Y0031343D02*
X0039253D01*
X0038466Y0031318D02*
X0039202D01*
X0038466Y0031293D02*
X0039152D01*
X0038440Y0031267D02*
X0039101D01*
X0038415Y0031242D02*
X0039050D01*
X0038415Y0031216D02*
X0039025D01*
X0038390Y0031191D02*
X0038974D01*
X0038390Y0031166D02*
X0038948D01*
X0038390Y0031140D02*
X0038898D01*
X0038415Y0031115D02*
X0038872D01*
X0038466Y0031089D02*
X0038847D01*
X0038491Y0031064D02*
X0038821D01*
X0038542Y0031039D02*
X0038796D01*
X0038567Y0031013D02*
X0038771D01*
X0038618Y0030988D02*
X0038745D01*
X0038644Y0030962D02*
X0038720D01*
X0038009Y0030581D02*
X0038059D01*
X0038009Y0030556D02*
X0038085D01*
X0037983Y0030531D02*
X0038136D01*
X0042682D02*
X0042708D01*
X0037958Y0030505D02*
X0038161D01*
X0042606D02*
X0042733D01*
X0037958Y0030480D02*
X0038212D01*
X0042555D02*
X0042733D01*
X0037932Y0030454D02*
X0038263D01*
X0042479D02*
X0042758D01*
X0037932Y0030429D02*
X0038288D01*
X0042403D02*
X0042758D01*
X0037907Y0030404D02*
X0038339D01*
X0042327D02*
X0042784D01*
X0037882Y0030378D02*
X0038339D01*
X0042327D02*
X0042784D01*
X0037882Y0030353D02*
X0038339D01*
X0042327D02*
X0042809D01*
X0037856Y0030327D02*
X0038313D01*
X0042301D02*
X0042835D01*
X0037856Y0030302D02*
X0038313D01*
X0042301D02*
X0042835D01*
X0037831Y0030277D02*
X0038288D01*
X0042276D02*
X0042860D01*
X0037805Y0030251D02*
X0038288D01*
X0042276D02*
X0042860D01*
X0037805Y0030226D02*
X0038263D01*
X0042250D02*
X0042885D01*
X0037780Y0030200D02*
X0038263D01*
X0042225D02*
X0042885D01*
X0037780Y0030175D02*
X0038237D01*
X0042225D02*
X0042911D01*
X0037755Y0030150D02*
X0038237D01*
X0042200D02*
X0042911D01*
X0037729Y0030124D02*
X0038237D01*
X0042200D02*
X0042936D01*
X0037729Y0030099D02*
X0038212D01*
X0042174D02*
X0042936D01*
X0037704Y0030073D02*
X0038212D01*
X0042149D02*
X0042962D01*
X0037704Y0030048D02*
X0038186D01*
X0042149D02*
X0042962D01*
X0037678Y0030023D02*
X0038186D01*
X0042123D02*
X0042987D01*
X0037653Y0029997D02*
X0038161D01*
X0042098D02*
X0043012D01*
X0037653Y0029972D02*
X0038161D01*
X0039075D02*
X0039126D01*
X0042073D02*
X0043012D01*
X0037628Y0029946D02*
X0038136D01*
X0039075D02*
X0039152D01*
X0042073D02*
X0043038D01*
X0037628Y0029921D02*
X0038136D01*
X0039050D02*
X0039177D01*
X0042047D02*
X0043038D01*
X0037602Y0029896D02*
X0038136D01*
X0039050D02*
X0039202D01*
X0042022D02*
X0043063D01*
X0037577Y0029870D02*
X0038110D01*
X0039025D02*
X0039228D01*
X0041996D02*
X0043063D01*
X0037577Y0029845D02*
X0038110D01*
X0039025D02*
X0039253D01*
X0041971D02*
X0043089D01*
X0037551Y0029819D02*
X0038110D01*
X0038999D02*
X0039279D01*
X0041946D02*
X0043089D01*
X0037551Y0029794D02*
X0038085D01*
X0038974D02*
X0039101D01*
X0039152D02*
X0039304D01*
X0041946D02*
X0043114D01*
X0037526Y0029769D02*
X0038085D01*
X0038948D02*
X0039101D01*
X0039177D02*
X0039355D01*
X0041920D02*
X0043114D01*
X0037501Y0029743D02*
X0038059D01*
X0038948D02*
X0039075D01*
X0039202D02*
X0039380D01*
X0041895D02*
X0043139D01*
X0037501Y0029718D02*
X0038059D01*
X0038923D02*
X0039075D01*
X0039228D02*
X0039406D01*
X0041844D02*
X0043165D01*
X0037475Y0029692D02*
X0038059D01*
X0038898D02*
X0039075D01*
X0039253D02*
X0039456D01*
X0041819D02*
X0043165D01*
X0037475Y0029667D02*
X0038034D01*
X0038872D02*
X0039050D01*
X0039279D02*
X0039482D01*
X0041793D02*
X0043190D01*
X0037450Y0029642D02*
X0038034D01*
X0038847D02*
X0039050D01*
X0039304D02*
X0039533D01*
X0041768D02*
X0043190D01*
X0037424Y0029616D02*
X0038034D01*
X0038821D02*
X0039025D01*
X0039329D02*
X0039558D01*
X0041742D02*
X0043216D01*
X0037424Y0029591D02*
X0038034D01*
X0038821D02*
X0038999D01*
X0039380D02*
X0039609D01*
X0041717D02*
X0043216D01*
X0037399Y0029565D02*
X0038034D01*
X0038796D02*
X0038999D01*
X0039380D02*
X0039634D01*
X0041666D02*
X0043241D01*
X0037399Y0029540D02*
X0038009D01*
X0038771D02*
X0038974D01*
X0039355D02*
X0039482D01*
X0039533D02*
X0039685D01*
X0041641D02*
X0043241D01*
X0037374Y0029515D02*
X0038009D01*
X0038745D02*
X0038974D01*
X0039329D02*
X0039456D01*
X0039583D02*
X0039736D01*
X0041590D02*
X0043266D01*
X0037348Y0029489D02*
X0038009D01*
X0038720D02*
X0038948D01*
X0039329D02*
X0039456D01*
X0039634D02*
X0039787D01*
X0041565D02*
X0043266D01*
X0037348Y0029464D02*
X0038009D01*
X0038669D02*
X0038923D01*
X0039304D02*
X0039431D01*
X0039685D02*
X0039837D01*
X0041514D02*
X0043292D01*
X0037323Y0029438D02*
X0038009D01*
X0038669D02*
X0038898D01*
X0039304D02*
X0039431D01*
X0039736D02*
X0039914D01*
X0041463D02*
X0043292D01*
X0037323Y0029413D02*
X0038009D01*
X0038669D02*
X0038872D01*
X0039279D02*
X0039406D01*
X0039736D02*
X0039964D01*
X0041438D02*
X0043317D01*
X0037297Y0029388D02*
X0038034D01*
X0038694D02*
X0038872D01*
X0039279D02*
X0039406D01*
X0039736D02*
X0040041D01*
X0041438D02*
X0043343D01*
X0037272Y0029362D02*
X0038034D01*
X0038694D02*
X0038872D01*
X0039253D02*
X0039406D01*
X0039736D02*
X0040066D01*
X0041438D02*
X0043343D01*
X0037272Y0029337D02*
X0038034D01*
X0038720D02*
X0038898D01*
X0039253D02*
X0039380D01*
X0039761D02*
X0040041D01*
X0041438D02*
X0043368D01*
X0037247Y0029311D02*
X0038034D01*
X0038720D02*
X0038898D01*
X0039253D02*
X0039380D01*
X0039761D02*
X0040015D01*
X0041412D02*
X0043368D01*
X0037247Y0029286D02*
X0038034D01*
X0038720D02*
X0038898D01*
X0039253D02*
X0039380D01*
X0039812D02*
X0040015D01*
X0041412D02*
X0043393D01*
X0037221Y0029261D02*
X0038034D01*
X0038745D02*
X0038923D01*
X0039253D02*
X0039380D01*
X0039837D02*
X0039990D01*
X0041438D02*
X0043393D01*
X0037196Y0029235D02*
X0038034D01*
X0038745D02*
X0038923D01*
X0039253D02*
X0039380D01*
X0039837D02*
X0039964D01*
X0041488D02*
X0043419D01*
X0037196Y0029210D02*
X0038034D01*
X0038745D02*
X0038923D01*
X0039279D02*
X0039406D01*
X0039812D02*
X0039939D01*
X0041539D02*
X0043419D01*
X0037170Y0029184D02*
X0038059D01*
X0038771D02*
X0038923D01*
X0039279D02*
X0039406D01*
X0039787D02*
X0039914D01*
X0041565D02*
X0043444D01*
X0037170Y0029159D02*
X0038059D01*
X0038771D02*
X0038923D01*
X0039279D02*
X0039431D01*
X0039761D02*
X0039888D01*
X0041615D02*
X0043444D01*
X0037145Y0029134D02*
X0038059D01*
X0038771D02*
X0038923D01*
X0039279D02*
X0039431D01*
X0039736D02*
X0039863D01*
X0041666D02*
X0043470D01*
X0037120Y0029108D02*
X0038059D01*
X0038771D02*
X0038948D01*
X0039304D02*
X0039431D01*
X0039685D02*
X0039837D01*
X0041717D02*
X0043495D01*
X0037120Y0029083D02*
X0038059D01*
X0038796D02*
X0038948D01*
X0039304D02*
X0039456D01*
X0039660D02*
X0039837D01*
X0041742D02*
X0043495D01*
X0037094Y0029057D02*
X0038059D01*
X0038796D02*
X0038948D01*
X0039304D02*
X0039456D01*
X0039634D02*
X0039812D01*
X0041793D02*
X0043520D01*
X0037094Y0029032D02*
X0038085D01*
X0038796D02*
X0038948D01*
X0039304D02*
X0039482D01*
X0039609D02*
X0039787D01*
X0041844D02*
X0043520D01*
X0037069Y0029007D02*
X0038085D01*
X0038796D02*
X0038948D01*
X0039329D02*
X0039482D01*
X0039583D02*
X0039736D01*
X0041869D02*
X0043546D01*
X0037043Y0028981D02*
X0038085D01*
X0038796D02*
X0038948D01*
X0039329D02*
X0039507D01*
X0039558D02*
X0039710D01*
X0041920D02*
X0043546D01*
X0037043Y0028956D02*
X0038085D01*
X0038796D02*
X0038948D01*
X0039329D02*
X0039507D01*
X0039533D02*
X0039685D01*
X0041971D02*
X0043571D01*
X0037018Y0028930D02*
X0038110D01*
X0038796D02*
X0038948D01*
X0039329D02*
X0039660D01*
X0040726D02*
X0040828D01*
X0042022D02*
X0043571D01*
X0037018Y0028905D02*
X0038110D01*
X0038796D02*
X0038948D01*
X0039355D02*
X0039634D01*
X0040676D02*
X0040853D01*
X0042047D02*
X0043597D01*
X0036993Y0028880D02*
X0038110D01*
X0038796D02*
X0038948D01*
X0039355D02*
X0039609D01*
X0040650D02*
X0040904D01*
X0042098D02*
X0043597D01*
X0036967Y0028854D02*
X0038110D01*
X0038796D02*
X0038948D01*
X0039355D02*
X0039583D01*
X0040599D02*
X0040930D01*
X0042149D02*
X0043622D01*
X0036967Y0028829D02*
X0038136D01*
X0038796D02*
X0038948D01*
X0039380D02*
X0039558D01*
X0040574D02*
X0040980D01*
X0042200D02*
X0043622D01*
X0036942Y0028803D02*
X0038136D01*
X0038796D02*
X0038948D01*
X0039355D02*
X0039533D01*
X0040549D02*
X0041031D01*
X0042225D02*
X0043647D01*
X0036942Y0028778D02*
X0038136D01*
X0038771D02*
X0038948D01*
X0039329D02*
X0039507D01*
X0040523D02*
X0041057D01*
X0042276D02*
X0043673D01*
X0036916Y0028753D02*
X0038136D01*
X0038771D02*
X0038948D01*
X0039329D02*
X0039456D01*
X0040498D02*
X0041107D01*
X0042327D02*
X0043673D01*
X0036891Y0028727D02*
X0038161D01*
X0038771D02*
X0038948D01*
X0039304D02*
X0039431D01*
X0040472D02*
X0041133D01*
X0042352D02*
X0043698D01*
X0036891Y0028702D02*
X0038161D01*
X0038745D02*
X0038948D01*
X0039304D02*
X0039406D01*
X0040447D02*
X0041184D01*
X0042403D02*
X0043698D01*
X0036866Y0028676D02*
X0038161D01*
X0038745D02*
X0038948D01*
X0039279D02*
X0039406D01*
X0040422D02*
X0040523D01*
X0040549D02*
X0041234D01*
X0042454D02*
X0043724D01*
X0036866Y0028651D02*
X0038186D01*
X0038745D02*
X0038974D01*
X0039253D02*
X0039380D01*
X0040396D02*
X0040498D01*
X0040549D02*
X0041260D01*
X0042504D02*
X0043724D01*
X0036840Y0028626D02*
X0038186D01*
X0038720D02*
X0038974D01*
X0039253D02*
X0039355D01*
X0040371D02*
X0040498D01*
X0040574D02*
X0041311D01*
X0042530D02*
X0043749D01*
X0036815Y0028600D02*
X0038186D01*
X0038745D02*
X0038999D01*
X0039228D02*
X0039329D01*
X0040371D02*
X0040472D01*
X0040574D02*
X0041336D01*
X0042581D02*
X0043749D01*
X0036815Y0028575D02*
X0038186D01*
X0038771D02*
X0038999D01*
X0039228D02*
X0039329D01*
X0040345D02*
X0040447D01*
X0040574D02*
X0041387D01*
X0042631D02*
X0043774D01*
X0036789Y0028549D02*
X0038212D01*
X0038796D02*
X0039025D01*
X0039202D02*
X0039304D01*
X0040320D02*
X0040422D01*
X0040574D02*
X0041438D01*
X0042657D02*
X0043774D01*
X0036789Y0028524D02*
X0038212D01*
X0038821D02*
X0039025D01*
X0039202D02*
X0039304D01*
X0040295D02*
X0040396D01*
X0040549D02*
X0041463D01*
X0042708D02*
X0043800D01*
X0036764Y0028499D02*
X0038212D01*
X0038821D02*
X0039050D01*
X0039177D02*
X0039279D01*
X0040269D02*
X0040396D01*
X0040549D02*
X0041514D01*
X0042758D02*
X0043825D01*
X0036739Y0028473D02*
X0038237D01*
X0038847D02*
X0039050D01*
X0039177D02*
X0039279D01*
X0040244D02*
X0040371D01*
X0040523D02*
X0041539D01*
X0042809D02*
X0043825D01*
X0036739Y0028448D02*
X0038237D01*
X0038847D02*
X0039075D01*
X0039152D02*
X0039253D01*
X0040244D02*
X0040345D01*
X0040498D02*
X0041590D01*
X0042835D02*
X0043851D01*
X0036713Y0028422D02*
X0038237D01*
X0038872D02*
X0039101D01*
X0039152D02*
X0039253D01*
X0040218D02*
X0040320D01*
X0040447D02*
X0041641D01*
X0042885D02*
X0043851D01*
X0036713Y0028397D02*
X0038263D01*
X0038872D02*
X0039101D01*
X0039152D02*
X0039253D01*
X0040193D02*
X0040295D01*
X0040396D02*
X0041666D01*
X0042936D02*
X0043876D01*
X0036688Y0028372D02*
X0038263D01*
X0038898D02*
X0039228D01*
X0040168D02*
X0041717D01*
X0042962D02*
X0043876D01*
X0036662Y0028346D02*
X0038263D01*
X0038898D02*
X0039228D01*
X0040142D02*
X0041742D01*
X0043012D02*
X0043901D01*
X0036662Y0028321D02*
X0038288D01*
X0038898D02*
X0039228D01*
X0040142D02*
X0041793D01*
X0043063D02*
X0043901D01*
X0036637Y0028295D02*
X0038288D01*
X0038923D02*
X0039228D01*
X0039685D02*
X0039837D01*
X0040117D02*
X0041844D01*
X0043114D02*
X0043927D01*
X0036637Y0028270D02*
X0038288D01*
X0038923D02*
X0039228D01*
X0039609D02*
X0039939D01*
X0040091D02*
X0040218D01*
X0040269D02*
X0041869D01*
X0043139D02*
X0043927D01*
X0036612Y0028245D02*
X0038313D01*
X0038390D02*
X0038491D01*
X0038923D02*
X0039228D01*
X0039558D02*
X0039990D01*
X0040066D02*
X0040193D01*
X0040269D02*
X0041920D01*
X0043190D02*
X0043952D01*
X0036586Y0028219D02*
X0038313D01*
X0038339D02*
X0038542D01*
X0038923D02*
X0039228D01*
X0039507D02*
X0040015D01*
X0040041D02*
X0040168D01*
X0040269D02*
X0041946D01*
X0043241D02*
X0043978D01*
X0036586Y0028194D02*
X0038567D01*
X0038923D02*
X0039228D01*
X0039482D02*
X0039634D01*
X0039863D02*
X0040168D01*
X0040269D02*
X0041996D01*
X0043266D02*
X0043978D01*
X0036561Y0028168D02*
X0038567D01*
X0038948D02*
X0039228D01*
X0039456D02*
X0039583D01*
X0039914D02*
X0040142D01*
X0040269D02*
X0042047D01*
X0043317D02*
X0044003D01*
X0036561Y0028143D02*
X0038390D01*
X0038466D02*
X0038593D01*
X0038948D02*
X0039228D01*
X0039406D02*
X0039533D01*
X0039964D02*
X0040117D01*
X0040269D02*
X0042073D01*
X0043368D02*
X0044003D01*
X0036535Y0028118D02*
X0038390D01*
X0038491D02*
X0038593D01*
X0038948D02*
X0039228D01*
X0039380D02*
X0039507D01*
X0039964D02*
X0040091D01*
X0040244D02*
X0042123D01*
X0043419D02*
X0044028D01*
X0036510Y0028092D02*
X0038390D01*
X0038517D02*
X0038618D01*
X0038948D02*
X0039228D01*
X0039380D02*
X0039482D01*
X0039964D02*
X0040066D01*
X0040244D02*
X0042149D01*
X0043444D02*
X0044028D01*
X0036510Y0028067D02*
X0038390D01*
X0038542D02*
X0038618D01*
X0038948D02*
X0039228D01*
X0039355D02*
X0039456D01*
X0039964D02*
X0040066D01*
X0040218D02*
X0042200D01*
X0043495D02*
X0044054D01*
X0036485Y0028041D02*
X0038390D01*
X0038567D02*
X0038618D01*
X0038948D02*
X0039228D01*
X0039329D02*
X0039431D01*
X0039939D02*
X0040041D01*
X0040168D02*
X0042250D01*
X0043546D02*
X0044054D01*
X0036485Y0028016D02*
X0038390D01*
X0038567D02*
X0038644D01*
X0038948D02*
X0039228D01*
X0039304D02*
X0039406D01*
X0039914D02*
X0040015D01*
X0040117D02*
X0042276D01*
X0043597D02*
X0044079D01*
X0036459Y0027991D02*
X0038390D01*
X0038567D02*
X0038644D01*
X0038948D02*
X0039253D01*
X0039279D02*
X0039380D01*
X0039914D02*
X0039990D01*
X0040015D02*
X0042327D01*
X0043622D02*
X0044079D01*
X0036434Y0027965D02*
X0038390D01*
X0038593D02*
X0038644D01*
X0038948D02*
X0039253D01*
X0039279D02*
X0039355D01*
X0039888D02*
X0042352D01*
X0043673D02*
X0044105D01*
X0036434Y0027940D02*
X0038390D01*
X0038593D02*
X0038644D01*
X0038948D02*
X0039355D01*
X0039863D02*
X0042403D01*
X0043724D02*
X0044105D01*
X0036408Y0027914D02*
X0038390D01*
X0038593D02*
X0038669D01*
X0038948D02*
X0039329D01*
X0039812D02*
X0042454D01*
X0043749D02*
X0044130D01*
X0036408Y0027889D02*
X0038390D01*
X0038593D02*
X0038669D01*
X0038948D02*
X0039329D01*
X0039787D02*
X0042479D01*
X0043800D02*
X0044155D01*
X0036383Y0027864D02*
X0038390D01*
X0038593D02*
X0038669D01*
X0038948D02*
X0039329D01*
X0039736D02*
X0042530D01*
X0043851D02*
X0044155D01*
X0036358Y0027838D02*
X0038415D01*
X0038593D02*
X0038669D01*
X0038923D02*
X0039355D01*
X0039685D02*
X0042555D01*
X0043901D02*
X0044181D01*
X0036358Y0027813D02*
X0038415D01*
X0038593D02*
X0038669D01*
X0038923D02*
X0039380D01*
X0039583D02*
X0042606D01*
X0043927D02*
X0044181D01*
X0036332Y0027787D02*
X0038415D01*
X0038618D02*
X0038669D01*
X0038923D02*
X0042657D01*
X0043978D02*
X0044206D01*
X0036332Y0027762D02*
X0038440D01*
X0038618D02*
X0038669D01*
X0038923D02*
X0042682D01*
X0044028D02*
X0044206D01*
X0036307Y0027737D02*
X0038440D01*
X0038618D02*
X0038669D01*
X0038898D02*
X0042733D01*
X0044054D02*
X0044232D01*
X0036281Y0027711D02*
X0038466D01*
X0038618D02*
X0038694D01*
X0038898D02*
X0042758D01*
X0044105D02*
X0044232D01*
X0036281Y0027686D02*
X0038517D01*
X0038618D02*
X0038694D01*
X0038898D02*
X0042809D01*
X0044155D02*
X0044257D01*
X0036256Y0027660D02*
X0038694D01*
X0038872D02*
X0042860D01*
X0044206D02*
X0044257D01*
X0036256Y0027635D02*
X0038694D01*
X0038847D02*
X0042885D01*
X0044232D02*
X0044257D01*
X0036231Y0027610D02*
X0038694D01*
X0038821D02*
X0042936D01*
X0036205Y0027584D02*
X0042962D01*
X0036205Y0027559D02*
X0043012D01*
X0036180Y0027533D02*
X0043063D01*
X0036180Y0027508D02*
X0043089D01*
X0036154Y0027483D02*
X0043139D01*
X0036129Y0027457D02*
X0043165D01*
X0036129Y0027432D02*
X0043216D01*
X0036104Y0027406D02*
X0043266D01*
X0036104Y0027381D02*
X0043292D01*
X0036078Y0027356D02*
X0043343D01*
X0036053Y0027330D02*
X0043368D01*
X0036053Y0027305D02*
X0043419D01*
X0036027Y0027279D02*
X0043470D01*
X0036027Y0027254D02*
X0043495D01*
X0036002Y0027229D02*
X0043546D01*
X0035977Y0027203D02*
X0043571D01*
X0035977Y0027178D02*
X0043622D01*
X0035951Y0027152D02*
X0043673D01*
X0035951Y0027127D02*
X0043698D01*
X0035926Y0027102D02*
X0043749D01*
X0035900Y0027076D02*
X0043774D01*
X0035900Y0027051D02*
X0043825D01*
X0035875Y0027025D02*
X0043876D01*
X0035875Y0027000D02*
X0043901D01*
D73*
X0042675Y0047035D02*
X0044428D01*
X0044656D02*
X0046028D01*
X0042675Y0047010D02*
X0044402D01*
X0044605D02*
X0046028D01*
X0042675Y0046984D02*
X0044351D01*
X0044580D02*
X0046028D01*
X0042675Y0046959D02*
X0044301D01*
X0044529D02*
X0046028D01*
X0042675Y0046934D02*
X0044250D01*
X0044504D02*
X0046028D01*
X0042675Y0046908D02*
X0044199D01*
X0044453D02*
X0046028D01*
X0042675Y0046883D02*
X0044174D01*
X0044428D02*
X0046028D01*
X0042675Y0046857D02*
X0044123D01*
X0044377D02*
X0046028D01*
X0042675Y0046832D02*
X0044072D01*
X0044326D02*
X0046028D01*
X0042675Y0046807D02*
X0044021D01*
X0044301D02*
X0046028D01*
X0042675Y0046781D02*
X0043996D01*
X0044250D02*
X0046028D01*
X0042675Y0046756D02*
X0043945D01*
X0044224D02*
X0046028D01*
X0042675Y0046730D02*
X0043920D01*
X0044174D02*
X0046028D01*
X0042675Y0046705D02*
X0043869D01*
X0044148D02*
X0046028D01*
X0042675Y0046680D02*
X0043843D01*
X0044097D02*
X0046028D01*
X0042675Y0046654D02*
X0043793D01*
X0044072D02*
X0046028D01*
X0042675Y0046629D02*
X0043767D01*
X0044021D02*
X0046028D01*
X0042675Y0046603D02*
X0043716D01*
X0043996D02*
X0046028D01*
X0042675Y0046578D02*
X0043691D01*
X0043945D02*
X0046028D01*
X0042675Y0046553D02*
X0043640D01*
X0043920D02*
X0046028D01*
X0042675Y0046527D02*
X0043615D01*
X0043869D02*
X0046028D01*
X0042675Y0046502D02*
X0043589D01*
X0043843D02*
X0046028D01*
X0042675Y0046476D02*
X0043539D01*
X0043818D02*
X0046028D01*
X0042675Y0046451D02*
X0043513D01*
X0043793D02*
X0046028D01*
X0042675Y0046426D02*
X0043488D01*
X0043767D02*
X0046028D01*
X0042675Y0046400D02*
X0043462D01*
X0043716D02*
X0046028D01*
X0042675Y0046375D02*
X0043412D01*
X0043691D02*
X0046028D01*
X0042675Y0046349D02*
X0043386D01*
X0043666D02*
X0046028D01*
X0042675Y0046324D02*
X0043361D01*
X0043640D02*
X0046028D01*
X0042675Y0046299D02*
X0043335D01*
X0043615D02*
X0046028D01*
X0042675Y0046273D02*
X0043310D01*
X0043589D02*
X0046028D01*
X0042675Y0046248D02*
X0043285D01*
X0043589D02*
X0046028D01*
X0042675Y0046222D02*
X0043259D01*
X0043564D02*
X0046028D01*
X0042675Y0046197D02*
X0043234D01*
X0043539D02*
X0046028D01*
X0042675Y0046172D02*
X0043208D01*
X0043513D02*
X0046028D01*
X0042675Y0046146D02*
X0043183D01*
X0043513D02*
X0046028D01*
X0042675Y0046121D02*
X0043158D01*
X0043488D02*
X0046028D01*
X0042675Y0046095D02*
X0043132D01*
X0043462D02*
X0046028D01*
X0042675Y0046070D02*
X0043107D01*
X0043462D02*
X0046028D01*
X0042675Y0046045D02*
X0043081D01*
X0043437D02*
X0046028D01*
X0042675Y0046019D02*
X0043056D01*
X0043412D02*
X0046028D01*
X0042675Y0045994D02*
X0043031D01*
X0043412D02*
X0046028D01*
X0042675Y0045968D02*
X0043005D01*
X0043386D02*
X0046028D01*
X0042675Y0045943D02*
X0043005D01*
X0043386D02*
X0046028D01*
X0042675Y0045918D02*
X0042980D01*
X0043361D02*
X0046028D01*
X0042675Y0045892D02*
X0042954D01*
X0043361D02*
X0046028D01*
X0042675Y0045867D02*
X0042929D01*
X0043335D02*
X0046028D01*
X0042675Y0045841D02*
X0042929D01*
X0043335D02*
X0046028D01*
X0042675Y0045816D02*
X0042904D01*
X0043335D02*
X0046028D01*
X0042675Y0045791D02*
X0042878D01*
X0043335D02*
X0046028D01*
X0042675Y0045765D02*
X0042878D01*
X0043335D02*
X0046028D01*
X0042675Y0045740D02*
X0042853D01*
X0043335D02*
X0046028D01*
X0042675Y0045714D02*
X0042827D01*
X0043335D02*
X0046028D01*
X0042675Y0045689D02*
X0042827D01*
X0043335D02*
X0046028D01*
X0042675Y0045664D02*
X0042802D01*
X0043361D02*
X0046028D01*
X0042675Y0045638D02*
X0042802D01*
X0043361D02*
X0046028D01*
X0042675Y0045613D02*
X0042777D01*
X0043386D02*
X0046028D01*
X0042675Y0045587D02*
X0042777D01*
X0043412D02*
X0046028D01*
X0042675Y0045562D02*
X0042751D01*
X0043437D02*
X0046028D01*
X0042675Y0045537D02*
X0042751D01*
X0043462D02*
X0046028D01*
X0042675Y0045511D02*
X0042726D01*
X0043488D02*
X0046028D01*
X0042675Y0045486D02*
X0042726D01*
X0043564D02*
X0046028D01*
X0042675Y0045460D02*
X0042700D01*
X0043640D02*
X0046028D01*
X0042675Y0045435D02*
X0042700D01*
X0043767D02*
X0046028D01*
X0042675Y0045410D02*
X0042700D01*
X0043996D02*
X0046028D01*
X0044351Y0045384D02*
X0046028D01*
X0044631Y0045359D02*
X0046028D01*
X0044859Y0045333D02*
X0046028D01*
X0045012Y0045308D02*
X0046028D01*
X0045139Y0045283D02*
X0046028D01*
X0045240Y0045257D02*
X0046028D01*
X0045342Y0045232D02*
X0046028D01*
X0047653D02*
X0048517D01*
X0063122D02*
X0063960D01*
X0045393Y0045206D02*
X0046028D01*
X0047501D02*
X0048720D01*
X0049635D02*
X0051946D01*
X0052302D02*
X0053368D01*
X0054892D02*
X0055959D01*
X0056213D02*
X0059058D01*
X0059363D02*
X0061649D01*
X0062919D02*
X0064163D01*
X0065179D02*
X0065941D01*
X0067288D02*
X0068050D01*
X0045469Y0045181D02*
X0046028D01*
X0047374D02*
X0048847D01*
X0049635D02*
X0051946D01*
X0052276D02*
X0053419D01*
X0054867D02*
X0055959D01*
X0056213D02*
X0059083D01*
X0059337D02*
X0061674D01*
X0062792D02*
X0064290D01*
X0065179D02*
X0065967D01*
X0067262D02*
X0068075D01*
X0045520Y0045156D02*
X0046028D01*
X0047272D02*
X0048923D01*
X0049635D02*
X0051946D01*
X0052276D02*
X0053419D01*
X0054867D02*
X0055959D01*
X0056213D02*
X0059083D01*
X0059337D02*
X0061674D01*
X0062690D02*
X0064392D01*
X0065179D02*
X0065967D01*
X0067262D02*
X0068075D01*
X0045571Y0045130D02*
X0046028D01*
X0047196D02*
X0049000D01*
X0049635D02*
X0051946D01*
X0052276D02*
X0053445D01*
X0054842D02*
X0055959D01*
X0056213D02*
X0059083D01*
X0059337D02*
X0061674D01*
X0062589D02*
X0064468D01*
X0065179D02*
X0065967D01*
X0067262D02*
X0068075D01*
X0045621Y0045105D02*
X0046028D01*
X0047145D02*
X0049050D01*
X0049635D02*
X0051946D01*
X0052276D02*
X0053445D01*
X0054842D02*
X0055959D01*
X0056213D02*
X0059083D01*
X0059337D02*
X0061674D01*
X0062512D02*
X0064544D01*
X0065179D02*
X0065967D01*
X0067262D02*
X0068075D01*
X0045647Y0045079D02*
X0046028D01*
X0047095D02*
X0049101D01*
X0049635D02*
X0051946D01*
X0052276D02*
X0053470D01*
X0054816D02*
X0055959D01*
X0056213D02*
X0059083D01*
X0059337D02*
X0061674D01*
X0062462D02*
X0064595D01*
X0065179D02*
X0065967D01*
X0067262D02*
X0068075D01*
X0045698Y0045054D02*
X0046028D01*
X0047044D02*
X0049152D01*
X0049635D02*
X0051946D01*
X0052276D02*
X0053470D01*
X0054791D02*
X0055959D01*
X0056213D02*
X0059083D01*
X0059337D02*
X0061674D01*
X0062411D02*
X0064646D01*
X0065179D02*
X0065967D01*
X0067262D02*
X0068075D01*
X0042675Y0045029D02*
X0042700D01*
X0045723D02*
X0046028D01*
X0047018D02*
X0049177D01*
X0049635D02*
X0051946D01*
X0052276D02*
X0053495D01*
X0054791D02*
X0055959D01*
X0056213D02*
X0059083D01*
X0059337D02*
X0061674D01*
X0062360D02*
X0064697D01*
X0065179D02*
X0065967D01*
X0067262D02*
X0068075D01*
X0042675Y0045003D02*
X0042726D01*
X0045748D02*
X0046028D01*
X0046968D02*
X0049203D01*
X0049635D02*
X0051946D01*
X0052276D02*
X0053495D01*
X0054765D02*
X0055959D01*
X0056213D02*
X0059083D01*
X0059337D02*
X0061674D01*
X0062309D02*
X0064748D01*
X0065179D02*
X0065967D01*
X0067262D02*
X0068075D01*
X0042675Y0044978D02*
X0042726D01*
X0045774D02*
X0046028D01*
X0046942D02*
X0049228D01*
X0049635D02*
X0051946D01*
X0052276D02*
X0053521D01*
X0054765D02*
X0055959D01*
X0056213D02*
X0059083D01*
X0059337D02*
X0061674D01*
X0062258D02*
X0064773D01*
X0065179D02*
X0065967D01*
X0067262D02*
X0068075D01*
X0042675Y0044952D02*
X0042751D01*
X0045799D02*
X0046028D01*
X0046917D02*
X0049254D01*
X0049635D02*
X0051946D01*
X0052276D02*
X0053546D01*
X0054740D02*
X0055959D01*
X0056213D02*
X0059083D01*
X0059337D02*
X0061674D01*
X0062233D02*
X0064798D01*
X0065179D02*
X0065967D01*
X0067262D02*
X0068075D01*
X0042675Y0044927D02*
X0042802D01*
X0045825D02*
X0046028D01*
X0046891D02*
X0049254D01*
X0049635D02*
X0051946D01*
X0052276D02*
X0053546D01*
X0054715D02*
X0055959D01*
X0056213D02*
X0059083D01*
X0059337D02*
X0061674D01*
X0062182D02*
X0064824D01*
X0065179D02*
X0065967D01*
X0067262D02*
X0068075D01*
X0042675Y0044902D02*
X0042827D01*
X0045850D02*
X0046028D01*
X0046866D02*
X0047933D01*
X0048263D02*
X0049279D01*
X0049635D02*
X0051946D01*
X0052276D02*
X0053572D01*
X0054715D02*
X0055959D01*
X0056213D02*
X0059083D01*
X0059337D02*
X0061674D01*
X0062157D02*
X0064849D01*
X0065179D02*
X0065967D01*
X0067262D02*
X0068075D01*
X0042675Y0044876D02*
X0042878D01*
X0045850D02*
X0046028D01*
X0046866D02*
X0047780D01*
X0048390D02*
X0049279D01*
X0049635D02*
X0051946D01*
X0052276D02*
X0053572D01*
X0054689D02*
X0055959D01*
X0056213D02*
X0059083D01*
X0059337D02*
X0061674D01*
X0062131D02*
X0063325D01*
X0063732D02*
X0064875D01*
X0065179D02*
X0065967D01*
X0067262D02*
X0068075D01*
X0042675Y0044851D02*
X0042929D01*
X0045875D02*
X0046028D01*
X0046841D02*
X0047704D01*
X0048466D02*
X0049304D01*
X0049635D02*
X0051946D01*
X0052276D02*
X0052886D01*
X0052911D02*
X0053597D01*
X0054689D02*
X0055959D01*
X0056213D02*
X0059058D01*
X0059337D02*
X0061649D01*
X0062106D02*
X0063198D01*
X0063859D02*
X0064875D01*
X0065179D02*
X0065967D01*
X0067262D02*
X0068075D01*
X0042675Y0044825D02*
X0043031D01*
X0045901D02*
X0046028D01*
X0046841D02*
X0047653D01*
X0048492D02*
X0049304D01*
X0049635D02*
X0050422D01*
X0052276D02*
X0052886D01*
X0052937D02*
X0053597D01*
X0054664D02*
X0055248D01*
X0055273D02*
X0055959D01*
X0057255D02*
X0058042D01*
X0059337D02*
X0060125D01*
X0062081D02*
X0063122D01*
X0063935D02*
X0064900D01*
X0065179D02*
X0065967D01*
X0067262D02*
X0068075D01*
X0042675Y0044800D02*
X0043132D01*
X0045926D02*
X0046028D01*
X0046815D02*
X0047628D01*
X0048517D02*
X0049304D01*
X0049635D02*
X0050422D01*
X0052276D02*
X0052886D01*
X0052937D02*
X0053622D01*
X0054638D02*
X0055248D01*
X0055273D02*
X0055959D01*
X0057255D02*
X0058042D01*
X0059337D02*
X0060125D01*
X0062081D02*
X0063046D01*
X0063986D02*
X0064925D01*
X0065179D02*
X0065967D01*
X0067262D02*
X0068075D01*
X0042675Y0044775D02*
X0043361D01*
X0045926D02*
X0046028D01*
X0046815D02*
X0047603D01*
X0048542D02*
X0049330D01*
X0049635D02*
X0050422D01*
X0052276D02*
X0052886D01*
X0052962D02*
X0053648D01*
X0054638D02*
X0055223D01*
X0055273D02*
X0055959D01*
X0057255D02*
X0058042D01*
X0059337D02*
X0060125D01*
X0062055D02*
X0062995D01*
X0064036D02*
X0064925D01*
X0065179D02*
X0065967D01*
X0067262D02*
X0068075D01*
X0042675Y0044749D02*
X0043793D01*
X0045952D02*
X0046028D01*
X0046815D02*
X0047603D01*
X0048542D02*
X0049330D01*
X0049635D02*
X0050422D01*
X0052276D02*
X0052886D01*
X0052962D02*
X0053648D01*
X0054613D02*
X0055197D01*
X0055273D02*
X0055959D01*
X0057255D02*
X0058042D01*
X0059337D02*
X0060125D01*
X0062030D02*
X0062970D01*
X0064062D02*
X0064925D01*
X0065179D02*
X0065967D01*
X0067262D02*
X0068075D01*
X0042675Y0044724D02*
X0044148D01*
X0045952D02*
X0046028D01*
X0046815D02*
X0047603D01*
X0048568D02*
X0049330D01*
X0049635D02*
X0050422D01*
X0052276D02*
X0052886D01*
X0052987D02*
X0053673D01*
X0054613D02*
X0055197D01*
X0055273D02*
X0055959D01*
X0057255D02*
X0058042D01*
X0059337D02*
X0060125D01*
X0062004D02*
X0062919D01*
X0064087D02*
X0064951D01*
X0065179D02*
X0065967D01*
X0067262D02*
X0068075D01*
X0042675Y0044698D02*
X0044326D01*
X0045977D02*
X0046028D01*
X0046815D02*
X0047603D01*
X0049635D02*
X0050422D01*
X0052276D02*
X0052886D01*
X0052987D02*
X0053673D01*
X0054588D02*
X0055172D01*
X0055273D02*
X0055959D01*
X0057255D02*
X0058042D01*
X0059337D02*
X0060125D01*
X0062004D02*
X0062893D01*
X0064087D02*
X0064951D01*
X0065179D02*
X0065967D01*
X0067262D02*
X0068075D01*
X0042675Y0044673D02*
X0044428D01*
X0045977D02*
X0046028D01*
X0046815D02*
X0047628D01*
X0049635D02*
X0050422D01*
X0052276D02*
X0052886D01*
X0053013D02*
X0053699D01*
X0054562D02*
X0055172D01*
X0055273D02*
X0055959D01*
X0057255D02*
X0058042D01*
X0059337D02*
X0060125D01*
X0061979D02*
X0062868D01*
X0064113D02*
X0064951D01*
X0065179D02*
X0065967D01*
X0067262D02*
X0068075D01*
X0042675Y0044648D02*
X0044529D01*
X0046002D02*
X0046028D01*
X0046815D02*
X0047679D01*
X0049635D02*
X0050422D01*
X0052276D02*
X0052886D01*
X0053038D02*
X0053699D01*
X0054562D02*
X0055146D01*
X0055273D02*
X0055959D01*
X0057255D02*
X0058042D01*
X0059337D02*
X0060125D01*
X0061979D02*
X0062843D01*
X0064113D02*
X0064951D01*
X0065179D02*
X0065967D01*
X0067262D02*
X0068075D01*
X0042675Y0044622D02*
X0044605D01*
X0046002D02*
X0046028D01*
X0046815D02*
X0047730D01*
X0049635D02*
X0050422D01*
X0052276D02*
X0052886D01*
X0053038D02*
X0053724D01*
X0054537D02*
X0055121D01*
X0055273D02*
X0055959D01*
X0057255D02*
X0058042D01*
X0059337D02*
X0060125D01*
X0061979D02*
X0062843D01*
X0065179D02*
X0065967D01*
X0067262D02*
X0068075D01*
X0042675Y0044597D02*
X0044682D01*
X0046815D02*
X0047857D01*
X0049635D02*
X0050422D01*
X0052276D02*
X0052886D01*
X0053064D02*
X0053724D01*
X0054537D02*
X0055121D01*
X0055273D02*
X0055959D01*
X0057255D02*
X0058042D01*
X0059337D02*
X0060125D01*
X0061954D02*
X0062817D01*
X0065179D02*
X0065967D01*
X0067262D02*
X0068075D01*
X0042675Y0044571D02*
X0044732D01*
X0046815D02*
X0048009D01*
X0049635D02*
X0050422D01*
X0052276D02*
X0052886D01*
X0053064D02*
X0053749D01*
X0054511D02*
X0055096D01*
X0055273D02*
X0055959D01*
X0057255D02*
X0058042D01*
X0059337D02*
X0060125D01*
X0061954D02*
X0062792D01*
X0065179D02*
X0065967D01*
X0067262D02*
X0068075D01*
X0042675Y0044546D02*
X0044783D01*
X0046841D02*
X0048187D01*
X0049635D02*
X0050422D01*
X0052276D02*
X0052886D01*
X0053089D02*
X0053775D01*
X0054486D02*
X0055096D01*
X0055273D02*
X0055959D01*
X0057255D02*
X0058042D01*
X0059337D02*
X0060125D01*
X0061954D02*
X0062792D01*
X0065179D02*
X0065967D01*
X0067262D02*
X0068075D01*
X0042675Y0044521D02*
X0044809D01*
X0046841D02*
X0048390D01*
X0049635D02*
X0051870D01*
X0052276D02*
X0052886D01*
X0053114D02*
X0053775D01*
X0054486D02*
X0055070D01*
X0055273D02*
X0055959D01*
X0057255D02*
X0058042D01*
X0059337D02*
X0061573D01*
X0061928D02*
X0062792D01*
X0065179D02*
X0065967D01*
X0067262D02*
X0068075D01*
X0042675Y0044495D02*
X0044859D01*
X0046866D02*
X0048568D01*
X0049635D02*
X0051870D01*
X0052276D02*
X0052886D01*
X0053114D02*
X0053800D01*
X0054461D02*
X0055070D01*
X0055273D02*
X0055959D01*
X0057255D02*
X0058042D01*
X0059337D02*
X0061573D01*
X0061928D02*
X0062766D01*
X0065179D02*
X0068075D01*
X0042675Y0044470D02*
X0044885D01*
X0046891D02*
X0048720D01*
X0049635D02*
X0051870D01*
X0052276D02*
X0052886D01*
X0053140D02*
X0053800D01*
X0054461D02*
X0055045D01*
X0055273D02*
X0055959D01*
X0057255D02*
X0058042D01*
X0059337D02*
X0061573D01*
X0061928D02*
X0062766D01*
X0065179D02*
X0068075D01*
X0042675Y0044444D02*
X0044910D01*
X0046891D02*
X0048847D01*
X0049635D02*
X0051870D01*
X0052276D02*
X0052886D01*
X0053140D02*
X0053826D01*
X0054435D02*
X0055019D01*
X0055273D02*
X0055959D01*
X0057255D02*
X0058042D01*
X0059337D02*
X0061573D01*
X0061928D02*
X0062766D01*
X0065179D02*
X0068075D01*
X0042675Y0044419D02*
X0044936D01*
X0046942D02*
X0048949D01*
X0049635D02*
X0051870D01*
X0052276D02*
X0052886D01*
X0053165D02*
X0053826D01*
X0054410D02*
X0055019D01*
X0055273D02*
X0055959D01*
X0057255D02*
X0058042D01*
X0059337D02*
X0061573D01*
X0061928D02*
X0062766D01*
X0065179D02*
X0068075D01*
X0042675Y0044394D02*
X0044961D01*
X0046968D02*
X0049025D01*
X0049635D02*
X0051870D01*
X0052276D02*
X0052886D01*
X0053165D02*
X0053851D01*
X0054410D02*
X0054994D01*
X0055273D02*
X0055959D01*
X0057255D02*
X0058042D01*
X0059337D02*
X0061573D01*
X0061928D02*
X0062741D01*
X0065179D02*
X0068075D01*
X0042675Y0044368D02*
X0044986D01*
X0046993D02*
X0049101D01*
X0049635D02*
X0051870D01*
X0052276D02*
X0052886D01*
X0053191D02*
X0053876D01*
X0054384D02*
X0054994D01*
X0055273D02*
X0055959D01*
X0057255D02*
X0058042D01*
X0059337D02*
X0061573D01*
X0061928D02*
X0062741D01*
X0065179D02*
X0068075D01*
X0042675Y0044343D02*
X0044986D01*
X0047044D02*
X0049152D01*
X0049635D02*
X0051870D01*
X0052276D02*
X0052886D01*
X0053216D02*
X0053876D01*
X0054384D02*
X0054969D01*
X0055273D02*
X0055959D01*
X0057255D02*
X0058042D01*
X0059337D02*
X0061573D01*
X0061928D02*
X0062741D01*
X0065179D02*
X0068075D01*
X0042675Y0044317D02*
X0045012D01*
X0047095D02*
X0049203D01*
X0049635D02*
X0051870D01*
X0052276D02*
X0052886D01*
X0053216D02*
X0053902D01*
X0054359D02*
X0054969D01*
X0055273D02*
X0055959D01*
X0057255D02*
X0058042D01*
X0059337D02*
X0061573D01*
X0061928D02*
X0062741D01*
X0065179D02*
X0068075D01*
X0042675Y0044292D02*
X0045012D01*
X0047171D02*
X0049228D01*
X0049635D02*
X0051870D01*
X0052276D02*
X0052886D01*
X0053241D02*
X0053902D01*
X0054334D02*
X0054943D01*
X0055273D02*
X0055959D01*
X0057255D02*
X0058042D01*
X0059337D02*
X0061573D01*
X0061928D02*
X0062741D01*
X0065179D02*
X0068075D01*
X0042675Y0044267D02*
X0045037D01*
X0047247D02*
X0049254D01*
X0049635D02*
X0051870D01*
X0052276D02*
X0052886D01*
X0053241D02*
X0053927D01*
X0054334D02*
X0054918D01*
X0055273D02*
X0055959D01*
X0057255D02*
X0058042D01*
X0059337D02*
X0061573D01*
X0061928D02*
X0062766D01*
X0065179D02*
X0068075D01*
X0042675Y0044241D02*
X0045037D01*
X0047349D02*
X0049279D01*
X0049635D02*
X0051870D01*
X0052276D02*
X0052886D01*
X0053267D02*
X0053927D01*
X0054308D02*
X0054918D01*
X0055273D02*
X0055959D01*
X0057255D02*
X0058042D01*
X0059337D02*
X0061573D01*
X0061928D02*
X0062766D01*
X0065179D02*
X0068075D01*
X0042675Y0044216D02*
X0045037D01*
X0047476D02*
X0049304D01*
X0049635D02*
X0051870D01*
X0052276D02*
X0052886D01*
X0053267D02*
X0053953D01*
X0054308D02*
X0054892D01*
X0055273D02*
X0055959D01*
X0057255D02*
X0058042D01*
X0059337D02*
X0061573D01*
X0061928D02*
X0062766D01*
X0065179D02*
X0068075D01*
X0042675Y0044190D02*
X0045037D01*
X0047628D02*
X0049330D01*
X0049635D02*
X0051870D01*
X0052276D02*
X0052886D01*
X0053292D02*
X0053978D01*
X0054283D02*
X0054892D01*
X0055273D02*
X0055959D01*
X0057255D02*
X0058042D01*
X0059337D02*
X0061573D01*
X0061928D02*
X0062766D01*
X0065179D02*
X0068075D01*
X0042675Y0044165D02*
X0045063D01*
X0047831D02*
X0049355D01*
X0049635D02*
X0051844D01*
X0052276D02*
X0052886D01*
X0053318D02*
X0053978D01*
X0054257D02*
X0054867D01*
X0055273D02*
X0055959D01*
X0057255D02*
X0058042D01*
X0059337D02*
X0061573D01*
X0061928D02*
X0062792D01*
X0065179D02*
X0068075D01*
X0042675Y0044140D02*
X0045063D01*
X0048034D02*
X0049355D01*
X0049635D02*
X0050422D01*
X0052276D02*
X0052886D01*
X0053318D02*
X0054003D01*
X0054257D02*
X0054867D01*
X0055273D02*
X0055959D01*
X0057255D02*
X0058042D01*
X0059337D02*
X0060125D01*
X0061928D02*
X0062792D01*
X0065179D02*
X0065967D01*
X0067262D02*
X0068075D01*
X0042675Y0044114D02*
X0045063D01*
X0048238D02*
X0049355D01*
X0049635D02*
X0050422D01*
X0052276D02*
X0052886D01*
X0053343D02*
X0054003D01*
X0054232D02*
X0054842D01*
X0055273D02*
X0055959D01*
X0057255D02*
X0058042D01*
X0059337D02*
X0060125D01*
X0061954D02*
X0062792D01*
X0065179D02*
X0065967D01*
X0067262D02*
X0068075D01*
X0042675Y0044089D02*
X0045063D01*
X0048365D02*
X0049381D01*
X0049635D02*
X0050422D01*
X0052276D02*
X0052886D01*
X0053343D02*
X0054029D01*
X0054232D02*
X0054816D01*
X0055273D02*
X0055959D01*
X0057255D02*
X0058042D01*
X0059337D02*
X0060125D01*
X0061954D02*
X0062817D01*
X0065179D02*
X0065967D01*
X0067262D02*
X0068075D01*
X0042675Y0044063D02*
X0045063D01*
X0046002D02*
X0046028D01*
X0048466D02*
X0049381D01*
X0049635D02*
X0050422D01*
X0052276D02*
X0052886D01*
X0053368D02*
X0054029D01*
X0054207D02*
X0054816D01*
X0055273D02*
X0055959D01*
X0057255D02*
X0058042D01*
X0059337D02*
X0060125D01*
X0061954D02*
X0062817D01*
X0065179D02*
X0065967D01*
X0067262D02*
X0068075D01*
X0042675Y0044038D02*
X0045063D01*
X0046002D02*
X0046028D01*
X0048517D02*
X0049381D01*
X0049635D02*
X0050422D01*
X0052276D02*
X0052886D01*
X0053394D02*
X0054054D01*
X0054181D02*
X0054791D01*
X0055273D02*
X0055959D01*
X0057255D02*
X0058042D01*
X0059337D02*
X0060125D01*
X0061979D02*
X0062843D01*
X0064113D02*
X0064976D01*
X0065179D02*
X0065967D01*
X0067262D02*
X0068075D01*
X0042675Y0044013D02*
X0045063D01*
X0046002D02*
X0046028D01*
X0046739D02*
X0047526D01*
X0048568D02*
X0049381D01*
X0049635D02*
X0050422D01*
X0052276D02*
X0052886D01*
X0053394D02*
X0054054D01*
X0054181D02*
X0054791D01*
X0055273D02*
X0055959D01*
X0057255D02*
X0058042D01*
X0059337D02*
X0060125D01*
X0061979D02*
X0062868D01*
X0064113D02*
X0064976D01*
X0065179D02*
X0065967D01*
X0067262D02*
X0068075D01*
X0042675Y0043987D02*
X0045063D01*
X0046002D02*
X0046028D01*
X0046739D02*
X0047552D01*
X0048593D02*
X0049381D01*
X0049635D02*
X0050422D01*
X0052276D02*
X0052886D01*
X0053419D02*
X0054080D01*
X0054156D02*
X0054765D01*
X0055273D02*
X0055959D01*
X0057255D02*
X0058042D01*
X0059337D02*
X0060125D01*
X0062004D02*
X0062893D01*
X0064087D02*
X0064951D01*
X0065179D02*
X0065967D01*
X0067262D02*
X0068075D01*
X0042675Y0043962D02*
X0045063D01*
X0045977D02*
X0046028D01*
X0046764D02*
X0047552D01*
X0048593D02*
X0049381D01*
X0049635D02*
X0050422D01*
X0052276D02*
X0052886D01*
X0053419D02*
X0054105D01*
X0054156D02*
X0054740D01*
X0055273D02*
X0055959D01*
X0057255D02*
X0058042D01*
X0059337D02*
X0060125D01*
X0062004D02*
X0062919D01*
X0064087D02*
X0064951D01*
X0065179D02*
X0065967D01*
X0067262D02*
X0068075D01*
X0042675Y0043936D02*
X0045037D01*
X0045977D02*
X0046028D01*
X0046764D02*
X0047552D01*
X0048593D02*
X0049381D01*
X0049635D02*
X0050422D01*
X0052276D02*
X0052886D01*
X0053445D02*
X0054105D01*
X0054130D02*
X0054740D01*
X0055273D02*
X0055959D01*
X0057255D02*
X0058042D01*
X0059337D02*
X0060125D01*
X0062030D02*
X0062944D01*
X0064062D02*
X0064951D01*
X0065179D02*
X0065967D01*
X0067262D02*
X0068075D01*
X0042675Y0043911D02*
X0045037D01*
X0045977D02*
X0046028D01*
X0046764D02*
X0047552D01*
X0048593D02*
X0049381D01*
X0049635D02*
X0050422D01*
X0052276D02*
X0052886D01*
X0053445D02*
X0054715D01*
X0055273D02*
X0055959D01*
X0057255D02*
X0058042D01*
X0059337D02*
X0060125D01*
X0062030D02*
X0062970D01*
X0064036D02*
X0064951D01*
X0065179D02*
X0065967D01*
X0067262D02*
X0068075D01*
X0042675Y0043886D02*
X0045037D01*
X0045977D02*
X0046028D01*
X0046764D02*
X0047577D01*
X0048593D02*
X0049381D01*
X0049635D02*
X0050422D01*
X0052276D02*
X0052886D01*
X0053470D02*
X0054715D01*
X0055273D02*
X0055959D01*
X0057255D02*
X0058042D01*
X0059337D02*
X0060125D01*
X0062055D02*
X0063020D01*
X0064011D02*
X0064925D01*
X0065179D02*
X0065967D01*
X0067262D02*
X0068075D01*
X0042675Y0043860D02*
X0045037D01*
X0045977D02*
X0046028D01*
X0046764D02*
X0047603D01*
X0048568D02*
X0049355D01*
X0049635D02*
X0050422D01*
X0052276D02*
X0052886D01*
X0053495D02*
X0054689D01*
X0055273D02*
X0055959D01*
X0057255D02*
X0058042D01*
X0059337D02*
X0060125D01*
X0062081D02*
X0063071D01*
X0063960D02*
X0064925D01*
X0065179D02*
X0065967D01*
X0067262D02*
X0068075D01*
X0042675Y0043835D02*
X0045012D01*
X0045952D02*
X0046028D01*
X0046790D02*
X0047628D01*
X0048517D02*
X0049355D01*
X0049635D02*
X0050422D01*
X0052276D02*
X0052886D01*
X0053495D02*
X0054689D01*
X0055273D02*
X0055959D01*
X0057255D02*
X0058042D01*
X0059337D02*
X0060125D01*
X0062106D02*
X0063122D01*
X0063909D02*
X0064900D01*
X0065179D02*
X0065967D01*
X0067262D02*
X0068075D01*
X0042675Y0043809D02*
X0045012D01*
X0045952D02*
X0046028D01*
X0046790D02*
X0047679D01*
X0048466D02*
X0049355D01*
X0049635D02*
X0051971D01*
X0052276D02*
X0052886D01*
X0053521D02*
X0054664D01*
X0055273D02*
X0055959D01*
X0057255D02*
X0058042D01*
X0059337D02*
X0061700D01*
X0062131D02*
X0063224D01*
X0063808D02*
X0064900D01*
X0065179D02*
X0065967D01*
X0067262D02*
X0068075D01*
X0042675Y0043784D02*
X0044986D01*
X0045952D02*
X0046028D01*
X0046815D02*
X0047755D01*
X0048365D02*
X0049330D01*
X0049635D02*
X0051971D01*
X0052276D02*
X0052886D01*
X0053521D02*
X0054638D01*
X0055273D02*
X0055959D01*
X0057255D02*
X0058042D01*
X0059337D02*
X0061700D01*
X0062157D02*
X0063376D01*
X0063630D02*
X0064875D01*
X0065179D02*
X0065967D01*
X0067262D02*
X0068075D01*
X0042675Y0043759D02*
X0044986D01*
X0045952D02*
X0046028D01*
X0046815D02*
X0048060D01*
X0048085D02*
X0049304D01*
X0049635D02*
X0051971D01*
X0052276D02*
X0052886D01*
X0053546D02*
X0054638D01*
X0055273D02*
X0055959D01*
X0057255D02*
X0058042D01*
X0059337D02*
X0061700D01*
X0062182D02*
X0064849D01*
X0065179D02*
X0065967D01*
X0067262D02*
X0068075D01*
X0042675Y0043733D02*
X0044961D01*
X0045926D02*
X0046028D01*
X0046841D02*
X0049304D01*
X0049635D02*
X0051971D01*
X0052276D02*
X0052886D01*
X0053546D02*
X0054613D01*
X0055273D02*
X0055959D01*
X0057255D02*
X0058042D01*
X0059337D02*
X0061700D01*
X0062208D02*
X0064824D01*
X0065179D02*
X0065967D01*
X0067262D02*
X0068075D01*
X0042675Y0043708D02*
X0044961D01*
X0045926D02*
X0046028D01*
X0046866D02*
X0049279D01*
X0049635D02*
X0051971D01*
X0052276D02*
X0052886D01*
X0053572D02*
X0054613D01*
X0055273D02*
X0055959D01*
X0057255D02*
X0058042D01*
X0059337D02*
X0061700D01*
X0062233D02*
X0064798D01*
X0065179D02*
X0065967D01*
X0067262D02*
X0068075D01*
X0042675Y0043682D02*
X0044936D01*
X0045926D02*
X0046028D01*
X0046891D02*
X0049254D01*
X0049635D02*
X0051971D01*
X0052276D02*
X0052886D01*
X0053597D02*
X0054588D01*
X0055273D02*
X0055959D01*
X0057255D02*
X0058042D01*
X0059337D02*
X0061700D01*
X0062284D02*
X0064773D01*
X0065179D02*
X0065967D01*
X0067262D02*
X0068075D01*
X0042675Y0043657D02*
X0044910D01*
X0045901D02*
X0046028D01*
X0046917D02*
X0049203D01*
X0049635D02*
X0051971D01*
X0052276D02*
X0052886D01*
X0053597D02*
X0054588D01*
X0055273D02*
X0055959D01*
X0057255D02*
X0058042D01*
X0059337D02*
X0061700D01*
X0062309D02*
X0064722D01*
X0065179D02*
X0065967D01*
X0067262D02*
X0068075D01*
X0042675Y0043632D02*
X0044885D01*
X0045901D02*
X0046028D01*
X0046942D02*
X0049177D01*
X0049635D02*
X0051971D01*
X0052276D02*
X0052886D01*
X0053622D02*
X0054562D01*
X0055273D02*
X0055959D01*
X0057255D02*
X0058042D01*
X0059337D02*
X0061700D01*
X0062360D02*
X0064697D01*
X0065179D02*
X0065967D01*
X0067262D02*
X0068075D01*
X0042675Y0043606D02*
X0044885D01*
X0045875D02*
X0046028D01*
X0046968D02*
X0049127D01*
X0049635D02*
X0051971D01*
X0052276D02*
X0052886D01*
X0053622D02*
X0054537D01*
X0055273D02*
X0055959D01*
X0057255D02*
X0058042D01*
X0059337D02*
X0061700D01*
X0062411D02*
X0064646D01*
X0065179D02*
X0065967D01*
X0067262D02*
X0068075D01*
X0042675Y0043581D02*
X0044859D01*
X0045875D02*
X0046028D01*
X0047018D02*
X0049076D01*
X0049635D02*
X0051971D01*
X0052276D02*
X0052886D01*
X0053648D02*
X0054537D01*
X0055273D02*
X0055959D01*
X0057255D02*
X0058042D01*
X0059337D02*
X0061700D01*
X0062462D02*
X0064595D01*
X0065179D02*
X0065967D01*
X0067262D02*
X0068075D01*
X0042675Y0043555D02*
X0044834D01*
X0045875D02*
X0046028D01*
X0047069D02*
X0049025D01*
X0049635D02*
X0051971D01*
X0052276D02*
X0052886D01*
X0053673D02*
X0054511D01*
X0055273D02*
X0055959D01*
X0057255D02*
X0058042D01*
X0059337D02*
X0061700D01*
X0062512D02*
X0064544D01*
X0065179D02*
X0065967D01*
X0067262D02*
X0068075D01*
X0042675Y0043530D02*
X0044809D01*
X0045850D02*
X0046028D01*
X0047145D02*
X0048949D01*
X0049635D02*
X0051971D01*
X0052276D02*
X0052886D01*
X0053673D02*
X0054511D01*
X0055273D02*
X0055959D01*
X0057255D02*
X0058042D01*
X0059337D02*
X0061700D01*
X0062589D02*
X0064468D01*
X0065179D02*
X0065967D01*
X0067262D02*
X0068075D01*
X0042675Y0043505D02*
X0044783D01*
X0045850D02*
X0046028D01*
X0047222D02*
X0048873D01*
X0049635D02*
X0051971D01*
X0052276D02*
X0052886D01*
X0053699D02*
X0054486D01*
X0055273D02*
X0055959D01*
X0057255D02*
X0058042D01*
X0059337D02*
X0061700D01*
X0062690D02*
X0064367D01*
X0065179D02*
X0065967D01*
X0067262D02*
X0068075D01*
X0042675Y0043479D02*
X0044783D01*
X0045825D02*
X0046028D01*
X0047298D02*
X0048771D01*
X0049635D02*
X0051971D01*
X0052276D02*
X0052886D01*
X0053699D02*
X0054486D01*
X0055273D02*
X0055959D01*
X0057255D02*
X0058042D01*
X0059337D02*
X0061700D01*
X0062792D02*
X0064265D01*
X0065179D02*
X0065967D01*
X0067262D02*
X0068075D01*
X0042675Y0043454D02*
X0044758D01*
X0045825D02*
X0046028D01*
X0047450D02*
X0048619D01*
X0062919D02*
X0064087D01*
X0042675Y0043428D02*
X0044732D01*
X0045799D02*
X0046028D01*
X0047679D02*
X0048365D01*
X0063122D02*
X0063833D01*
X0042675Y0043403D02*
X0044707D01*
X0045799D02*
X0046028D01*
X0042675Y0043378D02*
X0044682D01*
X0045774D02*
X0046028D01*
X0042675Y0043352D02*
X0044656D01*
X0045774D02*
X0046028D01*
X0042675Y0043327D02*
X0044631D01*
X0045748D02*
X0046028D01*
X0042675Y0043301D02*
X0044605D01*
X0045748D02*
X0046028D01*
X0042675Y0043276D02*
X0044580D01*
X0045723D02*
X0046028D01*
X0042675Y0043251D02*
X0044555D01*
X0045723D02*
X0046028D01*
X0042675Y0043225D02*
X0044529D01*
X0045698D02*
X0046028D01*
X0042675Y0043200D02*
X0044504D01*
X0045672D02*
X0046028D01*
X0042675Y0043174D02*
X0044478D01*
X0045672D02*
X0046028D01*
X0042675Y0043149D02*
X0044453D01*
X0045647D02*
X0046028D01*
X0042675Y0043124D02*
X0044428D01*
X0045647D02*
X0046028D01*
X0042675Y0043098D02*
X0044402D01*
X0045621D02*
X0046028D01*
X0042675Y0043073D02*
X0044377D01*
X0045596D02*
X0046028D01*
X0042675Y0043047D02*
X0044351D01*
X0045596D02*
X0046028D01*
X0042675Y0043022D02*
X0044326D01*
X0045571D02*
X0046028D01*
X0042675Y0042997D02*
X0044301D01*
X0045545D02*
X0046028D01*
X0042675Y0042971D02*
X0044275D01*
X0045545D02*
X0046028D01*
X0042675Y0042946D02*
X0044250D01*
X0045520D02*
X0046028D01*
X0042675Y0042920D02*
X0044224D01*
X0045494D02*
X0046028D01*
X0042675Y0042895D02*
X0044199D01*
X0045494D02*
X0046028D01*
X0042675Y0042870D02*
X0044174D01*
X0045469D02*
X0046028D01*
X0042675Y0042844D02*
X0044148D01*
X0045444D02*
X0046028D01*
X0042675Y0042819D02*
X0044123D01*
X0045444D02*
X0046028D01*
X0042675Y0042793D02*
X0044097D01*
X0045418D02*
X0046028D01*
X0042675Y0042768D02*
X0044072D01*
X0045393D02*
X0046028D01*
X0042675Y0042743D02*
X0044047D01*
X0045367D02*
X0046028D01*
X0042675Y0042717D02*
X0044021D01*
X0045367D02*
X0046028D01*
X0042675Y0042692D02*
X0043996D01*
X0045342D02*
X0046028D01*
X0042675Y0042666D02*
X0043945D01*
X0045317D02*
X0046028D01*
X0042675Y0042641D02*
X0043920D01*
X0045291D02*
X0046028D01*
X0042675Y0042616D02*
X0043894D01*
X0045291D02*
X0046028D01*
X0042675Y0042590D02*
X0043869D01*
X0045266D02*
X0046028D01*
X0042675Y0042565D02*
X0043843D01*
X0045240D02*
X0046028D01*
X0042675Y0042539D02*
X0043818D01*
X0045215D02*
X0046028D01*
X0042675Y0042514D02*
X0043793D01*
X0045190D02*
X0046028D01*
X0042675Y0042489D02*
X0043767D01*
X0045164D02*
X0046028D01*
X0042675Y0042463D02*
X0043716D01*
X0045164D02*
X0046028D01*
X0042675Y0042438D02*
X0043691D01*
X0045139D02*
X0046028D01*
X0042675Y0042412D02*
X0043666D01*
X0045113D02*
X0046028D01*
X0042675Y0042387D02*
X0043640D01*
X0045088D02*
X0046028D01*
X0042675Y0042362D02*
X0043615D01*
X0045063D02*
X0046028D01*
X0042675Y0042336D02*
X0043589D01*
X0045037D02*
X0046028D01*
X0042675Y0042311D02*
X0043564D01*
X0045012D02*
X0046028D01*
X0042675Y0042285D02*
X0043513D01*
X0045012D02*
X0046028D01*
X0042675Y0042260D02*
X0043488D01*
X0044986D02*
X0046028D01*
X0042675Y0042235D02*
X0043462D01*
X0044961D02*
X0046028D01*
X0042675Y0042209D02*
X0043437D01*
X0044936D02*
X0046028D01*
X0042675Y0042184D02*
X0043412D01*
X0044910D02*
X0046028D01*
X0042675Y0042158D02*
X0043361D01*
X0044885D02*
X0046028D01*
X0042675Y0042133D02*
X0043335D01*
X0044859D02*
X0046028D01*
X0042675Y0042108D02*
X0043310D01*
X0044834D02*
X0046028D01*
X0042675Y0042082D02*
X0043285D01*
X0044809D02*
X0046028D01*
X0042675Y0042057D02*
X0043259D01*
X0044783D02*
X0046028D01*
X0042675Y0042031D02*
X0043208D01*
X0044758D02*
X0046028D01*
X0042675Y0042006D02*
X0043183D01*
X0044732D02*
X0046028D01*
X0042675Y0041981D02*
X0043158D01*
X0044707D02*
X0046028D01*
X0042675Y0041955D02*
X0043132D01*
X0044682D02*
X0046028D01*
X0042675Y0041930D02*
X0043081D01*
X0044656D02*
X0046028D01*
X0042675Y0041904D02*
X0043056D01*
X0044631D02*
X0046028D01*
X0042675Y0041879D02*
X0043031D01*
X0044605D02*
X0046028D01*
X0042675Y0041854D02*
X0042980D01*
X0044580D02*
X0046028D01*
X0042675Y0041828D02*
X0042954D01*
X0044555D02*
X0046028D01*
X0042675Y0041803D02*
X0042929D01*
X0044529D02*
X0046028D01*
X0042675Y0041777D02*
X0042904D01*
X0044504D02*
X0046028D01*
X0042675Y0041752D02*
X0042853D01*
X0044478D02*
X0046028D01*
X0042675Y0041727D02*
X0042827D01*
X0044453D02*
X0046028D01*
X0042675Y0041701D02*
X0042802D01*
X0044428D02*
X0046028D01*
X0042675Y0041676D02*
X0042751D01*
X0044402D02*
X0046028D01*
X0042675Y0041650D02*
X0042726D01*
X0044377D02*
X0046028D01*
X0042675Y0041625D02*
X0042700D01*
X0044351D02*
X0046028D01*
D74*
X0010296Y0008120D02*
X0009873D01*
X0010085D01*
Y0007062D01*
X0009873Y0006850D01*
X0009662D01*
X0009450Y0007062D01*
X0010720Y0007908D02*
X0010931Y0008120D01*
X0011354D01*
X0011566Y0007908D01*
Y0007696D01*
X0011354Y0007485D01*
X0011143D01*
X0011354D01*
X0011566Y0007273D01*
Y0007062D01*
X0011354Y0006850D01*
X0010931D01*
X0010720Y0007062D01*
X0033246Y0008120D02*
X0032823D01*
X0033035D01*
Y0007062D01*
X0032823Y0006850D01*
X0032612D01*
X0032400Y0007062D01*
X0034304Y0006850D02*
Y0008120D01*
X0033670Y0007485D01*
X0034516D01*
X0046467Y0048870D02*
X0046044D01*
X0046256D01*
Y0047812D01*
X0046044Y0047600D01*
X0045833D01*
X0045621Y0047812D01*
X0046891Y0047600D02*
X0047314D01*
X0047102D01*
Y0048870D01*
X0046891Y0048658D01*
X0024046Y0048870D02*
X0023623D01*
X0023835D01*
Y0047812D01*
X0023623Y0047600D01*
X0023412D01*
X0023200Y0047812D01*
X0025316Y0047600D02*
X0024470D01*
X0025316Y0048446D01*
Y0048658D01*
X0025104Y0048870D01*
X0024681D01*
X0024470Y0048658D01*
M02*
